<?xml version="1.0" encoding="UTF-8" standalone="no"?>
<!-- Created with Inkscape (http://www.inkscape.org/) -->

<svg
   xmlns:dc="http://purl.org/dc/elements/1.1/"
   xmlns:cc="http://creativecommons.org/ns#"
   xmlns:rdf="http://www.w3.org/1999/02/22-rdf-syntax-ns#"
   xmlns:svg="http://www.w3.org/2000/svg"
   xmlns="http://www.w3.org/2000/svg"
   xmlns:sodipodi="http://sodipodi.sourceforge.net/DTD/sodipodi-0.dtd"
   xmlns:inkscape="http://www.inkscape.org/namespaces/inkscape"
   version="1.1"
   id="svg2"
   width="638.40002"
   height="91.839996"
   viewBox="0 0 638.40002 91.839996"
   sodipodi:docname="gemeente_wageningen.jpg"
   inkscape:version="0.92.3 (2405546, 2018-03-11)">
  <metadata
     id="metadata8">
    <rdf:RDF>
      <cc:Work
         rdf:about="">
        <dc:format>image/svg+xml</dc:format>
        <dc:type
           rdf:resource="http://purl.org/dc/dcmitype/StillImage" />
        <dc:title></dc:title>
      </cc:Work>
    </rdf:RDF>
  </metadata>
  <defs
     id="defs6" />
  <sodipodi:namedview
     pagecolor="#ffffff"
     bordercolor="#666666"
     borderopacity="1"
     objecttolerance="10"
     gridtolerance="10"
     guidetolerance="10"
     inkscape:pageopacity="0"
     inkscape:pageshadow="2"
     inkscape:window-width="1920"
     inkscape:window-height="988"
     id="namedview4"
     showgrid="false"
     inkscape:zoom="1.670296"
     inkscape:cx="454.23349"
     inkscape:cy="139.23321"
     inkscape:window-x="0"
     inkscape:window-y="27"
     inkscape:window-maximized="1"
     inkscape:current-layer="svg2" />
  <g
     id="g817"
     transform="translate(-0.00210349,0.00247449)">
    <path
       style="fill:#e6e6e6;fill-opacity:1;stroke-width:0.31999999"
       d="m 336.67198,91.18463 c -3.85757,-1.010189 -6.58618,-2.973738 -8.10595,-5.833133 -1.03156,-1.940809 -1.03165,-6.202 -2.3e-4,-8.142604 1.43655,-2.702733 3.61184,-4.550755 6.92909,-5.886576 l 1.28554,-0.51768 -1.27021,-0.654278 c -1.6225,-0.835748 -3.18077,-2.46186 -3.81399,-3.980083 -0.68307,-1.637671 -0.63203,-4.169581 0.11348,-5.630903 0.70636,-1.384598 3.29513,-3.905516 4.82086,-4.694486 l 1.05114,-0.543577 -1.56084,-0.892868 c -1.87952,-1.075148 -4.59651,-3.878159 -5.52688,-5.701849 -0.37219,-0.729545 -0.88998,-2.230979 -1.15062,-3.336521 -1.6679,-7.074413 1.23331,-13.859647 7.20118,-16.841825 3.10816,-1.553164 6.0665,-2.064657 10.97511,-1.897577 3.68618,0.125471 4.52413,0.26099 6.62035,1.07067 2.30323,0.889639 2.64839,0.931005 8.56,1.025947 3.388,0.05441 6.15719,0.129031 6.15376,0.165821 -0.004,0.03679 -0.56096,1.794891 -1.23897,3.906891 l -1.23277,3.839999 -1.59453,0.09511 -1.59456,0.09511 -0.19392,2.624887 c -0.40448,5.474982 -2.08979,9.514578 -5.31062,12.72919 -3.54752,3.540646 -7.82817,5.018489 -13.39754,4.625337 l -2.96915,-0.209597 -0.66484,1.502928 c -0.8047,1.819158 -0.55884,3.097923 0.78909,4.104464 0.83402,0.622771 1.43795,0.685897 8.15738,0.85263 6.48582,0.160941 7.44864,0.255552 9.06374,0.890672 2.31981,0.912231 4.55805,2.890576 5.62269,4.969792 1.13661,2.219731 1.37597,6.067078 0.56407,9.06648 -0.75584,2.792297 -3.17885,6.378927 -5.70311,8.441942 -2.46691,2.01616 -7.01677,4.239903 -10.03389,4.904057 -3.29619,0.725584 -9.48713,0.652362 -12.54486,-0.148374 z m 13.24803,-6.67623 c 1.59507,-0.705159 3.46944,-2.749549 4.02173,-4.386576 0.23043,-0.683005 0.42266,-1.991699 0.4272,-2.908211 0.007,-1.335341 -0.14845,-1.834762 -0.78035,-2.513952 -1.16119,-1.248042 -1.74096,-1.382019 -7.69597,-1.778384 -6.25216,-0.416144 -6.12515,-0.457143 -7.34128,2.369785 -1.31034,3.045962 -0.29523,7.063453 2.20237,8.716282 2.25878,1.49479 6.40569,1.721471 9.1663,0.501056 z m -1.79094,-34.614725 c 2.49321,-1.519968 3.37337,-3.760535 3.38377,-8.613677 0.004,-1.848 -0.11158,-4.056851 -0.25673,-4.90856 -0.24717,-1.450476 -0.35799,-1.590188 -1.74948,-2.205715 -4.9352,-2.183071 -9.25801,0.875421 -9.60057,6.792605 -0.34147,5.898902 1.88947,9.55286 5.85395,9.587948 0.74963,0.0066 1.73123,-0.263763 2.36906,-0.652601 z m 181.79095,41.437044 c -4.15242,-1.102176 -6.83863,-3.027289 -8.29732,-5.946441 -1.06857,-2.13839 -1.30352,-4.696256 -0.64809,-7.056198 0.7008,-2.523402 4.04368,-5.753402 7.17222,-6.93009 l 1.58682,-0.596819 -1.26682,-0.64768 c -3.06537,-1.567235 -4.43568,-3.871347 -4.25056,-7.147247 0.15463,-2.736586 1.19587,-4.310256 4.20224,-6.351078 l 2.09895,-1.424832 -1.61344,-0.921476 c -3.40407,-1.944131 -5.84468,-5.403897 -6.69319,-9.488063 -0.50797,-2.445226 -0.20163,-6.804201 0.6312,-8.980797 1.45287,-3.7971 4.81136,-6.845674 9.21779,-8.367193 1.95396,-0.674692 2.72807,-0.751496 7.4602,-0.740185 5.15491,0.01232 5.344,0.03696 7.98125,1.04 2.68585,1.021524 2.73481,1.027379 8.59424,1.027379 4.57955,0 5.86016,0.08915 5.74576,0.4 -0.081,0.22 -0.68426,2.02 -1.34068,4 l -1.1935,3.599999 h -1.52611 -1.52611 l -0.19748,2.48 c -0.9184,11.533539 -8.35484,18.405971 -18.98336,17.54358 l -2.64518,-0.214627 -0.6544,1.282774 c -0.78263,1.534039 -0.82739,2.518912 -0.15802,3.474596 0.95079,1.35743 1.62557,1.48254 9.10359,1.687814 6.37334,0.17495 7.40749,0.27856 9.00707,0.902422 6.28438,2.450995 8.50835,9.797414 5.05581,16.700876 -2.47767,4.95416 -7.84983,8.945005 -14.19408,10.544432 -3.12672,0.788272 -9.924,0.857408 -12.6688,0.128854 z m 12.22768,-6.585331 c 1.78841,-0.531296 4.13824,-2.861625 4.66118,-4.622518 0.54515,-1.835718 0.49325,-4.314672 -0.10829,-5.1735 -0.92806,-1.325002 -2.0671,-1.618458 -7.83251,-2.017943 l -5.55382,-0.384825 -0.84986,1.01799 c -2.06486,2.473373 -2.10973,6.921376 -0.094,9.31696 1.95776,2.326652 5.77187,3.053734 9.77728,1.863836 z m -1.00263,-34.913006 c 2.44749,-1.64935 3.30778,-4.015616 3.28394,-9.032384 -0.0272,-5.731065 -0.40368,-6.441334 -3.81962,-7.20686 -3.21024,-0.719431 -6.32665,1.210208 -7.31174,4.527308 -1.0417,3.507767 -0.41399,8.468944 1.3344,10.54679 1.65478,1.966595 4.55411,2.485267 6.51302,1.165146 z m -320.86733,7.524425 -8.35825,-30.956808 6.40682,-0.08677 c 3.52375,-0.04773 6.44968,-0.04391 6.50207,0.0085 0.0524,0.05239 2.51543,9.26976 5.47344,20.483052 2.958,11.213292 5.45019,20.385772 5.53819,20.383292 0.088,-0.0026 2.05111,-5.248582 4.36248,-11.658003 l 4.20248,-11.653487 -2.35269,-8.418278 c -1.29397,-4.630054 -2.35709,-8.598279 -2.36248,-8.818279 -0.008,-0.306614 1.442,-0.4 6.20864,-0.4 5.64634,0 6.23357,0.05152 6.3829,0.56 0.0905,0.308 2.42417,9.127999 5.18603,19.599999 2.76186,10.472 5.11064,19.141881 5.21951,19.266402 0.10886,0.124522 2.20039,-7.147478 4.64783,-16.159999 2.44743,-9.012521 4.87672,-17.934402 5.39841,-19.826402 l 0.94853,-3.44 h 5.59648 5.59649 l -0.1523,0.72 c -0.29768,1.407289 -18.27064,58.644621 -18.49714,58.906663 -0.25017,0.289421 -8.058,2.111261 -9.10689,2.124957 -0.57552,0.0075 -1.05078,-1.485156 -4.60774,-14.471622 -2.18131,-7.964 -4.05254,-14.576707 -4.15828,-14.694905 -0.10575,-0.118199 -2.56826,5.956358 -5.47226,13.499014 l -5.28,13.713919 -4,0.994128 c -2.2,0.546771 -4.21691,1.058781 -4.48201,1.137798 -0.38977,0.116173 -2.08153,-5.78054 -8.84026,-30.813144 z m 94.70672,14.326966 c -0.73456,-0.15513 -1.77185,-0.507671 -2.30509,-0.783421 -1.1546,-0.597069 -3.14699,-2.585193 -3.40481,-3.397529 -0.15555,-0.490096 -0.40118,-0.359357 -1.62601,0.865478 -0.79353,0.79353 -2.26308,1.827286 -3.26566,2.297238 -1.64427,0.770736 -2.18346,0.854458 -5.50288,0.854458 -3.18422,0 -3.87949,-0.09829 -5.16073,-0.729536 -2.04681,-1.008435 -3.73562,-2.742045 -4.72385,-4.849158 -0.72612,-1.54824 -0.83542,-2.199994 -0.83542,-4.981306 0,-2.855433 0.0963,-3.39606 0.89416,-5.020828 1.14019,-2.32185 3.74912,-4.722931 6.66353,-6.132659 1.22858,-0.594279 4.52863,-1.783859 7.33343,-2.64351 l 5.09964,-1.563002 0.005,-4.255891 c 0.005,-4.547328 -0.26684,-5.625542 -1.66475,-6.604685 -1.8235,-1.277225 -3.98413,-0.341145 -8.73063,3.782487 -1.936,1.681945 -3.60594,3.062585 -3.71097,3.068086 -0.3086,0.01616 -5.24903,-6.351459 -5.24903,-6.765369 0,-0.649623 5.22394,-4.640724 7.62655,-5.826705 3.75749,-1.854771 5.81823,-2.277922 11.09346,-2.277922 4.33359,0 4.75763,0.05517 6.42131,0.835425 2.08522,0.977961 3.83489,2.668209 4.72732,4.56677 1.25824,2.676787 1.36279,4.4575 0.98542,16.782697 -0.19577,6.393689 -0.2662,12.103218 -0.15653,12.687846 0.26741,1.425398 0.72066,1.734889 3.10238,2.118457 1.11316,0.179264 2.06528,0.367315 2.11584,0.417891 0.0506,0.05057 -0.22313,1.55617 -0.60825,3.34577 l -0.70019,3.25382 -1.5865,0.471139 c -2.08117,0.618039 -5.16706,0.836493 -6.83635,0.483959 z m -8.11093,-7.878521 1.28648,-0.514746 v -5.746819 -5.746819 l -0.72,0.218691 c -2.62673,0.797837 -5.89721,2.274704 -6.80785,3.074253 -0.59019,0.518198 -1.24258,1.455766 -1.44974,2.083488 -0.501,1.518029 -0.2226,4.10856 0.55565,5.170534 1.37734,1.879453 4.4949,2.517962 7.13546,1.461418 z m 78.53515,7.894866 c -7.19878,-1.140108 -11.84579,-5.574319 -13.9383,-13.300121 -0.93354,-3.446675 -1.03258,-12.834265 -0.17219,-16.319999 1.82521,-7.394518 5.65741,-12.467286 11.04041,-14.614452 1.58954,-0.634029 2.39175,-0.726519 6.30141,-0.726519 3.9664,0 4.70013,0.08727 6.4,0.761221 2.67683,1.061287 5.82925,4.240724 6.84106,6.899751 1.1592,3.046329 1.51942,6.870732 1.04723,11.117826 -0.22026,1.981197 -0.50125,3.693654 -0.62438,3.805469 -0.12314,0.111811 -4.75751,0.373398 -10.29853,0.581299 -5.54106,0.207904 -10.1417,0.445062 -10.22365,0.527024 -0.29542,0.295424 0.61069,5.298957 1.2015,6.63456 0.89092,2.014064 2.39533,3.556403 4.29444,4.402688 2.95075,1.314921 9.18086,0.817859 12.78313,-1.019888 l 1.2192,-0.621988 -0.004,0.726506 c -0.005,1.031158 -1.4639,9.500768 -1.67213,9.708979 -0.0951,0.09507 -1.49657,0.444057 -3.11443,0.775523 -3.46291,0.709475 -8.77712,1.027014 -11.08109,0.662121 z m 3.98218,-28.708037 2.92915,-0.20792 v -2.665606 c 0,-4.491875 -1.14944,-6.198556 -4.17472,-6.198556 -2.5983,0 -4.37965,1.962175 -5.24822,5.780902 -0.80695,3.547846 -0.82829,3.499097 1.53379,3.499097 1.11696,0 3.34896,-0.09356 4.96,-0.207917 z M 578.19842,71.65728 c -7.01936,-1.031219 -11.69475,-5.489785 -13.78903,-13.149577 -0.64537,-2.360425 -0.72668,-3.368032 -0.70614,-8.747705 0.0198,-5.182634 0.12544,-6.457837 0.71562,-8.64 2.00777,-7.423862 6.51219,-12.537889 12.39235,-14.069468 2.14233,-0.558014 6.97133,-0.635616 9.09526,-0.146161 7.35389,1.694669 11.12941,8.730423 9.95475,18.550771 -0.199,1.663671 -0.43241,3.256512 -0.51872,3.539648 -0.13385,0.439114 -1.03785,0.545379 -6.14969,0.722899 -3.29603,0.114464 -7.9008,0.29824 -10.2328,0.408394 l -4.24,0.200282 v 1.221065 c 0,3.241347 1.4183,6.864803 3.35136,8.562057 1.89536,1.664138 3.1768,2.069699 6.56864,2.07889 3.0351,0.0082 6.46061,-0.742064 8.72,-1.909939 0.70694,-0.365421 0.88,-0.372483 0.88,-0.03592 0,0.617312 -1.53799,9.884399 -1.65776,9.988796 -0.32327,0.281728 -4.67767,1.15791 -7.14224,1.437139 -3.26141,0.369507 -4.66512,0.367341 -7.2416,-0.01117 z m 4.15245,-28.665199 2.92915,-0.20792 -0.003,-2.43208 c -0.003,-3.141174 -0.42551,-4.596207 -1.63213,-5.611513 -0.72864,-0.61311 -1.33706,-0.820569 -2.40653,-0.820569 -1.92077,0 -3.13337,0.688268 -4.09046,2.321782 -0.85808,1.464477 -1.78909,4.620873 -1.78909,6.065449 0,0.883242 0.0218,0.892768 2.03085,0.892768 1.11696,0 3.34896,-0.09356 4.96,-0.207917 z M 412.48001,50.25355 V 29.4671 l 2.16,-0.632044 c 5.15072,-1.507169 8.98858,-2.595057 9.15482,-2.595057 0.0986,0 0.22112,1.155497 0.27226,2.567771 l 0.0929,2.567771 1.76,-1.335247 c 7.06272,-5.358229 15.39456,-4.365707 18.33005,2.183551 1.37776,3.073827 1.50496,4.965363 1.50752,22.416153 l 0.003,16.399999 h -5.74589 -5.74592 l -0.0941,-15.759999 c -0.0917,-15.364189 -0.11145,-15.797497 -0.78419,-17.253011 -0.37952,-0.821155 -1.05238,-1.730409 -1.4952,-2.020563 -1.23808,-0.811213 -3.96448,-0.971098 -6.07872,-0.356474 l -1.816,0.527927 v 17.431058 17.431062 h -5.76 -5.76 V 50.25355 Z m 44.48,0.03415 V 29.535407 l 5.59104,-1.603326 c 3.07508,-0.881829 5.66708,-1.527296 5.76,-1.434371 0.0929,0.09293 0.16896,10.152954 0.16896,22.355622 v 22.186665 h -5.76 -5.76 z m 23.04001,-0.02614 c 0,-19.513028 0.0341,-20.788447 0.56,-20.942824 0.308,-0.09041 2.648,-0.755846 5.2,-1.478739 2.552,-0.722894 4.892,-1.388326 5.2,-1.47874 0.50275,-0.147586 0.56,0.117778 0.56,2.596224 v 2.760612 l 1.52,-1.257592 c 3.47507,-2.875153 6.82409,-4.087864 10.51763,-3.808523 5.12246,0.387412 8.12496,3.143919 9.26061,8.501945 0.35449,1.672486 0.45184,5.727347 0.45619,19.006072 l 0.006,16.880003 h -5.6 -5.6 l -0.0163,-12.56 c -0.0237,-18.25108 -0.31508,-20.754936 -2.61044,-22.431919 -1.1999,-0.87663 -3.87756,-1.049232 -6.128,-0.395011 l -1.80528,0.52481 v 17.431058 17.431062 h -5.76 -5.76 V 50.261563 Z m 125.44,-0.008 V 29.46711 l 2.16,-0.634034 c 1.188,-0.348719 3.528,-1.022339 5.2,-1.496934 1.672,-0.474595 3.22,-0.930783 3.44,-1.013752 0.30077,-0.113428 0.4,0.534651 0.4,2.612276 v 2.763129 l 2,-1.530853 c 1.1,-0.841969 2.936,-1.96197 4.08,-2.488892 1.85021,-0.852199 2.41584,-0.957644 5.12,-0.954454 2.50842,0.0029 3.33587,0.136661 4.73206,0.764592 2.08132,0.936084 3.9545,2.994205 4.93728,5.424752 0.72698,1.797968 0.73111,1.898541 0.82077,19.967068 l 0.0901,18.16 h -5.59094 -5.59095 l -0.10134,-15.76 c -0.0934,-14.519628 -0.14813,-15.867362 -0.69555,-17.124127 -1.15472,-2.650976 -3.88029,-3.527578 -7.72893,-2.485798 l -2.07248,0.560995 v 17.404466 17.404464 h -5.6 -5.6 z M 3.8148529,37.660443 C 1.1682633,36.672862 0.00525254,35.188526 0.00210855,32.79428 -5.2494082e-4,30.788808 1.0253007,29.151219 2.8496253,28.248615 c 1.264802,-0.625774 1.2727585,-0.640601 0.551035,-1.026856 -1.0381024,-0.555575 -1.8006602,-1.99797 -1.8006602,-3.405987 0,-1.004455 0.231676,-1.427464 1.3892845,-2.536648 L 4.3785691,19.947955 3.1445367,18.911922 C 1.1753509,17.258691 0.55596091,15.718258 0.68835481,12.803356 0.8264711,9.7624642 1.7470375,8.224184 4.2410283,6.866784 6.3713167,5.7073361 9.8878985,5.4261745 12.556443,6.2019415 c 1.062345,0.308832 2.957612,0.5180582 4.692808,0.5180582 3.312041,0 3.309139,-0.00322 2.400669,2.6629954 C 19.243342,10.576234 18.992437,10.88 18.413416,10.88 c -0.624305,0 -0.755444,0.213678 -0.932854,1.519999 -0.744478,5.481778 -3.725818,8.389833 -8.608482,8.396874 -2.0473812,0.0029 -2.185778,0.05009 -2.4890948,0.847879 -0.2499386,0.657388 -0.2069546,0.970965 0.1937977,1.413792 0.4252269,0.46987 1.1657277,0.587658 4.2490951,0.675881 5.599065,0.160204 7.403524,1.351658 7.672182,5.065812 0.250622,3.464818 -1.823493,6.493013 -5.659656,8.263057 -1.455614,0.671636 -2.377851,0.848356 -4.8384037,0.927133 -1.9773137,0.06331 -3.4403067,-0.05204 -4.1851474,-0.329984 z M 11.211316,34.06876 c 1.30249,-0.664896 2.182647,-2.878932 1.586955,-3.991992 C 12.305124,29.155314 11.40499,28.878381 8.5104355,28.757581 6.1420869,28.658741 5.9994389,28.692313 5.5817519,29.44684 4.926204,30.631047 5.0162286,32.421765 5.7801323,33.392911 6.909942,34.82923 9.1705324,35.110536 11.211316,34.06876 Z M 10.46215,16.827711 c 0.832829,-0.716369 0.906031,-0.97177 1.010981,-3.527285 0.12516,-3.047619 -0.07633,-3.5360664 -1.5963777,-3.869925 -2.4312103,-0.5339833 -3.9713067,1.379759 -3.7353656,4.64161 0.1237626,1.711002 0.2817421,2.140823 1.020368,2.776163 1.1162407,0.960149 2.1678657,0.953597 3.3003943,-0.02056 z m 20.395175,10.570442 c -3.033793,-1.412676 -4.496385,-4.053617 -4.838177,-8.736095 -0.54946,-7.527471 3.129105,-12.9071383 8.821087,-12.9002736 3.138969,0.00379 5.235459,1.1752502 6.51152,3.6384683 0.534675,1.0321053 0.687747,1.9125773 0.70231,4.0397463 0.01024,1.496 -0.0772,2.956346 -0.194326,3.245213 -0.17857,0.440413 -1.017552,0.562921 -5.196346,0.758767 l -4.983392,0.233554 v 0.980201 c 0,1.566732 1.163427,3.614025 2.382506,4.192516 1.374387,0.652189 3.492608,0.649749 5.417833,-0.0062 0.83289,-0.283795 1.568807,-0.461531 1.635367,-0.39497 0.06656,0.06656 -0.03422,1.227322 -0.223959,2.57947 l -0.344976,2.458451 -1.569136,0.336519 c -2.823929,0.605625 -6.296953,0.423714 -8.120311,-0.425326 z m 4.262676,-13.525508 c 1.592999,-0.191342 1.68,-0.249731 1.68,-1.127497 0,-0.509137 -0.208653,-1.425079 -0.46367,-2.035427 -0.374147,-0.8954552 -0.638435,-1.1097214 -1.3688,-1.1097214 -1.289639,0 -2.250692,0.7917554 -2.633309,2.1694344 -0.681664,2.454442 -0.607092,2.510742 2.785779,2.103211 z m 57.360002,13.620464 c -1.856669,-0.841733 -2.768266,-1.709221 -3.68193,-3.503775 -1.067853,-2.097392 -1.562729,-5.042892 -1.337651,-7.961656 0.485066,-6.2901891 3.912406,-10.2719003 8.836586,-10.2658936 5.176772,0.00631 7.848752,3.4846821 7.215962,9.3936606 l -0.22005,2.054698 -5.124715,0.233122 -5.124724,0.233122 0.195757,1.428192 c 0.39152,2.856459 1.968835,4.25542 4.797943,4.25542 0.803251,0 2.127139,-0.226346 2.941979,-0.502991 0.81484,-0.276645 1.54145,-0.443072 1.61468,-0.369838 0.0732,0.07323 -0.0372,1.228964 -0.24543,2.568288 l -0.37858,2.435136 -1.56067,0.334702 c -2.628315,0.563674 -6.291618,0.410202 -7.929157,-0.332187 z m 4.08,-13.620464 c 1.592998,-0.191342 1.68,-0.249731 1.68,-1.127497 0,-0.509137 -0.208653,-1.425079 -0.46367,-2.035427 -0.380036,-0.9095464 -0.633392,-1.1097214 -1.404551,-1.1097214 -1.180185,0 -2.115545,0.8017254 -2.57575,2.2077514 -0.771091,2.35586 -0.616979,2.470993 2.763971,2.064894 z M 116.48,27.493109 c -1.86275,-0.844493 -2.76842,-1.709509 -3.69458,-3.528739 -1.6188,-3.179775 -1.80795,-8.59005 -0.43125,-12.334771 0.9084,-2.4708816 3.35556,-4.9307619 5.50359,-5.5321708 1.90316,-0.5328528 4.98786,-0.2839664 6.34652,0.5120634 2.55792,1.4986751 3.75805,4.5703904 3.33373,8.5326384 l -0.22135,2.066934 -5.09833,0.231921 c -4.92166,0.223885 -5.09827,0.255608 -5.09654,0.915468 0.004,1.384845 0.65955,2.984247 1.58911,3.874822 1.23734,1.185451 3.71245,1.456422 6.11758,0.669742 0.90316,-0.295407 1.6998,-0.479412 1.77031,-0.408899 0.0705,0.07051 -0.0422,1.224016 -0.25038,2.56334 l -0.37858,2.435136 -1.56066,0.334702 c -2.62832,0.563674 -6.29163,0.410202 -7.92917,-0.332187 z m 4.27534,-13.616605 c 1.45598,-0.199564 1.48457,-0.225842 1.47995,-1.36 -0.009,-2.247022 -0.97878,-3.2209342 -2.7613,-2.7735502 -0.85061,0.2134909 -2.014,2.2895172 -2.02696,3.6170452 -0.008,0.800917 0.5724,0.891503 3.30831,0.516505 z m 46.28765,13.689787 c -0.65288,-0.350144 -1.40568,-1.158455 -1.83501,-1.970331 -0.68833,-1.301651 -0.72797,-1.731144 -0.72797,-7.886292 V 11.2 h -1.6 c -1.80266,0 -1.78083,0.04712 -1.23583,-2.6666305 l 0.36418,-1.8133698 h 1.23582 1.23583 l 0.0128,-2.1599999 0.0128,-2.1599999 2.62718,-1.2067677 c 1.44495,-0.66372221 2.73519,-1.20372217 2.86719,-1.19999992 0.132,0.00372224 0.24,1.51876762 0.24,3.36676762 v 3.3599998 h 2.26542 2.26543 l -0.22591,1.0285334 c -0.12424,0.5656934 -0.40155,1.5376934 -0.61622,2.1599999 -0.37843,1.096997 -0.44544,1.13439 -2.19952,1.227436 l -1.8092,0.09597 0.005,5.184031 c 0.006,6.535053 0.10991,6.798781 2.65959,6.74638 1.54255,-0.0317 1.8098,0.04412 1.69176,0.48 -0.0771,0.284708 -0.3135,1.28358 -0.52534,2.219718 -0.29995,1.325551 -0.55849,1.767973 -1.16877,2 -1.34455,0.511196 -4.33171,0.351685 -5.53898,-0.295776 z m 19.67702,0.116826 c -2.01939,-0.708031 -4.11939,-3.204543 -4.79496,-5.700315 -0.8431,-3.114635 -0.59075,-8.407191 0.51411,-10.782802 1.64223,-3.5310234 3.72405,-5.0847875 7.18514,-5.3626105 4.9859,-0.4002201 7.81093,2.3504252 7.80821,7.6026095 -0.002,4.0534 0.41879,3.744671 -5.46881,4.011484 l -5.09722,0.230995 0.20732,1.158761 c 0.72591,4.057328 3.24766,5.385409 7.67535,4.042224 0.86397,-0.262095 1.62668,-0.478095 1.69491,-0.48 0.14481,-0.004 -0.22335,3.323244 -0.48153,4.351939 -0.12743,0.507719 -0.56246,0.799397 -1.57108,1.05337 -1.92469,0.484642 -6.12713,0.415808 -7.67144,-0.125655 z m 3.79533,-13.806613 1.48467,-0.203496 v -1.325302 c 0,-3.6720846 -3.44835,-3.6935662 -4.44755,-0.02771 -0.19188,0.704 -0.34969,1.388 -0.35067,1.52 -0.002,0.293577 1.33086,0.308263 3.31355,0.03651 z M 51.520002,17.513815 V 7.1876307 l 2.64,-0.7208591 c 1.452,-0.3964727 2.748,-0.7176896 2.88,-0.7138157 0.132,0.00388 0.24,0.6081449 0.24,1.3428243 v 1.3357804 l 0.72,-0.6759187 c 1.019341,-0.9569318 3.412512,-1.9803318 4.650278,-1.9886143 1.44416,-0.00966 3.293428,0.7991782 4.113741,1.7992879 l 0.68402,0.8339421 1.39598,-0.949375 c 2.638989,-1.7947171 4.620535,-2.1015228 6.897207,-1.0679056 0.959709,0.435711 1.551376,1.0026214 2.08,1.9929721 0.713434,1.3365746 0.742282,1.6941419 0.841043,10.4240499 l 0.102272,9.04 H 75.88727 73.009993 l -0.104996,-7.76 C 72.799807,12.305481 72.646105,11.215387 71.552098,10.4849 71.125551,10.200088 69.546623,10.177287 68.560002,10.44169 l -0.72,0.192953 v 8.602677 8.602678 h -2.72 -2.72 l -0.0076,-7.12 c -0.008,-7.458332 -0.230221,-9.394531 -1.155936,-10.071431 -0.673667,-0.492598 -2.483175,-0.534513 -3.337466,-0.07731 -0.588,0.314696 -0.61895,0.75471 -0.61895,8.8 v 8.468741 h -2.88 -2.88 z m 85.515568,0.01628 0.0844,-10.3099046 2.4,-0.7064156 c 3.26022,-0.9596108 3.2,-0.9705622 3.2,0.5820064 v 1.3357804 l 0.72,-0.6759187 c 1.04626,-0.9821964 3.42673,-1.9815865 4.72,-1.9815865 1.89085,0 3.70819,1.0412445 4.54123,2.6018937 0.71343,1.3365746 0.74228,1.6941419 0.84104,10.4240499 l 0.10228,9.04 H 150.74227 147.84 l -0.008,-7.12 c -0.008,-7.458332 -0.23022,-9.394531 -1.15594,-10.071431 -0.59297,-0.433593 -2.04427,-0.526362 -3.23643,-0.206877 l -0.72,0.192953 V 19.237322 27.84 h -2.88443 -2.88443 z m 322.32444,-0.534909 c -2.33216,-1.076362 -3.68,-3.25751 -3.68,-5.955185 0,-3.9531232 2.72071,-6.5600002 6.84644,-6.5600002 2.41888,0 3.52544,0.3555529 4.79392,1.5403577 2.70182,2.5236181 2.7807,7.4728265 0.1575,9.8843685 -1.87245,1.721354 -5.6511,2.228936 -8.11786,1.090459 z"
       id="path821"
       inkscape:connector-curvature="0" />
    <path
       style="fill:#0f2e99;fill-opacity:1;stroke-width:0.31999999"
       d="m 337.84043,91.370281 c -6.3104,-1.314224 -9.94692,-5.063338 -9.94247,-10.250285 0.003,-2.781222 0.93175,-4.791907 3.1921,-6.906194 1.54621,-1.446301 4.66448,-3.166071 5.77014,-3.182333 0.31888,-0.0047 -0.26301,-0.465709 -1.29309,-1.024483 -1.03011,-0.558778 -2.23497,-1.49065 -2.6775,-2.070823 -3.12355,-4.095203 -1.71837,-8.681929 3.61779,-11.809141 l 1.49283,-0.874858 -1.535,-0.780122 c -2.2682,-1.152729 -4.81172,-3.862182 -5.99914,-6.390578 -0.98262,-2.092205 -1.01533,-2.300394 -1.02061,-6.497047 l -0.005,-4.33558 1.20509,-2.439335 c 2.8319,-5.732397 8.86701,-8.585091 17.248,-8.152854 2.65264,0.136805 4.05143,0.395194 6.27799,1.159688 2.79584,0.959961 3.00793,0.983663 8.80326,0.983663 h 5.93843 l -1.28457,3.84 -1.28455,3.839999 h -1.53424 -1.53424 l -0.22102,2.48 c -0.70279,7.885181 -3.86282,13.408633 -9.13607,15.969004 -2.95225,1.433434 -5.10531,1.82392 -9.0816,1.647076 l -3.3904,-0.150788 -0.64304,1.328387 c -1.16921,2.415242 -0.65011,4.172826 1.47053,4.979098 0.44445,0.168973 3.35469,0.309721 6.46723,0.312777 5.87069,0.0058 8.95677,0.414509 10.99159,1.455805 2.10089,1.075123 3.444,2.412163 4.41654,4.396682 3.46666,7.073772 -0.65385,15.941932 -9.40051,20.23174 -1.59965,0.784547 -3.77245,1.656828 -4.82845,1.938403 -2.6568,0.708412 -9.32755,0.875241 -12.07958,0.302099 z m 11.2511,-6.431475 c 5.10736,-1.516723 7.45367,-9.127971 3.46307,-11.233968 -1.27504,-0.672886 -11.98723,-1.520032 -12.62723,-0.998592 -0.21597,0.175956 -0.77488,1.101127 -1.24202,2.055943 -2.00252,4.092982 -0.20969,8.961875 3.75527,10.19853 1.89872,0.592202 4.61309,0.583261 6.65091,-0.02192 z m -0.86806,-34.897013 c 1.23497,-0.630925 2.35539,-2.251171 2.94573,-4.259875 0.59088,-2.010461 0.68569,-7.174985 0.17542,-9.554233 -0.28855,-1.345443 -0.49751,-1.641139 -1.49648,-2.11752 -3.83312,-1.827888 -7.70634,-0.421571 -9.38474,3.407504 -0.93958,2.143542 -1.02918,6.280211 -0.18995,8.767971 1.27066,3.766556 4.73021,5.401091 7.95002,3.756153 z m 183.77655,41.594824 c -6.38823,-0.979303 -10.57533,-4.45992 -11.22106,-9.32776 -0.59696,-4.500086 2.31082,-8.714918 7.45462,-10.805519 l 1.78186,-0.724205 -1.56771,-0.797891 c -1.91034,-0.972282 -2.76659,-1.856989 -3.62083,-3.741245 -0.76439,-1.686054 -0.8497,-3.743005 -0.21799,-5.254937 0.66432,-1.589895 2.66368,-3.650259 4.60592,-4.746378 l 1.71293,-0.966726 -1.70387,-0.930214 c -3.77997,-2.063648 -6.34349,-5.913722 -7.01443,-10.534838 -1.1409,-7.857571 2.93654,-14.113838 10.75056,-16.495285 1.49126,-0.454491 2.95606,-0.582885 6.56,-0.575006 4.3895,0.0096 4.79753,0.06557 7.55798,1.036765 2.87203,1.010456 3.00935,1.026621 8.72,1.026621 3.7249,0 5.80202,0.116678 5.80202,0.325916 0,0.179253 -0.5112,1.907253 -1.13603,3.84 l -1.13604,3.514083 h -1.56092 -1.56096 l -0.17895,1.84 c -0.82393,8.472528 -3.68688,13.674589 -9.0799,16.498502 -2.75776,1.444022 -5.31229,1.929469 -9.30871,1.768954 l -3.19875,-0.12848 -0.65987,1.174079 c -0.72394,1.288084 -0.85133,2.851303 -0.31411,3.855072 0.68115,1.272723 2.14972,1.551517 8.20396,1.557427 6.6554,0.0065 9.30954,0.452154 11.84884,1.989514 8.25481,4.997654 5.35027,18.285535 -5.20736,23.823033 -3.83066,2.009174 -6.61597,2.701932 -11.3512,2.823225 -2.2,0.05635 -4.432,0.03623 -4.96,-0.04471 z m 9.83657,-6.635507 c 2.00893,-0.604592 3.50234,-1.828317 4.52554,-3.708234 1.71466,-3.15039 1.35974,-6.4355 -0.8169,-7.561334 -0.76467,-0.395504 -2.64531,-0.667721 -6.66521,-0.964771 l -5.6,-0.413808 -0.89268,1.023517 c -2.42224,2.777299 -2.21747,7.489238 0.43783,10.07496 1.86953,1.820515 5.84176,2.503606 9.01142,1.54967 z m -0.71581,-34.926891 c 1.12756,-0.575495 1.7833,-1.375732 2.62701,-3.205914 0.65616,-1.423337 0.73034,-2.053619 0.71392,-6.068307 -0.0205,-4.99326 -0.27129,-5.959625 -1.74515,-6.721788 -2.58499,-1.336755 -5.95626,-0.823264 -7.924,1.20694 -2.57418,2.655892 -2.99718,8.874442 -0.85635,12.589453 1.53888,2.670377 4.49123,3.574272 7.18457,2.199616 z M 228.62744,87.599996 c -0.27108,-0.711113 -16.46743,-60.794217 -16.46743,-61.088717 0,-0.15972 2.77266,-0.246703 6.31294,-0.198045 l 6.31295,0.08676 5.43453,20.559999 c 2.98899,11.307999 5.51217,20.557788 5.60706,20.555081 0.0949,-0.0026 2.09481,-5.319271 4.44427,-11.814589 l 4.27175,-11.809673 -2.28483,-8.265411 c -1.25665,-4.545973 -2.36064,-8.517407 -2.45331,-8.825407 -0.15635,-0.519663 0.27158,-0.56 5.94099,-0.56 6.04365,0 6.11236,0.0078 6.37537,0.72 0.14623,0.396 2.55467,9.394854 5.35208,19.997458 2.79741,10.602601 5.16682,19.278601 5.26534,19.279999 0.0985,0.0013 2.619,-8.961458 5.60103,-19.917458 l 5.42189,-19.919999 5.55617,-0.08772 c 4.3925,-0.06935 5.5258,-0.0023 5.41119,0.32 -0.0797,0.224244 -4.28984,13.66983 -9.35579,29.879084 l -9.21082,29.471365 -4.66553,1.003754 c -2.84042,0.611094 -4.7403,0.88279 -4.85665,0.694531 -0.10511,-0.170074 -1.96312,-6.755878 -4.12891,-14.635123 -2.1658,-7.879241 -4.03094,-14.425365 -4.14477,-14.54694 -0.11382,-0.121574 -2.60454,5.994813 -5.53491,13.591971 l -5.32797,13.813014 -4.11203,1.039542 c -4.75882,1.20305 -4.56638,1.176531 -4.76461,0.656515 z m 66.6696,-16.367804 c -2.9209,-0.786326 -4.98104,-2.66175 -6.38205,-5.809811 -1.07304,-2.411129 -1.01151,-6.695046 0.13205,-9.192911 1.82146,-3.978583 5.60955,-6.413501 13.83297,-8.891574 2.464,-0.742512 4.732,-1.478359 5.04,-1.635216 0.48326,-0.246119 0.55976,-0.776964 0.55821,-3.873939 -0.003,-5.794538 -0.87283,-7.588742 -3.67956,-7.588742 -1.96415,0 -2.72838,0.443497 -6.90031,4.004364 -1.95611,1.6696 -3.68039,3.035635 -3.83173,3.035635 -0.15133,0 -1.43158,-1.427981 -2.84498,-3.173289 l -2.56982,-3.173287 1.72393,-1.575571 c 5.27642,-4.822353 11.62805,-7.106443 18.63637,-6.701776 5.64763,0.326099 8.80855,2.631792 10.20814,7.446208 0.4858,1.671117 0.51417,3.037162 0.28149,13.558035 -0.29585,13.3779 -0.28138,13.998895 0.3486,14.960367 0.48102,0.734112 2.22396,1.374432 3.74966,1.377527 0.70198,0.0013 0.87779,0.147436 0.86906,0.721785 -0.0202,1.326048 -1.2017,5.760592 -1.60058,6.00711 -0.91635,0.566343 -4.30302,1.027136 -6.50871,0.885584 -2.89397,-0.185725 -4.89115,-1.225888 -6.36293,-3.313926 l -0.98829,-1.402099 -1.49883,1.401974 c -0.82435,0.771085 -2.05927,1.685594 -2.74427,2.03224 -2.58094,1.306093 -6.55839,1.68471 -9.46842,0.901312 z m 11.90297,-7.500265 1.12,-0.53193 0.0874,-5.68 c 0.0707,-4.593955 0.005,-5.679999 -0.34395,-5.679999 -1.28696,0 -6.56798,2.166864 -7.69619,3.157833 -2.2067,1.938269 -2.05533,7.026166 0.25405,8.539331 1.78547,1.169888 4.36476,1.246246 6.57871,0.194765 z m 76.41011,7.472323 c -7.69433,-1.95449 -11.90931,-7.933578 -12.72979,-18.057705 -1.28448,-15.849388 5.96679,-26.61821 17.89847,-26.58099 2.33756,0.0073 5.69411,0.733746 7.39168,1.59978 3.02979,1.545682 5.54979,5.07227 6.35286,8.890414 0.60611,2.881667 0.3327,11.394886 -0.38912,12.116713 -0.11347,0.113481 -4.7081,0.381693 -10.21027,0.596025 -5.50218,0.21433 -10.03994,0.408103 -10.08394,0.430602 -0.32953,0.168512 0.0385,3.877001 0.54861,5.528656 0.82794,2.680569 2.15741,4.424995 4.2352,5.557081 2.99552,1.632128 8.67456,1.415571 12.99491,-0.495533 0.7921,-0.35038 1.48275,-0.594492 1.53479,-0.54247 0.17452,0.17455 -1.46845,9.636342 -1.71248,9.861891 -0.13255,0.122534 -1.32103,0.4704 -2.64103,0.77304 -3.30477,0.757689 -10.7591,0.939952 -13.18989,0.322496 z m 8.30989,-28.36254 c 0.64304,-0.237456 0.72,-0.482803 0.72,-2.295712 0,-4.949971 -1.95715,-7.430479 -5.3592,-6.792252 -2.46089,0.461667 -4.36131,3.645158 -5.02099,8.411049 l -0.1889,1.364794 4.56455,-0.211002 c 2.51049,-0.116051 4.88854,-0.330646 5.28454,-0.476877 z m 184.6307,28.33693 c -7.52829,-1.823894 -11.74304,-7.632899 -12.75088,-17.574022 -0.93101,-9.183273 1.35376,-17.542463 6.08966,-22.279683 2.41834,-2.419036 4.62899,-3.659782 7.66858,-4.304056 5.5695,-1.180511 11.16636,0.08669 14.32246,3.242782 2.67949,2.679496 3.9481,6.471723 3.9529,11.816337 0.003,2.995811 -0.408,6.761251 -0.77776,7.131024 -0.0901,0.09004 -4.6664,0.339289 -10.16967,0.553901 -5.50329,0.214611 -10.06048,0.409299 -10.1271,0.432636 -0.0666,0.02333 -0.055,1.185127 0.0259,2.581744 0.26544,4.585431 2.62768,8.098042 6.15331,9.149885 2.98688,0.89111 7.99731,0.408355 11.5072,-1.108717 0.86093,-0.372106 1.6007,-0.636938 1.64394,-0.588515 0.0433,0.04842 -0.28628,2.277328 -0.73229,4.953123 l -0.81091,4.865078 -0.99303,0.346342 c -3.44381,1.201149 -11.53225,1.622839 -15.0023,0.782141 z m 7.68672,-28.168523 c 1.27555,-0.194452 1.52726,-0.957607 1.26,-3.819882 -0.36346,-3.892099 -1.6154,-5.430236 -4.41988,-5.430236 -3.11379,0 -5.14009,2.836028 -5.89996,8.257647 l -0.21552,1.537651 4.11897,-0.193513 c 2.26544,-0.106435 4.58583,-0.264685 5.15639,-0.351667 z M 412.48001,50.300375 V 29.560752 l 5.36,-1.509524 c 2.948,-0.830238 5.468,-1.505408 5.6,-1.500377 0.132,0.005 0.24,1.234805 0.24,2.73283 v 2.723681 l 1.8378,-1.496891 c 3.58307,-2.918458 7.65382,-4.239574 11.26931,-3.657317 3.55369,0.572308 5.59817,1.992995 7.12275,4.949574 1.55677,3.019027 1.6169,3.769843 1.76419,22.03727 l 0.13869,17.199999 h -5.62637 -5.62637 l -0.01,-13.839999 c -0.005,-7.612 -0.14515,-14.881344 -0.31046,-16.154096 -0.38464,-2.961027 -1.23325,-4.63912 -2.69734,-5.333865 -1.47181,-0.698429 -4.20436,-0.715575 -6.24087,-0.03916 l -1.62144,0.538557 v 17.414284 17.414281 h -5.6 -5.6 V 50.300375 Z m 44.55767,0.03347 0.0823,-20.706154 5.28,-1.525088 c 2.904,-0.838799 5.388,-1.529029 5.52,-1.533846 0.132,-0.0048 0.24,9.999242 0.24,22.231242 v 22.239999 h -5.60233 -5.60234 z m 23.28234,-0.04921 V 29.529263 l 5.20732,-1.484632 c 2.864,-0.816548 5.312,-1.484632 5.44,-1.484632 0.12797,0 0.23268,1.152 0.23268,2.56 0,1.408 0.0633,2.56 0.14054,2.56 0.0773,0 1.23082,-0.782212 2.56333,-1.738247 3.23936,-2.324144 5.44563,-3.144944 8.49613,-3.160835 6.14073,-0.03199 9.5824,3.21591 10.55849,9.963993 0.16986,1.174298 0.31168,9.371088 0.31517,18.215088 l 0.006,16.079999 h -5.6 -5.6 l -0.007,-14.639999 c -0.007,-15.240083 -0.17386,-17.562672 -1.396,-19.427932 -1.16397,-1.776413 -4.66045,-2.360551 -7.82934,-1.30801 l -1.648,0.547376 v 17.414284 17.414281 h -5.44 -5.44 z m 125.12,0.01574 V 29.560752 l 5.36,-1.509524 c 2.948,-0.830238 5.468,-1.505408 5.6,-1.500377 0.132,0.005 0.24,1.245386 0.24,2.756344 v 2.747194 l 1.42582,-1.255048 c 1.86452,-1.641219 4.72416,-3.14655 7.1656,-3.772018 4.0833,-1.046098 8.7321,0.462198 10.83652,3.515903 2.17318,3.153489 2.14697,2.890545 2.25756,22.656772 l 0.0998,17.839999 h -5.41971 -5.41971 l -0.14503,-15.279999 c -0.12297,-12.957376 -0.22412,-15.525171 -0.6654,-16.892924 -0.54116,-1.677175 -1.78448,-3.120919 -3.005,-3.489367 -1.28432,-0.387709 -3.87337,-0.248109 -5.51574,0.297405 l -1.61472,0.53632 v 17.414284 17.414281 h -5.6 -5.6 z M 4.4315595,37.656533 C 3.6129169,37.424667 2.5620422,36.985272 2.0962822,36.680094 0.18174463,35.42564 -0.54754181,32.707045 0.49148018,30.697798 1.0265546,29.663079 3.3255665,27.839999 4.0953352,27.839999 c 0.2636205,0 -0.00999,-0.328695 -0.6080125,-0.730432 C 2.808097,26.653283 2.2322504,25.89787 1.9530524,25.096864 1.5541648,23.952474 1.5664304,23.687464 2.0671201,22.632339 2.3756786,21.9821 3.1144829,21.149508 3.7089076,20.782133 L 4.7896798,20.11418 3.4630209,19.097089 C 1.4871028,17.582241 0.80000003,16.026467 0.80000003,13.067338 c 0,-2.203548 0.0975057,-2.59357 0.96000007,-3.8399995 C 2.4176268,8.2769728 3.3075863,7.5463469 4.5855179,6.9076864 6.2260469,6.0878141 6.7856501,5.9770305 9.225518,5.9891133 c 1.806811,0.00895 3.206643,0.1946052 4.013562,0.532313 0.829372,0.3471046 2.185574,0.5185734 4.101564,0.5185734 2.822511,0 2.859311,0.010054 2.635208,0.72 -0.85906,2.7214603 -1.003428,2.9608693 -1.845993,3.0612553 -0.751829,0.08957 -0.849858,0.240583 -0.849858,1.309142 0,3.147049 -1.698761,6.174089 -4.253289,7.578978 -1.369512,0.753177 -2.087039,0.925244 -4.023928,0.964957 -2.4701102,0.05064 -2.9084225,0.291965 -2.9178836,1.606485 -0.00899,1.248922 0.7948125,1.516666 5.1283766,1.708247 4.443042,0.19642 5.071773,0.42512 6.526951,2.374173 0.918333,1.230007 0.894145,4.340001 -0.04757,6.116762 -1.687079,3.183049 -5.219314,5.258543 -9.3101271,5.470508 C 6.915077,38.026542 5.31854,37.907752 4.4315595,37.656533 Z m 6.7964565,-3.506141 c 1.281539,-0.863629 1.88079,-1.925113 1.887267,-3.343016 0.007,-1.526218 -0.885827,-1.954531 -4.3152827,-2.070222 l -2.8800001,-0.09716 -0.6117904,1.25324 c -0.5557725,1.13849 -0.5704228,1.372892 -0.16,2.560001 0.7962781,2.303155 3.8964081,3.168544 6.0798062,1.697152 z m 0.04901,-18.409998 c 0.505656,-1.143119 0.606768,-1.886375 0.476833,-3.505093 -0.0907,-1.129889 -0.311896,-2.201336 -0.491553,-2.3809933 C 11.082651,9.6746498 10.282011,9.4539817 9.4831085,9.3639337 8.1905097,9.2182393 7.9261817,9.3045874 7.0826882,10.148081 c -1.9109879,1.910988 -1.5822506,6.093844 0.5647114,7.185392 1.5780669,0.802312 2.8090244,0.262033 3.6296294,-1.593079 z M 32.317931,27.86101 C 29.659116,27.052236 27.591173,24.965103 26.727243,22.218446 25.861104,19.464764 26.133833,13.562701 27.236395,11.2 29.00287,7.4145875 31.183004,5.9663706 35.077281,5.9914657 c 4.61632,0.029747 6.833255,2.4768069 6.839594,7.5495713 0.0047,3.795675 0.07464,3.738962 -4.608131,3.738962 -2.171808,0 -4.401777,0.09061 -4.955485,0.201349 -0.956606,0.191321 -0.996802,0.259053 -0.807105,1.36 0.291583,1.692266 1.130957,3.267547 2.130157,3.997725 1.100397,0.804131 4.298871,0.844928 6.128004,0.07816 l 1.244317,-0.521611 -0.214941,1.828818 c -0.382627,3.255562 -0.342954,3.200125 -2.567555,3.587523 -2.252237,0.39221 -4.752298,0.412824 -5.948205,0.04904 z m 4.419485,-15.45814 c 0.08138,-1.267441 -0.03472,-1.649266 -0.705453,-2.32 -0.441578,-0.4415786 -1.014368,-0.8028704 -1.272864,-0.8028704 -0.83114,0 -2.385252,1.5835214 -2.599463,2.6486504 -0.11408,0.567242 -0.280358,1.289617 -0.36951,1.605278 -0.147505,0.522269 0.06347,0.565474 2.343891,0.48 l 2.505984,-0.09393 z m 57.020517,15.45814 c -1.514938,-0.460822 -2.784445,-1.27005 -3.791111,-2.416577 -1.84055,-2.09627 -2.094662,-3.059562 -2.111533,-8.004434 -0.01423,-4.170916 0.0419,-4.601425 0.813565,-6.239999 1.786387,-3.7932442 3.956791,-5.2336124 7.848429,-5.2085343 4.644707,0.02993 6.833347,2.4706514 6.839597,7.6273723 0.002,1.577444 -0.1522,2.780437 -0.39688,3.098005 -0.3298,0.428055 -1.22375,0.537066 -5.093831,0.621161 -2.581609,0.0561 -4.780598,0.188982 -4.886636,0.295299 -0.380682,0.381669 0.533164,3.523984 1.284524,4.416925 1.021949,1.214518 3.060704,1.72609 5.235357,1.313676 0.900796,-0.170833 1.912466,-0.457597 2.248166,-0.637255 0.90066,-0.48202 0.91319,-0.457856 0.61877,1.19335 -0.14906,0.836 -0.35035,1.973893 -0.44731,2.528651 -0.1673,0.957299 -0.279,1.02654 -2.193869,1.36 -2.269382,0.395196 -4.768102,0.417121 -5.967238,0.05236 z m 4.48207,-15.395556 c 0,-1.287542 -0.159082,-1.773628 -0.785456,-2.4 -0.432,-0.432 -0.99695,-0.7854544 -1.255446,-0.7854544 -0.83114,0 -2.385252,1.5835214 -2.599463,2.6486504 -0.11408,0.567242 -0.278368,1.283349 -0.365088,1.591349 -0.140806,0.500086 0.118525,0.56 2.423888,0.56 h 2.581565 z M 117.75793,27.86101 c -2.41599,-0.734913 -4.04867,-2.203793 -5.18077,-4.661011 -0.65413,-1.419784 -0.73716,-2.086583 -0.73716,-5.92 0,-3.981771 0.0649,-4.457796 0.82885,-6.079999 1.76999,-3.7584134 3.96,-5.2284899 7.78236,-5.2240051 3.53258,0.00414 5.54833,1.3084816 6.53985,4.2317561 0.49348,1.454907 0.48282,6.190375 -0.0151,6.688248 -0.25662,0.256613 -1.67645,0.384 -4.28,0.384 -2.1428,0 -4.3224,0.08528 -4.84355,0.189509 -0.94625,0.18925 -0.94719,0.191755 -0.68768,1.833398 0.46314,2.929776 2.03297,4.211619 5.08816,4.154734 0.97512,-0.01816 2.3247,-0.263552 2.99908,-0.545325 0.6744,-0.281774 1.2551,-0.512316 1.29046,-0.512316 0.0487,0 -0.68078,4.771573 -0.7655,5.00715 -0.009,0.02593 -0.92875,0.205933 -2.04317,0.4 -2.27715,0.396549 -4.77526,0.419064 -5.97586,0.05386 z M 122.24,12.465454 c 0,-1.287542 -0.15908,-1.773628 -0.78545,-2.4 -0.91566,-0.915655 -1.36756,-0.9707722 -2.34517,-0.2860291 -0.83567,0.5853231 -1.49848,1.8024111 -1.77567,3.2605741 l -0.19771,1.04 h 2.552 2.552 z m 45.54654,15.34341 c -1.24983,-0.361845 -2.53349,-1.838261 -2.97245,-3.418803 -0.18178,-0.654534 -0.33132,-3.890062 -0.3323,-7.190062 L 164.48001,11.2 h -1.62157 c -1.39323,0 -1.59856,-0.07885 -1.45823,-0.56 0.0898,-0.308 0.25876,-1.2364644 0.37539,-2.0632538 0.21078,-1.494263 0.21998,-1.5038319 1.53823,-1.5999999 l 1.32618,-0.096747 0.0947,-2.1628063 0.0947,-2.1628063 1.93192,-0.9752255 c 1.06255,-0.5363741 2.28762,-1.1104669 2.72238,-1.27576184 l 0.79047,-0.30053626 -0.0971,3.438568 -0.0971,3.4385682 2.25917,0.16 2.25918,0.16 -0.59062,1.9999999 L 173.41711,11.2 h -1.74855 -1.74855 v 5.599999 c 0,5.173333 0.0488,5.648762 0.64,6.24 0.71397,0.71397 1.46024,0.798956 2.74074,0.312113 0.84744,-0.322198 0.85877,-0.309702 0.65232,0.72 -0.11554,0.576337 -0.29638,1.586122 -0.40185,2.243965 -0.1671,1.042281 -0.34088,1.2375 -1.35149,1.518216 -1.38636,0.38509 -3.02791,0.375632 -4.41319,-0.02543 z m 19.30791,-0.146429 c -2.02172,-0.649733 -4.10066,-2.722066 -4.81934,-4.804035 -0.29968,-0.868121 -0.63085,-2.756474 -0.73596,-4.196342 -0.61358,-8.405913 3.9014,-13.8260339 10.47816,-12.5787763 2.05397,0.389526 3.5955,1.5100639 4.53331,3.2952561 0.56329,1.0722442 0.70619,1.8873382 0.71207,4.0614612 0.011,4.06445 0.28588,3.839251 -4.69264,3.84437 -2.33753,0.0024 -4.59072,0.09556 -5.0071,0.207011 -0.69268,0.185413 -0.74051,0.323318 -0.5625,1.622016 0.40677,2.967733 2.07566,4.416537 4.99956,4.34025 0.968,-0.02525 2.38787,-0.271873 3.15528,-0.548038 l 1.39529,-0.502118 -0.18671,1.038254 c -0.10269,0.57104 -0.28277,1.6615 -0.40018,2.423244 -0.26389,1.712105 -0.81503,1.970566 -4.60368,2.158924 -1.90562,0.09474 -3.18275,-0.01349 -4.26556,-0.361477 z m 5.17645,-14.528372 c 0.18258,-1.29394 -0.55073,-3.2094852 -1.37189,-3.5836282 -1.56825,-0.7145449 -3.18092,0.8209652 -3.60466,3.4322032 l -0.18271,1.125873 2.52418,-0.09426 c 2.40635,-0.08986 2.52936,-0.130946 2.63508,-0.880192 z M 51.520002,17.61355 V 7.3871005 l 2.32,-0.6742438 c 1.276,-0.3708343 2.572,-0.7466358 2.88,-0.8351146 0.469817,-0.1349641 0.56,0.055017 0.56,1.1797245 0,1.3304594 0.0054,1.336677 0.72,0.8223772 1.765696,-1.270855 3.153869,-1.7998441 4.723142,-1.7998441 1.852336,0 3.162228,0.5682119 4.121642,1.7879107 l 0.661293,0.8406972 1.04696,-0.8827961 c 1.48137,-1.2490879 2.847578,-1.7459948 4.796685,-1.7446156 2.185763,0.00154 3.607901,0.8523542 4.421856,2.6454149 0.557923,1.2290524 0.615011,2.1691972 0.621395,10.2333882 l 0.007,8.88 h -2.72 -2.72 l -6.4e-4,-7.6 c -3.2e-4,-6.600699 -0.07407,-7.745126 -0.56,-8.703733 -0.654419,-1.290973 -1.7996,-1.7082303 -3.442963,-1.254476 l -1.116397,0.308292 v 8.624958 8.624959 h -2.704608 -2.704605 l -0.09539,-8.127025 C 62.24956,12.400213 62.181976,11.521892 61.660853,10.946618 60.932101,10.142137 59.750971,9.9078146 58.360239,10.291815 l -1.080237,0.298267 v 8.624958 8.624959 h -2.88 -2.88 z M 137.35557,17.554585 137.44,7.2691709 140,6.5221981 c 1.408,-0.4108352 2.596,-0.750399 2.64,-0.7545859 0.044,-0.00419 0.08,0.5578819 0.08,1.2490419 v 1.2566543 l 1.82118,-1.0966543 c 3.32063,-1.9995801 6.80104,-1.3344496 8.1104,1.5499567 0.55793,1.2290524 0.61501,2.1691972 0.6214,10.2333882 l 0.007,8.88 h -2.7046 -2.70461 l -0.0954,-8.127025 c -0.0858,-7.312761 -0.15342,-8.191082 -0.67454,-8.766356 -0.72876,-0.804481 -1.90989,-1.0388034 -3.30062,-0.654803 L 142.72,10.590082 v 8.624958 8.624959 h -2.72443 -2.72443 z m 323.23907,-0.241488 c -2.97392,-0.763471 -4.67463,-3.034493 -4.67463,-6.242179 0,-4.034118 2.54893,-6.5909182 6.57063,-6.5909182 5.49197,0 8.54806,5.2148964 5.87869,10.0313782 -1.25255,2.260069 -4.84368,3.554179 -7.77469,2.801719 z"
       id="path819"
       inkscape:connector-curvature="0" />
  </g>
</svg>
