<?xml version="1.0" encoding="UTF-8" standalone="no"?>
<!-- Created with Inkscape (http://www.inkscape.org/) -->

<svg
   xmlns:dc="http://purl.org/dc/elements/1.1/"
   xmlns:cc="http://creativecommons.org/ns#"
   xmlns:rdf="http://www.w3.org/1999/02/22-rdf-syntax-ns#"
   xmlns:svg="http://www.w3.org/2000/svg"
   xmlns="http://www.w3.org/2000/svg"
   xmlns:sodipodi="http://sodipodi.sourceforge.net/DTD/sodipodi-0.dtd"
   xmlns:inkscape="http://www.inkscape.org/namespaces/inkscape"
   version="1.1"
   id="svg2"
   width="318.98438"
   height="133.59547"
   viewBox="0 0 318.98438 133.59547"
   sodipodi:docname="ggd.png"
   inkscape:version="0.92.3 (2405546, 2018-03-11)">
  <metadata
     id="metadata8">
    <rdf:RDF>
      <cc:Work
         rdf:about="">
        <dc:format>image/svg+xml</dc:format>
        <dc:type
           rdf:resource="http://purl.org/dc/dcmitype/StillImage" />
        <dc:title></dc:title>
      </cc:Work>
    </rdf:RDF>
  </metadata>
  <defs
     id="defs6" />
  <sodipodi:namedview
     pagecolor="#ffffff"
     bordercolor="#666666"
     borderopacity="1"
     objecttolerance="10"
     gridtolerance="10"
     guidetolerance="10"
     inkscape:pageopacity="0"
     inkscape:pageshadow="2"
     inkscape:window-width="1920"
     inkscape:window-height="988"
     id="namedview4"
     showgrid="false"
     fit-margin-top="0"
     fit-margin-left="0"
     fit-margin-right="0"
     fit-margin-bottom="0"
     inkscape:zoom="0.70710678"
     inkscape:cx="38.151896"
     inkscape:cy="150.76978"
     inkscape:window-x="0"
     inkscape:window-y="27"
     inkscape:window-maximized="1"
     inkscape:current-layer="svg2" />
  <g
     id="g849"
     transform="translate(439.87694,-174.67741)">
    <g
       transform="translate(-444.06305,58.689862)"
       id="g838">
      <path
         inkscape:connector-curvature="0"
         id="path829"
         d="m 91.397599,204.689 c 0.265853,-0.6875 8.055239,-18.01181 18.842211,-42.54841 l 18.7355,-42.61671 35.65747,-0.6382 36.78743,-0.63819 -11.08874,19.50159 c -6.485,11.40506 -14.13116,32.47145 -18.47563,45.82321 l -9.83518,22.55504 -34.5174,-2.07162 c -30.615226,-1.83742 -36.487269,1.62013 -36.105661,0.63329 z"
         style="fill:#f9cb04"
         sodipodi:nodetypes="cscccsscsc" />
      <path
         inkscape:connector-curvature="0"
         id="path827"
         d="m 5.1818355,205.76062 c 0.5476467,-1.2375 9.7218345,-21.825 20.3870835,-45.75 l 19.391361,-43.5 39.013093,-0.26154 39.013097,-0.26153 -20.01673,44.76153 c -11.009206,24.61885 -20.813044,46.42268 -21.094575,47.11018 0,0 -8.659886,0.15136 -38.817478,0.15136 H 4.1861142 Z M 80.990523,180.87518 c 4.483993,-10.2495 8.152714,-18.9302 8.152714,-19.29045 0,-0.36025 -3.656685,-0.5243 -8.125967,-0.36455 l -8.125967,0.29044 -5.30815,12 c -2.919482,6.6 -5.930058,12.12956 -6.690169,12.28792 -1.808102,0.37668 -10.403521,-7.21771 -12.283278,-10.85276 -3.716202,-7.18634 -0.234024,-17.34059 8.728216,-25.45202 6.351219,-5.74829 21.59814,-13.30194 34.167182,-16.92716 4.874026,-1.40579 10.229676,-2.55598 10.229676,-2.55598 l 5.28574,-8.94219 c 0,0 -26.268299,6.03623 -36.20057,9.92336 -13.911241,5.44435 -21.990184,10.34138 -29.726817,18.01883 -7.302481,7.24662 -10.064465,12.19838 -10.747296,19.26805 -0.983329,10.18085 5.638955,18.93666 19.111614,25.26887 7.647006,3.59413 21.787228,7.69902 22.783072,6.61391 0.328507,-0.35796 4.266007,-9.03678 8.75,-19.28627 z m 5.132886,27.05067 c 0,0 9.988799,-22.44023 20.914811,-46.91523 l 19.86547,-44.5 39.04739,-0.26154 38.9808,-0.12837 -9.70386,21.62837 c -5.37061,11.97025 -14.62,32.67404 -20.54725,46.01154 l -10.77682,24.25 h -38.84897 c -30.67031,0 -38.931571,-0.0848 -38.931571,-0.0848 z m 76.398441,-26.28489 c 4.74176,-10.65332 8.62139,-19.67151 8.62139,-20.04044 0,-0.36893 -3.68158,-0.54009 -8.18129,-0.38034 l -8.1813,0.29044 -5.23889,12 c -2.88139,6.6 -5.90305,12.13649 -6.7148,12.30331 -0.81175,0.16683 -4.06582,-2.10736 -7.23127,-5.05375 -5.43576,-5.05959 -5.78075,-5.66331 -6.21269,-10.87188 -0.6025,-7.2654 2.66328,-13.84872 10.20397,-20.56963 8.41113,-7.49671 27.71998,-16.18452 41.8705,-18.83918 3.07958,-0.57773 4.13647,-1.43198 5.79584,-4.68463 1.1162,-2.18793 1.81549,-4.19201 1.55398,-4.45352 -0.26151,-0.26151 -5.3554,0.6919 -11.31976,2.11869 -41.33874,9.88902 -65.34429,27.25409 -65.34429,47.26857 0,11.88444 12.94643,22.61417 34,28.17849 4.125,1.09022 7.55787,2.0095 7.62861,2.04287 0.0707,0.0334 4.00823,-8.65569 8.75,-19.309 z m 10.51638,15.63123 c 2.64362,-5.91887 11.63546,-26.06157 19.98186,-44.76157 8.3464,-18.7 16.56485,-36.39384 16.56485,-36.39384 0,0 8.56266,-0.0731 38.74196,0.13193 l 38.55091,0.26191 -20.29981,45.5 -20.2998,45.5 -39.02327,0.26157 -39.02328,0.26156 z m 25.26381,2.36228 c 38.27717,-9.68648 61.2622,-26.79952 61.29753,-45.63784 0.0239,-12.7662 -11.55167,-22.73871 -32.75698,-28.2205 -4.71908,-1.21993 -8.8337,-1.96449 -9.1436,-1.65459 -0.30991,0.30991 -5.697,12.12867 -11.97132,26.26392 l -11.40784,25.70045 8.48227,-0.28764 8.48228,-0.28765 8.17943,-18.73345 c 4.49869,-10.3034 8.67722,-18.7409 9.28563,-18.75 2.28525,-0.0342 10.47952,7.23116 12.39879,10.99323 2.62814,5.15158 2.50458,8.35099 -0.57894,14.99022 -3.66698,7.89549 -10.88292,14.21662 -22.87356,20.03713 -8.95102,4.34502 -29.17906,9.96287 -29.17906,9.96287 l -5.19291,8.36872 c -0.89849,1.44797 14.97828,-2.74487 14.97828,-2.74487 z"
         style="fill:#012859"
         sodipodi:nodetypes="sscccssscsssccscsssccsssscscscccsscsccsccscscsccssscccsscscccccsssssscccsccssscss" />
    </g>
    <text
       id="text842"
       y="307.98041"
       x="-361.50443"
       style="font-style:normal;font-weight:normal;font-size:29.95034981px;line-height:1.25;font-family:sans-serif;letter-spacing:0px;word-spacing:0px;fill:#012859;fill-opacity:1;stroke:none;stroke-width:0.74875873"
       xml:space="preserve"><tspan
         style="font-style:normal;font-variant:normal;font-weight:bold;font-stretch:normal;font-family:'Liberation Serif';-inkscape-font-specification:'Liberation Serif Bold';stroke-width:0.74875873"
         y="307.98041"
         x="-361.50443"
         id="tspan840"
         sodipodi:role="line">Hart voor Brabant</tspan></text>
  </g>
</svg>
