<?xml version="1.0" encoding="UTF-8" standalone="no"?>
<!-- Created with Inkscape (http://www.inkscape.org/) -->

<svg
   xmlns:dc="http://purl.org/dc/elements/1.1/"
   xmlns:cc="http://creativecommons.org/ns#"
   xmlns:rdf="http://www.w3.org/1999/02/22-rdf-syntax-ns#"
   xmlns:svg="http://www.w3.org/2000/svg"
   xmlns="http://www.w3.org/2000/svg"
   xmlns:sodipodi="http://sodipodi.sourceforge.net/DTD/sodipodi-0.dtd"
   xmlns:inkscape="http://www.inkscape.org/namespaces/inkscape"
   version="1.1"
   id="svg2"
   width="1727"
   height="381"
   viewBox="0 0 1727 381"
   sodipodi:docname="justlease.png"
   inkscape:version="0.92.3 (2405546, 2018-03-11)">
  <metadata
     id="metadata8">
    <rdf:RDF>
      <cc:Work
         rdf:about="">
        <dc:format>image/svg+xml</dc:format>
        <dc:type
           rdf:resource="http://purl.org/dc/dcmitype/StillImage" />
        <dc:title></dc:title>
      </cc:Work>
    </rdf:RDF>
  </metadata>
  <defs
     id="defs6" />
  <sodipodi:namedview
     pagecolor="#ffffff"
     bordercolor="#666666"
     borderopacity="1"
     objecttolerance="10"
     gridtolerance="10"
     guidetolerance="10"
     inkscape:pageopacity="0"
     inkscape:pageshadow="2"
     inkscape:window-width="1920"
     inkscape:window-height="988"
     id="namedview4"
     showgrid="false"
     inkscape:zoom="0.61743893"
     inkscape:cx="1261.1966"
     inkscape:cy="222.45346"
     inkscape:window-x="0"
     inkscape:window-y="27"
     inkscape:window-maximized="1"
     inkscape:current-layer="svg2" />
  <g
     id="g22"
     transform="translate(73,-380.92138)">
    <path
       style="fill:#f16421"
       d="m 1353.2515,635.002 c -16.2443,-1.71274 -32.8616,-5.76086 -46.0847,-11.22669 -6.3992,-2.64513 -7.2618,-3.30147 -6.7732,-5.15325 0.3079,-1.16713 2.8669,-11.64485 5.6866,-23.28382 l 5.1267,-21.16175 6.3566,2.852 c 9.4398,4.23536 24.2849,8.76914 34.7129,10.60155 10.7143,1.8827 29.1057,2.13047 36.0117,0.48516 10.8101,-2.57546 19.3768,-8.67563 22.4235,-15.96732 2.241,-5.36353 1.9088,-14.23493 -0.7379,-19.70214 -4.179,-8.6327 -13.848,-14.624 -39.3055,-24.35523 -17.8243,-6.81338 -25.4524,-10.53956 -35.6682,-17.42312 -23.5805,-15.88888 -34.3921,-38.05504 -31.0963,-63.75415 4.1439,-32.31299 26.6875,-54.38701 64.5369,-63.19283 12.254,-2.85094 44.115,-3.03869 58.5547,-0.34506 8.8045,1.64242 28.9564,7.61764 31.7011,9.39963 0.8844,0.57425 -0.4043,6.58752 -4.9437,23.06686 -4.9956,18.13526 -6.4302,22.19537 -7.6964,21.78177 -0.856,-0.2796 -6.0563,-2.09321 -11.5563,-4.03024 -26.7664,-9.4268 -55.3564,-8.68246 -67.2389,1.75057 -10.413,9.14272 -9.456,23.96618 2.1048,32.60093 6.8786,5.13766 12.3153,7.76252 33.3352,16.09444 30.5677,12.11647 45.7502,22.18353 55.8499,37.03245 17.2059,25.29665 14.2852,62.43972 -6.7167,85.41917 -12.6122,13.79977 -30.9951,22.93258 -54.3343,26.99391 -11.0712,1.92653 -33.1771,2.68448 -44.2485,1.51716 z M 719,508.5 V 385 h 27.99517 27.99517 l 0.25483,99.75 0.25483,99.75 49.25,0.25942 49.25,0.25943 V 608.50942 632 H 796.5 719 Z m 177,0 V 385 h 76 76 v 23 23 h -48 -48 v 25.5 25.5 h 45 45 v 22.5 22.5 h -45 -45 v 29.5 29.5 h 50.5 50.5 v 23 23 H 974.5 896 Z m 166.2654,122.26525 c 0.2433,-0.69589 17.2706,-56.27969 37.8384,-123.51955 l 37.3962,-122.25431 36.8996,0.25431 36.8997,0.2543 37.8503,121.94037 c 20.8177,67.06721 37.8504,122.52971 37.8504,123.25 0,1.05022 -5.9054,1.30963 -29.8137,1.30963 h -29.8137 l -9.501,-31.75 -9.501,-31.75 -35.1537,-0.26276 -35.1536,-0.26275 -1.5271,5.26275 c -0.8399,2.89452 -4.8312,17.18776 -8.8696,31.76276 l -7.3424,26.5 -29.2505,0.26525 c -23.2446,0.21078 -29.1597,0.005 -28.8083,-1 z M 1200,526.40444 c 0,-0.32756 -3.8797,-13.71506 -8.6215,-29.75 C 1186.6366,480.6195 1180.3898,458.275 1177.4966,447 c -2.8932,-11.275 -5.5109,-19.825 -5.8172,-19 -0.3063,0.825 -2.4468,9.825 -4.7569,20 -2.31,10.175 -7.9626,31.97121 -12.5613,48.43603 -4.5986,16.46481 -8.3612,30.07731 -8.3612,30.25 0,0.17268 12.15,0.31397 27,0.31397 14.85,0 27,-0.268 27,-0.59556 z M 1496,508.5 V 385 h 76.5 76.5 v 23 23 h -48 -48 v 25.5 25.5 h 45 45 v 22.5 22.5 h -45 -45 v 29.5 29.5 h 50.5 50.5 v 23 23 h -79 -79 z M 0,409 v -28 h 28 28 v 28 28 H 28 0 Z"
       id="path16"
       inkscape:connector-curvature="0" />
    <path
       style="fill:#00447c"
       d="M -64.75,761.2766 -68,760.87328 V 730.5086 700.14391 l 5.593602,-0.69887 c 3.076481,-0.38438 10.163981,-0.49195 15.75,-0.23904 15.141691,0.68554 23.075545,4.92068 28.426542,15.17426 2.350798,4.5046 2.671127,6.26117 2.666051,14.61974 -0.0068,11.15713 -2.232825,17.44773 -8.247992,23.30805 -7.890143,7.68702 -23.575363,11.12326 -40.938203,8.96855 z m 22.765845,-9.87395 c 6.966019,-2.06868 11.318124,-6.42079 13.386809,-13.38681 1.99006,-6.70126 2.008504,-10.26832 0.08656,-16.74022 -2.711055,-9.1291 -10.407739,-13.71278 -21.989214,-13.09544 l -6,0.31982 -0.270971,20.97416 c -0.149033,11.53579 -0.05066,21.54829 0.218616,22.25 0.682807,1.77937 8.040586,1.61699 14.5682,-0.32151 z m 151.717965,9.18033 c -2.6214,-0.70511 -5.01292,-1.52876 -5.31448,-1.83032 -0.65343,-0.65343 0.41816,-6.87168 1.48038,-8.59038 0.56917,-0.92095 1.67975,-0.81436 4.67344,0.44851 2.15977,0.9111 6.47863,1.70888 9.59748,1.77287 7.3521,0.15084 11.18571,-2.39361 11.63927,-7.72523 0.39565,-4.65084 -2.56372,-7.57457 -10.7753,-10.64549 -11.2261,-4.19828 -16.01718,-9.38806 -16.02801,-17.36181 -0.0131,-9.61381 5.44866,-15.63892 16.01677,-17.66894 6.33845,-1.21754 18.79458,0.37981 19.61403,2.51526 0.27288,0.71111 0.006,3.11293 -0.59292,5.33739 l -1.08906,4.04448 -3.44559,-1.43966 c -7.60897,-3.17923 -17.65339,-0.98808 -18.93828,4.13132 -1.06955,4.26143 1.70776,7.11281 11.19917,11.49786 9.72529,4.49309 12.85438,6.94635 14.85817,11.64904 4.13636,9.70762 -1.39381,20.64999 -12.03311,23.80952 -5.97737,1.77509 -14.38608,1.79749 -20.86196,0.0556 z m 204.47115,-0.47721 c -7.28961,-2.51787 -12.16408,-6.75038 -15.70496,-13.63663 -2.75812,-5.36396 -2.99742,-6.64607 -2.96798,-15.90176 0.0283,-8.89975 0.3369,-10.64729 2.66071,-15.06738 6.65566,-12.65968 20.24037,-18.8467 36.36681,-16.56292 3.7019,0.52425 7.09548,1.31794 7.54128,1.76374 0.4458,0.4458 0.32699,2.71563 -0.26404,5.04407 -1.00053,3.94181 -1.25588,4.18259 -3.70568,3.49432 -1.4471,-0.40657 -6.04027,-0.73921 -10.20703,-0.73921 -6.63328,0 -8.10474,0.35018 -11.82583,2.81437 -7.59655,5.03059 -10.97333,16.39286 -8.02612,27.00641 1.39286,5.01598 7.12483,11.25782 11.74385,12.78849 4.35292,1.44248 14.58275,1.46069 18.32246,0.0326 2.44434,-0.93342 2.68343,-0.78259 3.25,2.05029 1.21866,6.09328 0.94439,6.57072 -4.43765,7.72497 -7.44041,1.59568 -16.73717,1.26405 -22.74582,-0.81137 z m 269.52885,0.53579 c -2.6214,-0.73733 -5.04977,-1.62418 -5.39636,-1.97078 -0.3466,-0.3466 -0.21353,-2.55181 0.2957,-4.90048 1.02613,-4.73263 0.80277,-4.68183 9.74422,-2.21621 7.02014,1.93583 11.88641,1.27304 15.23436,-2.07491 5.20092,-5.20092 1.7145,-11.5052 -8.49236,-15.35621 C 583.37744,729.69278 578.76923,724.5849 578.76923,716 c 0,-11.01392 7.85419,-17.2695 21.73077,-17.30776 6.64453,-0.0183 14.50647,1.6823 14.49442,3.13531 -0.003,0.36985 -0.48631,2.40374 -1.07387,4.51976 -0.91999,3.31322 -1.37039,3.75547 -3.24442,3.18568 -1.19687,-0.3639 -5.17629,-0.91548 -8.84315,-1.22574 -6.20777,-0.52525 -6.84496,-0.38618 -9.25,2.01886 -3.18013,3.18013 -3.30376,6.66504 -0.33298,9.38624 1.2375,1.13354 6.15133,3.90751 10.91961,6.16439 9.33734,4.41945 12.23251,7.18918 13.86953,13.26862 2.10861,7.83078 -1.42813,15.59448 -9.01103,19.78062 -5.35721,2.95745 -16.96491,3.77714 -24.2943,1.71558 z m 971.99999,0.006 c -2.6214,-0.74053 -5.046,-1.62622 -5.388,-1.96822 -0.342,-0.34199 -0.045,-2.68291 0.6606,-5.20205 1.007,-3.5965 1.6273,-4.43159 2.888,-3.88808 12.8531,5.54095 24.4389,2.90134 24.4389,-5.56797 0,-4.16405 -2.4425,-6.45337 -10.1754,-9.53736 -11.8769,-4.73661 -17.1473,-10.37372 -17.1542,-18.34754 -0.01,-12.22163 12.1935,-19.75852 27.8982,-17.22936 8.8804,1.43016 9.1138,1.65826 7.4544,7.28645 l -1.3837,4.69325 -3.4542,-1.44325 C 1579.6186,708.64946 1575.7652,708 1572.9552,708 c -4.3406,0 -5.5592,0.45012 -8.1018,2.99276 -2.2803,2.28027 -2.829,3.53015 -2.3048,5.25 1.1408,3.74312 3.3145,5.49025 10.2935,8.27355 12.1828,4.85859 17.1476,10.32758 17.1542,18.89583 0,6.44643 -3.4171,12.33202 -8.9917,15.4651 -5.2224,2.93515 -17.9827,3.82896 -25.2708,1.77013 z M 10,730 v -31 h 18 18 v 5 5 H 33.45794 20.915871 l 0.292065,7.75 L 21.5,724.5 32.75,724.78275 44,725.0655 V 729.53275 734 H 32.5 21 v 9 9 h 13 13 v 4.5 4.5 H 28.5 10 Z m 159,0.57196 v -30.42805 l 5.54108,-0.69231 c 3.04759,-0.38077 9.46054,-0.50492 14.251,-0.27588 C 203.89806,699.89794 210.5,705.62289 210.5,718 c 0,12.46297 -7.35073,19.03578 -22.15789,19.81295 L 180,738.2508 V 749.6254 761 h -5.5 -5.5 z m 25.68863,-3.52368 c 5.56773,-3.39488 6.4055,-11.73186 1.62986,-16.2193 C 194.2346,708.87086 192.77784,708.5 187.16997,708.5 H 180.5 l -0.29142,8.92086 c -0.16029,4.90647 -0.0619,9.51897 0.21861,10.25 0.81322,2.11921 10.45513,1.69829 14.26144,-0.62258 z M 236,730 v -31 h 18 18 v 5 5 h -12.54206 -12.54207 l 0.29207,7.75 0.29206,7.75 11.25,0.28275 11.25,0.28275 V 729.53275 734 H 258.5 247 v 9 9 h 13 13 v 4.5 4.5 H 254.5 236 Z m 131,0 v -31 h 6 6 v 31 31 h -6 -6 z m 36.50042,26.75 c 0.75846,-2.3375 5.24841,-16.2875 9.97766,-31 L 422.07673,699 h 6.90262 c 3.79644,0 7.18662,0.45953 7.53374,1.02118 0.34712,0.56165 5.03986,14.51165 10.42831,31 L 456.73859,761 h -6.30878 -6.30878 l -2.59266,-8.5 -2.59266,-8.5 h -9.87045 -9.87046 l -2.14565,7.25 c -1.18011,3.9875 -2.33482,7.8125 -2.56602,8.5 -0.27357,0.81349 -2.50536,1.25 -6.39105,1.25 h -5.97068 z m 29.77296,-33 c -1.92313,-6.1875 -3.70817,-11.925 -3.96675,-12.75 -0.25858,-0.825 -2.01083,3.83449 -3.8939,10.35441 -1.88307,6.51993 -3.67283,12.25743 -3.97726,12.75 -0.30824,0.49874 2.96658,0.89559 7.3905,0.89559 h 7.944 z M 480,730 v -31 h 6 6 v 26.5 26.5 h 12.5 12.5 v 4.5 4.5 H 498.5 480 Z m 61,0 v -31 h 5.5 5.5 v 31 31 h -5.5 -5.5 z m 114,5 v -26 h -9 -9 v -5 -5 h 23.5 23.5 v 5 5 h -9 -9 v 26 26 h -5.5 -5.5 z m 86,-5 v -31 h 5.5 5.5 v 31 31 h -5.5 -5.5 z m 39,0 v -31 h 6.44005 6.44005 l 9.44384,15.75 c 5.19412,8.6625 11.04896,18.9 13.01077,22.75 l 3.56692,7 0.0492,-22.75 L 819,699 h 5 5 v 31 31 h -5.97 -5.96999 l -8.72874,-14.75 c -4.8008,-8.1125 -10.88067,-18.8 -13.51081,-23.75 l -4.78208,-9 -0.0192,23.75 L 790,761 h -5 -5 z m 111,0.57196 v -30.42805 l 5.54108,-0.69231 c 10.29735,-1.28657 22.48739,-0.13517 27.4765,2.59526 11.28632,6.17676 11.92222,24.49318 1.10005,31.68461 -4.48652,2.98134 -9.38126,4.25618 -16.36763,4.26295 L 903,738 v 11.5 11.5 h -6 -6 z m 25.12844,-3.13838 c 3.65132,-1.88817 6.24403,-7.46126 5.35474,-11.51014 -0.34662,-1.57816 -1.98166,-4.00654 -3.63342,-5.39641 C 915.37749,708.44675 913.79938,708 908.92327,708 H 903 v 10.5 10.5 h 5.04966 c 2.77731,0 6.41276,-0.70489 8.07878,-1.56642 z M 958,730.57196 v -30.42805 l 5.5411,-0.69231 c 9.4143,-1.17624 22.5586,-0.11347 27.0094,2.18383 5.8176,3.00279 8.4503,7.44863 8.4458,14.26245 0,6.4829 -2.3255,11.11544 -6.9911,13.95274 l -3.013,1.83234 2.1103,1.90852 c 3.0684,2.77499 5.3759,7.8957 7.3939,16.40852 0.9779,4.125 2.1821,8.2875 2.676,9.25 0.8071,1.57294 0.2848,1.75 -5.162,1.75 -6.9624,0 -6.9,0.0799 -9.7505,-12.48951 C 984.1206,739.07708 981.1241,736 974.0769,736 H 969 v 12.5 12.5 h -5.5 -5.5 z m 25.0926,-5.11986 c 5.0407,-2.60663 6.4177,-9.2623 2.8538,-13.79314 -2.4513,-3.11633 -8.6357,-4.99547 -13.4612,-4.0902 L 969,708.22258 V 717.61129 727 h 5.5497 c 3.0535,0 6.896,-0.69622 8.5429,-1.5479 z M 1025,730 v -31 h 6 6 v 31 31 h -6 -6 z m 53.6998,30.29373 C 1078.0805,759.25304 1059,700.43951 1059,699.57134 c 0,-0.36672 2.7958,-0.5328 6.2128,-0.36906 l 6.2129,0.29772 1.8447,6 c 1.0146,3.3 4.2613,14.325 7.2149,24.5 2.9535,10.175 5.5901,17.825 5.859,17 0.2689,-0.825 1.4608,-4.875 2.6487,-9 1.1879,-4.125 4.4035,-14.5875 7.1458,-23.25 l 4.9861,-15.75 h 5.9376 c 3.2656,0 5.9375,0.33943 5.9375,0.7543 0,0.41486 -4.6754,14.25236 -10.3897,30.75 l -10.3898,29.9957 -6.5242,0.29373 c -3.5883,0.16155 -6.7368,-0.0634 -6.9965,-0.5 z M 1126,759.9315 c 0,-0.64257 3.8551,-13.15252 8.5669,-27.7999 4.7118,-14.64738 9.0217,-28.0941 9.5776,-29.8816 l 1.0106,-3.25 h 7.3058 7.3059 l 6.7692,20.75 c 3.7231,11.4125 8.2349,25.3625 10.0261,31 l 3.2569,10.25 h -6.2596 -6.2595 l -2.4593,-8.25 -2.4593,-8.25 -9.9644,-0.28249 -9.9645,-0.28248 -2.4816,8.28248 -2.4817,8.28249 -5.7446,0.2999 c -3.8858,0.20287 -5.7445,-0.0781 -5.7445,-0.8684 z m 33.7326,-26.186 C 1157.8741,728.90244 1153,712.66825 1153,711.32138 c 0,-3.39014 -1.4477,0.0162 -4.6494,10.93954 -1.8118,6.18149 -3.3069,11.57658 -3.3224,11.98908 -0.015,0.4125 3.3949,0.75 7.5788,0.75 5.6893,0 7.4856,-0.31625 7.1256,-1.2545 z M 1208,735 v -26 h -9 -9 v -5 -5 h 23.5 23.5 v 5 5 h -9 -9 v 26 26 h -5.5 -5.5 z m 52,-5 v -31 h 18 18 v 5 5 h -12.5 -12.5 v 8 8 h 11.5 11.5 v 4.5 4.5 h -11.5 -11.5 v 9 9 h 13 13 v 4.5 4.5 h -18.5 -18.5 z m 96,0 v -31 h 6 6 v 26.5 26.5 h 12.5 12.5 v 4.5 4.5 h -18.5 -18.5 z m 61,0 v -31 h 18 18 v 5 5 h -12.5 -12.5 v 8 8 h 11.5 11.5 v 4.5 4.5 h -11.5 -11.5 v 9 9 h 13 13 v 4.5 4.5 h -18.5 -18.5 z m 58,30.04858 c 0,-0.57817 4.275,-14.33673 9.5,-30.57458 5.225,-16.23784 9.5,-29.73725 9.5,-29.99868 0,-0.26142 3.3384,-0.47532 7.4187,-0.47532 h 7.4187 l 7.7292,23.75 c 4.251,13.0625 8.7528,27.0125 10.0039,31 l 2.2747,7.25 h -6.2727 -6.2726 l -2.4593,-8.25 -2.4593,-8.25 -9.9644,-0.28249 -9.9645,-0.28248 -2.4816,8.28248 -2.4817,8.28249 -5.7446,0.2999 c -3.5398,0.18481 -5.7445,-0.10354 -5.7445,-0.75132 z m 33.7326,-26.30308 C 1506.8741,728.90244 1502,712.66825 1502,711.32138 c 0,-3.39014 -1.4477,0.0162 -4.6494,10.93954 -1.8118,6.18149 -3.3069,11.57658 -3.3224,11.98908 -0.015,0.4125 3.3949,0.75 7.5788,0.75 5.6893,0 7.4856,-0.31625 7.1256,-1.2545 z M 1615,730 v -31 h 18 18 v 5 5 h -12 -12 v 8 8 h 11.5 11.5 v 4.5 4.5 h -11.5 -11.5 v 9 9 h 13 13 v 4.5 4.5 h -19 -19 z M 177,635.2966 C 163.25886,634.21568 144.80036,629.00324 135.5813,623.60051 113.67746,610.76401 101.055,591.67068 94.19653,561 L 91.62494,549.5 91.2592,467.25 90.89346,385 h 28.00913 28.00914 l 0.32239,80.75 c 0.31918,79.94513 0.34459,80.82974 2.54998,88.75 7.16927,25.74727 22.21703,37.81383 45.19237,36.23907 23.04748,-1.57971 36.26848,-16.14023 40.57097,-44.6815 1.15712,-7.67592 1.44193,-24.47086 1.44666,-85.30757 L 237,385 h 28.06904 28.06904 l -0.43917,79.75 c -0.46815,85.01161 -0.46165,84.89228 -5.65108,103.80789 -2.76992,10.09646 -8.7657,22.89139 -14.47878,30.89755 C 253.88506,625.63871 219.26704,638.62147 177,635.2966 Z m 196.76826,-0.33806 C 351.95291,632.67693 321,623.64486 321,619.56074 c 0,-1.22884 9.5328,-41.37086 10.52929,-44.33816 0.31821,-0.94757 1.6609,-0.65818 5.19985,1.1207 11.53444,5.7979 30.94062,11.02886 47.04761,12.68175 C 412.83448,592.00692 433,581.34512 433,563 c 0,-6.49892 -2.2629,-11.34121 -7.9609,-17.03519 C 418.72291,539.65307 410.86315,535.47931 392,528.4201 354.35515,514.33216 334.88926,498.39325 326.75904,475 c -1.93748,-5.57478 -2.25417,-8.49278 -2.22479,-20.5 0.0308,-12.57262 0.30391,-14.7478 2.67921,-21.3346 13.62487,-37.78232 54.86241,-57.01991 109.57595,-51.11791 14.75907,1.59207 36.33122,7.15582 42.11629,10.86236 1.16545,0.74671 0.41141,4.5487 -4.41188,22.24539 -3.19967,11.73962 -6.16084,21.73836 -6.58038,22.21944 -0.41969,0.48125 -4.05768,-0.48023 -8.08812,-2.1376 -14.40297,-5.92271 -30.45617,-8.687 -46.32532,-7.97703 -15.95042,0.7136 -25.12472,4.74573 -29.96518,13.16977 -3.42015,5.9522 -3.91986,9.73385 -2.10927,15.96207 2.88809,9.9347 11.93427,15.97687 40.72598,27.20193 26.53002,10.3433 39.61053,18.07979 50.76741,30.02646 11.95903,12.80561 17.02832,26.2284 17.0637,45.18231 0.062,33.24683 -19.33236,58.6419 -53.53709,70.10154 -4.92487,1.64998 -12.92017,3.69155 -17.76733,4.53683 -11.16881,1.94768 -33.56237,2.70439 -44.90996,1.51758 z M -47.448017,630.89677 C -59.434161,629.63423 -73,626.69201 -73,625.35494 c 0,-1.5743 6.188001,-43.87627 6.457753,-44.14603 0.180062,-0.18006 2.963229,0.40343 6.184816,1.29664 3.221587,0.89322 11.092919,1.8795 17.491848,2.19175 10.009137,0.48841 12.596741,0.27542 18.523119,-1.52466 11.599224,-3.52316 17.891915,-10.6365 22.032503,-24.90584 1.421814,-4.89987 1.732259,-12.41893 2.065075,-50.0168 L 0.146816,464 h 28.032694 28.0327 l -0.47834,45.75 C 55.2176,559.12747 54.576,566.44072 49.4026,581.91648 45.54962,593.44231 40.4947,601.6724 32.08501,610.11187 25.864494,616.35441 22.791012,618.5384 15,622.25235 c -17.489744,8.33731 -38.177084,11.20097 -62.448017,8.64442 z M 565,532 V 432 H 531.5 498 V 408.5 385 h 95 95 V 408.5 432 H 654.5 621 v 100 100 h -28 -28 z"
       id="path14"
       inkscape:connector-curvature="0" />
  </g>
</svg>
