<?xml version="1.0" encoding="UTF-8"?>
<svg width="156px" height="40px" viewBox="0 0 156 40" version="1.1" xmlns="http://www.w3.org/2000/svg" xmlns:xlink="http://www.w3.org/1999/xlink">
    <!-- Generator: Sketch 48.2 (47327) - http://www.bohemiancoding.com/sketch -->
    <title>logo_multilease copy</title>
    <desc>Created with Sketch.</desc>
    <defs>
        <linearGradient x1="54.8185004%" y1="47.578125%" x2="133.674842%" y2="22.041875%" id="linearGradient-1">
            <stop stop-color="#FFC20E" offset="0%"></stop>
            <stop stop-color="#E2AD0F" offset="100%"></stop>
        </linearGradient>
        <linearGradient x1="55.6442857%" y1="51.3225%" x2="113.064286%" y2="45.4625%" id="linearGradient-2">
            <stop stop-color="#F37021" offset="0.45045%"></stop>
            <stop stop-color="#C85C1A" offset="100%"></stop>
        </linearGradient>
        <linearGradient x1="47.38%" y1="28.7849403%" x2="58.5433333%" y2="-20.1052821%" id="linearGradient-3">
            <stop stop-color="#C02126" offset="0%"></stop>
            <stop stop-color="#9F181B" offset="100%"></stop>
        </linearGradient>
        <linearGradient x1="42.8373917%" y1="47.0347826%" x2="-39.007257%" y2="5.64223602%" id="linearGradient-4">
            <stop stop-color="#0074BE" offset="0%"></stop>
            <stop stop-color="#0062A2" offset="100%"></stop>
        </linearGradient>
        <linearGradient x1="0.0443786982%" y1="50.8126891%" x2="147.576923%" y2="50.8126891%" id="linearGradient-5">
            <stop stop-color="#009445" offset="30.62%"></stop>
            <stop stop-color="#007736" offset="100%"></stop>
        </linearGradient>
        <linearGradient x1="57.5195402%" y1="40.4111111%" x2="-8.44827586%" y2="106.540741%" id="linearGradient-6">
            <stop stop-color="#0074BE" offset="0%"></stop>
            <stop stop-color="#0062A2" offset="100%"></stop>
        </linearGradient>
        <linearGradient x1="69.6344232%" y1="44.5407547%" x2="105.535851%" y2="13.8460377%" id="linearGradient-7">
            <stop stop-color="#009445" offset="0%"></stop>
            <stop stop-color="#007736" offset="100%"></stop>
        </linearGradient>
        <linearGradient x1="16.2495947%" y1="52.547541%" x2="-13.0909504%" y2="57.2815574%" id="linearGradient-8">
            <stop stop-color="#F37021" offset="0.45045%"></stop>
            <stop stop-color="#C85C1A" offset="100%"></stop>
        </linearGradient>
        <linearGradient x1="47.6931034%" y1="88.2770115%" x2="46.537931%" y2="106.36954%" id="linearGradient-9">
            <stop stop-color="#C02126" offset="0%"></stop>
            <stop stop-color="#9F181B" offset="100%"></stop>
        </linearGradient>
        <linearGradient x1="73.1532258%" y1="61.0270482%" x2="108.805376%" y2="73.4433841%" id="linearGradient-10">
            <stop stop-color="#0074BE" offset="0%"></stop>
            <stop stop-color="#0062A2" offset="100%"></stop>
        </linearGradient>
        <linearGradient x1="40.5617647%" y1="23.0234848%" x2="27.3205882%" y2="-3.90151515%" id="linearGradient-11">
            <stop stop-color="#FFC20E" offset="0%"></stop>
            <stop stop-color="#E2AD0F" offset="100%"></stop>
        </linearGradient>
        <linearGradient x1="53.4422222%" y1="37.4558442%" x2="46.7444444%" y2="-9.52077922%" id="linearGradient-12">
            <stop stop-color="#F37021" offset="0.45045%"></stop>
            <stop stop-color="#C85C1A" offset="100%"></stop>
        </linearGradient>
    </defs>
    <g id="Mobile---Submenu" stroke="none" stroke-width="1" fill="none" fill-rule="evenodd" transform="translate(-10.000000, -3.000000)">
        <g id="logo_multilease-copy" transform="translate(10.000000, 3.000000)">
            <g id="Group">
                <path d="M17.9387755,6.55147059 C18.1836735,6.00551471 18.4285714,5.39889706 18.5510204,4.79227941 C18.5510204,4.73161765 18.5510204,4.67095588 18.6122449,4.54963235 C18.6122449,4.54963235 18.6122449,4.48897059 18.6122449,4.48897059 C18.6734694,4.125 18.6734694,3.76102941 18.6734694,3.33639706 C18.6734694,3.33639706 18.6734694,3.27573529 18.6734694,3.27573529 C18.6734694,3.21507353 18.6734694,3.09375 18.6734694,3.03308824 C18.6734694,2.97242647 18.6734694,2.91176471 18.6734694,2.85110294 C18.6734694,2.72977941 18.6122449,2.60845588 18.6122449,2.48713235 C18.6122449,2.48713235 18.6122449,2.48713235 18.6122449,2.48713235 C18.6122449,2.36580882 18.5510204,2.24448529 18.5510204,2.12316176 C18.5510204,2.12316176 18.5510204,2.12316176 18.5510204,2.12316176 C18.5510204,2.00183824 18.4897959,1.88051471 18.4897959,1.81985294 C18.4897959,1.81985294 18.4897959,1.75919118 18.4897959,1.75919118 C18.4285714,1.63786765 18.4285714,1.51654412 18.3673469,1.39522059 C18.244898,1.03125 18.122449,0.727941176 17.9387755,0.363970588 C17.9387755,0.363970588 17.9387755,0.363970588 17.9387755,0.303308824 C16.4081633,1.75919118 15.3061224,3.57904412 14.755102,5.45955882 C14.3265306,6.91544118 14.2040816,8.49264706 14.3877551,10.0091912 C15.9183673,9.34191176 17.2040816,8.06801471 17.9387755,6.55147059 Z" id="Shape" fill="url(#linearGradient-1)" fill-rule="nonzero"></path>
                <path d="M6.18367347,10.6764706 C6.06122449,10.5551471 5.87755102,10.4338235 5.75510204,10.3125 C5.08163265,11.2830882 4.59183673,12.3143382 4.2244898,13.40625 C5.51020408,14.2555147 6.97959184,14.8621324 8.51020408,15.1654412 C8.26530612,13.40625 7.46938776,11.8290441 6.18367347,10.6764706 Z" id="Shape" fill="url(#linearGradient-2)" fill-rule="nonzero"></path>
                <path d="M6.55102041,22.9908088 C6.36734694,23.0514706 6.24489796,23.1727941 6.06122449,23.2941176 C6.79591837,24.2040441 7.59183673,25.0533088 8.57142857,25.6599265 C9.79591837,24.6893382 10.8367347,23.5367647 11.5714286,22.2022059 C9.79591837,21.8988971 8.02040816,22.2022059 6.55102041,22.9908088 Z" id="Shape" fill="url(#linearGradient-3)" fill-rule="nonzero"></path>
                <path d="M21.6122449,25.4172794 C21.0612245,23.9613971 20.2653061,22.6268382 19.2244898,21.5349265 C18.4285714,23.1121324 18.122449,24.8713235 18.4285714,26.5091912 C18.5510204,27.1158088 18.7346939,27.7224265 18.9795918,28.2683824 C18.9795918,28.3290441 19.0408163,28.3897059 19.0408163,28.4503676 C19.0408163,28.4503676 19.0408163,28.5110294 19.1020408,28.5110294 C19.2857143,28.875 19.4693878,29.1783088 19.7142857,29.4816176 C19.7142857,29.4816176 19.7142857,29.4816176 19.7142857,29.4816176 C19.7755102,29.5422794 19.8367347,29.6029412 19.8979592,29.7242647 C19.8979592,29.7849265 19.9591837,29.7849265 19.9591837,29.8455882 C20.0204082,29.90625 20.0816327,29.9669118 20.0816327,29.9669118 C20.0816327,29.9669118 20.1428571,30.0275735 20.1428571,30.0275735 C20.2040816,30.0882353 20.2653061,30.1488971 20.3265306,30.2095588 C20.3265306,30.2095588 20.3877551,30.2702206 20.3877551,30.2702206 C20.4489796,30.3308824 20.5102041,30.3915441 20.6326531,30.4522059 C20.6326531,30.4522059 20.6938776,30.5128676 20.6938776,30.5128676 C20.8163265,30.5735294 20.877551,30.6948529 21,30.7555147 C21.1836735,30.8768382 21.3061224,30.9981618 21.4897959,31.0588235 C21.5510204,31.1194853 21.6122449,31.1194853 21.6122449,31.1194853 C21.7346939,31.1801471 21.8571429,31.2408088 21.9795918,31.3014706 C21.9795918,31.3014706 21.9795918,31.3014706 21.9795918,31.3014706 C22.5306122,29.3602941 22.3469388,27.2977941 21.6122449,25.4172794 Z" id="Shape" fill="url(#linearGradient-4)" fill-rule="nonzero"></path>
                <path d="M25.4081633,12.9816176 C23.877551,13.0422794 22.3469388,13.40625 20.9387755,14.0735294 C22.2244898,15.3474265 23.8163265,16.1360294 25.4693878,16.3180147 C26.0816327,16.3786765 26.6938776,16.3786765 27.3061224,16.3180147 C27.3673469,16.3180147 27.4285714,16.3180147 27.4897959,16.3180147 C27.5510204,16.3180147 27.5510204,16.3180147 27.6122449,16.3180147 C27.9795918,16.2573529 28.3469388,16.1966912 28.7142857,16.0753676 C28.7142857,16.0753676 28.7755102,16.0753676 28.7755102,16.0753676 C28.8367347,16.0753676 28.9591837,16.0147059 29.0204082,16.0147059 C29.0816327,16.0147059 29.1428571,15.9540441 29.1428571,15.9540441 C29.2653061,15.8933824 29.3877551,15.8327206 29.4489796,15.7720588 C29.4489796,15.7720588 29.4489796,15.7720588 29.4489796,15.7720588 C29.5714286,15.7113971 29.6326531,15.6507353 29.755102,15.5900735 C29.755102,15.5900735 29.755102,15.5900735 29.755102,15.5900735 C29.877551,15.5294118 29.9387755,15.46875 30.0612245,15.4080882 C30.0612245,15.4080882 30.122449,15.4080882 30.122449,15.3474265 C30.244898,15.2867647 30.3061224,15.2261029 30.4285714,15.1047794 C30.7346939,14.8621324 31.0408163,14.6194853 31.2857143,14.3768382 C31.2857143,14.3768382 31.2857143,14.3768382 31.2857143,14.3768382 C31.2857143,14.3768382 31.2857143,14.3768382 31.2857143,14.3768382 C29.5102041,13.40625 27.4897959,12.9209559 25.4081633,12.9816176 Z" id="Shape" fill="url(#linearGradient-5)" fill-rule="nonzero"></path>
                <path d="M2.57142857,8.79595588 C2.44897959,8.79595588 2.32653061,8.73529412 2.20408163,8.73529412 C2.32653061,8.79595588 2.44897959,8.79595588 2.57142857,8.79595588 Z" id="Shape"></path>
                <path d="M18.4897959,2.18382353 C18.4897959,2.0625 18.4285714,1.94117647 18.4285714,1.88051471 C18.4897959,2.00183824 18.4897959,2.0625 18.4897959,2.18382353 Z" id="Shape"></path>
                <path d="M2.20408163,8.79595588 C2.08163265,8.79595588 1.95918367,8.79595588 1.83673469,8.79595588 C1.95918367,8.73529412 2.08163265,8.73529412 2.20408163,8.79595588 Z" id="Shape"></path>
                <path d="M18.4285714,1.81985294 C18.3673469,1.69852941 18.3673469,1.57720588 18.3061224,1.45588235 C18.3673469,1.57720588 18.3673469,1.69852941 18.4285714,1.81985294 Z" id="Shape"></path>
                <path d="M1.7755102,8.73529412 C1.65306122,8.73529412 1.53061224,8.73529412 1.40816327,8.73529412 C1.53061224,8.73529412 1.65306122,8.73529412 1.7755102,8.73529412 Z" id="Shape"></path>
                <path d="M18.6122449,2.97242647 C18.6122449,2.85110294 18.5510204,2.72977941 18.5510204,2.60845588 C18.6122449,2.72977941 18.6122449,2.85110294 18.6122449,2.97242647 Z" id="Shape"></path>
                <path d="M18.6122449,2.54779412 C18.6122449,2.42647059 18.5510204,2.30514706 18.5510204,2.18382353 C18.5510204,2.36580882 18.5510204,2.48713235 18.6122449,2.54779412 Z" id="Shape"></path>
                <path d="M3.18367347,26.9338235 C3.12244898,27.1158088 3.06122449,27.2977941 3,27.4797794 C3.06122449,27.2977941 3.12244898,27.1158088 3.18367347,26.9338235 Z" id="Shape"></path>
                <path d="M18.4897959,2.24448529 C18.4897959,2.18382353 18.4897959,2.18382353 18.4897959,2.24448529 C18.4897959,2.18382353 18.4897959,2.18382353 18.4897959,2.24448529 Z" id="Shape" fill="#D7DF23" fill-rule="nonzero"></path>
                <path d="M18.4285714,1.88051471 C18.4285714,1.88051471 18.4285714,1.81985294 18.4285714,1.88051471 C18.4285714,1.81985294 18.4285714,1.88051471 18.4285714,1.88051471 Z" id="Shape" fill="#D7DF23" fill-rule="nonzero"></path>
                <path d="M18.6122449,2.60845588 C18.6122449,2.54779412 18.6122449,2.54779412 18.6122449,2.60845588 C18.6122449,2.54779412 18.6122449,2.54779412 18.6122449,2.60845588 Z" id="Shape" fill="#D7DF23" fill-rule="nonzero"></path>
                <path d="M17.877551,0.424632353 C18.0612245,0.727941176 18.1836735,1.09191176 18.3061224,1.45588235 C18.1836735,1.09191176 18.0612245,0.788602941 17.877551,0.424632353 Z" id="Shape" fill="#D7DF23" fill-rule="nonzero"></path>
                <path d="M1.7755102,8.73529412 C1.83673469,8.73529412 1.83673469,8.73529412 1.7755102,8.73529412 C1.95918367,8.73529412 2.08163265,8.73529412 2.14285714,8.73529412 C2.14285714,8.73529412 2.14285714,8.73529412 2.14285714,8.73529412 C2.26530612,8.73529412 2.3877551,8.73529412 2.51020408,8.79595588 C2.51020408,8.79595588 2.51020408,8.79595588 2.51020408,8.79595588 C2.63265306,8.79595588 2.75510204,8.85661765 2.87755102,8.85661765 C2.87755102,8.85661765 2.87755102,8.85661765 2.87755102,8.85661765 C2.87755102,8.85661765 2.87755102,8.85661765 2.87755102,8.85661765 C3.97959184,9.03860294 4.95918367,9.52389706 5.81632653,10.0698529 C6.55102041,9.09926471 7.40816327,8.18933824 8.44897959,7.52205882 C8.02040816,7.21875 7.59183673,6.91544118 7.16326531,6.61213235 C6.12244898,6.00551471 4.34693878,5.27757353 2.57142857,5.52022059 C2.26530612,6.12683824 1.95918367,6.73345588 1.53061224,7.27941176 C1.10204082,7.82536765 0.673469388,8.31066176 0.183673469,8.79595588 C0.183673469,8.79595588 0.183673469,8.79595588 0.183673469,8.79595588 C0.551020408,8.73529412 0.918367347,8.73529412 1.28571429,8.73529412 C1.53061224,8.73529412 1.65306122,8.73529412 1.7755102,8.73529412 Z" id="Shape" fill="#C02126" fill-rule="nonzero"></path>
                <path d="M3.18367347,26.9338235 C3.24489796,26.8125 3.24489796,26.6911765 3.30612245,26.5698529 C3.30612245,26.5698529 3.30612245,26.5091912 3.30612245,26.5091912 C3.36734694,26.3878676 3.36734694,26.3272059 3.42857143,26.2058824 C3.42857143,26.2058824 3.42857143,26.2058824 3.42857143,26.2058824 C3.97959184,24.9926471 4.83673469,23.9007353 5.87755102,23.1121324 C5.20408163,22.2022059 4.65306122,21.1709559 4.28571429,20.0183824 C4.28571429,19.9577206 4.2244898,19.8970588 4.2244898,19.7757353 C3.79591837,20.0790441 3.36734694,20.3823529 3,20.7463235 C2.14285714,21.5349265 0.795918367,22.9908088 0.551020408,24.75 C1.04081633,25.1746324 1.46938776,25.7205882 1.89795918,26.2665441 C2.32653061,26.8125 2.63265306,27.4191176 2.93877551,27.9650735 C3,27.7830882 3,27.6011029 3.06122449,27.4191176 C3.06122449,27.2977941 3.12244898,27.1158088 3.18367347,26.9338235 Z" id="Shape" fill="url(#linearGradient-6)" fill-rule="nonzero"></path>
                <path d="M3.06122449,27.4797794 C3,27.6617647 3,27.84375 2.93877551,28.0257353 C2.93877551,27.84375 3,27.6617647 3.06122449,27.4797794 Z" id="Shape" fill="#ED1C24" fill-rule="nonzero"></path>
                <path d="M30.1836735,15.3474265 C30.1836735,15.3474265 30.1836735,15.3474265 30.1836735,15.3474265 C30.0612245,15.46875 29.9387755,15.46875 29.877551,15.5294118 C29.877551,15.5294118 29.877551,15.5294118 29.877551,15.5294118 C29.755102,15.5900735 29.6938776,15.6507353 29.5714286,15.7113971 C29.5714286,15.7113971 29.5714286,15.7113971 29.5714286,15.7113971 C28.4693878,16.2573529 27.3061224,16.5606618 26.0816327,16.6213235 C26.0816327,17.8952206 25.8979592,19.1084559 25.4693878,20.2610294 C25.8979592,20.2610294 26.3877551,20.2610294 26.8163265,20.2610294 C27.9795918,20.1397059 30.0612245,19.7757353 31.4081633,18.4411765 C31.2857143,17.7738971 31.2244898,17.1066176 31.2244898,16.4393382 C31.2244898,15.7720588 31.2857143,15.1047794 31.4081633,14.4375 C31.1632653,14.6801471 30.8571429,14.9227941 30.5510204,15.1654412 C30.4285714,15.1654412 30.3061224,15.2867647 30.1836735,15.3474265 Z" id="Shape" fill="#FFC20E" fill-rule="nonzero"></path>
                <path d="M12.9183673,15.1654412 C12.9795918,15.6507353 13.0408163,16.1360294 13.0408163,16.6213235 C13.0408163,17.1066176 12.9795918,17.5919118 12.9183673,18.0772059 C13.4081633,18.1378676 13.8367347,18.2591912 14.3265306,18.4411765 C14.8163265,18.5625 15.244898,18.8051471 15.6734694,18.9871324 C15.9183673,18.5625 16.1632653,18.1378676 16.4693878,17.7738971 C16.7755102,17.3492647 17.0816327,16.9852941 17.3877551,16.6819853 C17.0816327,16.3180147 16.7755102,15.9540441 16.4693878,15.5900735 C16.1632653,15.1654412 15.9183673,14.8014706 15.6734694,14.3768382 C15.244898,14.5588235 14.8163265,14.7408088 14.3265306,14.9227941 C13.8979592,14.9834559 13.4081633,15.1047794 12.9183673,15.1654412 Z" id="Shape"></path>
                <path d="M21.7959184,31.2408088 C21.7346939,31.2408088 21.6734694,31.1801471 21.6734694,31.1801471 C21.4897959,31.0588235 21.3673469,30.9981618 21.1836735,30.8768382 C21.0612245,30.8161765 20.9387755,30.6948529 20.877551,30.6341912 C20.877551,30.6341912 20.8163265,30.5735294 20.8163265,30.5735294 C20.755102,30.5128676 20.6938776,30.4522059 20.5714286,30.3915441 C20.5714286,30.3915441 20.5102041,30.3308824 20.5102041,30.3308824 C20.4489796,30.2702206 20.3877551,30.2095588 20.3265306,30.1488971 C20.3265306,30.1488971 20.2653061,30.0882353 20.2653061,30.0882353 C20.2040816,30.0275735 20.0816327,29.90625 20.0204082,29.8455882 C20.0204082,29.8455882 20.0204082,29.8455882 19.9591837,29.7849265 C19.8979592,29.7242647 19.8367347,29.6636029 19.7755102,29.5422794 C19.7755102,29.5422794 19.7755102,29.5422794 19.7755102,29.5422794 C19.1632653,28.8143382 18.7346939,28.0257353 18.4285714,27.1764706 C17.755102,25.2352941 17.8163265,22.9908088 18.7959184,21.0496324 C18.9795918,20.6856618 19.2244898,20.2610294 19.4693878,19.8970588 C19.7142857,19.5330882 20.0204082,19.1691176 20.3265306,18.8658088 C19.2857143,18.3198529 18.244898,17.53125 17.3877551,16.6213235 C17.0816327,16.9852941 16.7142857,17.3492647 16.4693878,17.7132353 C16.1632653,18.0772059 15.9183673,18.5018382 15.6734694,18.9264706 C15.0612245,20.0183824 14.6326531,21.1709559 14.4489796,22.3841912 C14.1428571,24.1433824 14.2040816,25.9632353 14.6938776,27.6617647 C14.8163265,28.1470588 15,28.6323529 15.244898,29.1176471 C15.7346939,30.2095588 16.7142857,31.9080882 18.3061224,32.6966912 C18.9183673,32.3933824 19.5306122,32.0900735 20.1428571,31.9080882 C20.8163265,31.7261029 21.4285714,31.5441176 22.1020408,31.4834559 C22.0408163,31.3621324 21.9183673,31.3014706 21.7959184,31.2408088 Z" id="Shape" fill="url(#linearGradient-7)" fill-rule="nonzero"></path>
                <path d="M21.7346939,1.63786765 C21.0612245,1.57720588 20.3877551,1.39522059 19.7755102,1.21323529 C19.1020408,1.03125 18.4897959,0.727941176 17.9387755,0.424632353 C17.9387755,0.424632353 17.9387755,0.424632353 17.9387755,0.485294118 C18.122449,0.788602941 18.244898,1.15257353 18.3673469,1.51654412 C18.4285714,1.63786765 18.4285714,1.75919118 18.4897959,1.88051471 C18.4897959,1.88051471 18.4897959,1.94117647 18.4897959,1.94117647 C18.4897959,2.0625 18.5510204,2.18382353 18.5510204,2.24448529 C18.5510204,2.24448529 18.5510204,2.24448529 18.5510204,2.24448529 C18.5510204,2.36580882 18.6122449,2.48713235 18.6122449,2.60845588 C18.6122449,2.60845588 18.6122449,2.60845588 18.6122449,2.60845588 C18.6122449,2.72977941 18.6734694,2.85110294 18.6734694,2.97242647 C18.6734694,2.97242647 18.6734694,2.97242647 18.6734694,2.97242647 C18.7959184,4.06433824 18.6734694,5.15625 18.3673469,6.12683824 C17.755102,8.12867647 16.4081633,9.82720588 14.4489796,10.8584559 C14.0816327,11.0404412 13.6530612,11.2224265 13.2244898,11.4044118 C12.7959184,11.5257353 12.3673469,11.6470588 11.9387755,11.7077206 C12.4897959,12.7996324 12.7959184,13.9522059 12.9795918,15.2261029 C13.4693878,15.1654412 13.8979592,15.0441176 14.3877551,14.8621324 C14.877551,14.7408088 15.3061224,14.5588235 15.7346939,14.3161765 C16.8979592,13.7702206 17.877551,13.1029412 18.7959184,12.2536765 C20.0816327,11.0404412 21.122449,9.52389706 21.7346939,7.82536765 C21.9183673,7.34007353 22.0408163,6.85477941 22.1632653,6.30882353 C22.3469388,5.15625 22.5306122,3.21507353 21.7346939,1.63786765 Z" id="Shape" fill="url(#linearGradient-8)" fill-rule="nonzero"></path>
                <path d="M9.24489796,15.2867647 C9.30612245,15.7113971 9.36734694,16.1360294 9.36734694,16.6213235 C9.36734694,17.1066176 9.30612245,17.53125 9.24489796,17.9558824 C10.4693878,17.7738971 11.6938776,17.8345588 12.9183673,18.0772059 C12.9795918,17.5919118 13.0408163,17.1066176 13.0408163,16.6213235 C13.0408163,16.1360294 12.9795918,15.6507353 12.9183673,15.1654412 C12.7346939,13.9522059 12.4285714,12.7389706 11.877551,11.6470588 C11.0816327,10.0091912 9.97959184,8.61397059 8.57142857,7.52205882 C7.53061224,8.25 6.67346939,9.09926471 5.93877551,10.0698529 C7.65306122,11.2830882 8.87755102,13.1636029 9.24489796,15.2867647 Z" id="Shape" fill="url(#linearGradient-9)" fill-rule="nonzero"></path>
                <path d="M5.93877551,23.1121324 C7.59183673,21.8382353 9.73469388,21.2316176 11.877551,21.5955882 C12.3061224,21.65625 12.7346939,21.7775735 13.1632653,21.8988971 C13.5918367,22.0202206 14.0204082,22.2022059 14.3877551,22.4448529 C14.6326531,21.2922794 15,20.0790441 15.6122449,18.9871324 C15.1836735,18.8051471 14.6938776,18.6231618 14.2653061,18.4411765 C13.7755102,18.3198529 13.3469388,18.1985294 12.8571429,18.0772059 C11.6326531,17.8345588 10.3469388,17.8345588 9.18367347,17.9558824 C7.40816327,18.1985294 5.69387755,18.8051471 4.2244898,19.8363971 C4.2244898,19.8970588 4.28571429,19.9577206 4.28571429,20.0790441 C4.71428571,21.1709559 5.26530612,22.2022059 5.93877551,23.1121324 Z" id="Shape" fill="url(#linearGradient-10)" fill-rule="nonzero"></path>
                <path d="M20.3265306,14.3768382 C20.0204082,14.0735294 19.7142857,13.7095588 19.4693878,13.3455882 C19.2244898,12.9816176 18.9795918,12.6176471 18.7959184,12.1930147 C17.9387755,13.0422794 16.8979592,13.7095588 15.7346939,14.2555147 C15.9795918,14.6801471 16.2244898,15.1047794 16.5306122,15.46875 C16.8367347,15.8327206 17.1428571,16.2573529 17.4489796,16.5606618 C18.3061224,17.4705882 19.2857143,18.1985294 20.3877551,18.8051471 C21.9795918,19.6544118 23.755102,20.1397059 25.5306122,20.2003676 C25.9591837,19.0477941 26.1428571,17.8345588 26.1428571,16.5606618 C23.9387755,16.6819853 21.8571429,15.8933824 20.3265306,14.3768382 Z" id="Shape" fill="url(#linearGradient-11)" fill-rule="nonzero"></path>
                <path d="M6.06122449,23.2941176 C5.69387755,23.5367647 5.32653061,23.7794118 5.02040816,24.0827206 C4.95918367,24.1433824 4.89795918,24.1433824 4.89795918,24.2040441 C4.89795918,24.2040441 4.83673469,24.2647059 4.83673469,24.2647059 C4.59183673,24.5073529 4.34693878,24.8106618 4.10204082,25.1139706 C4.10204082,25.1139706 4.10204082,25.1746324 4.04081633,25.1746324 C3.97959184,25.2352941 3.97959184,25.2959559 3.91836735,25.3566176 C3.85714286,25.4172794 3.85714286,25.4779412 3.79591837,25.4779412 C3.67346939,25.6599265 3.55102041,25.9025735 3.48979592,26.1452206 C3.48979592,26.1452206 3.48979592,26.1452206 3.48979592,26.1452206 C3.42857143,26.2665441 3.42857143,26.3272059 3.36734694,26.4485294 C3.36734694,26.4485294 3.36734694,26.5091912 3.36734694,26.5091912 C3.30612245,26.6305147 3.30612245,26.7518382 3.24489796,26.8731618 C3.18367347,27.0551471 3.12244898,27.2371324 3.06122449,27.4191176 C3,27.6011029 3,27.7830882 2.93877551,27.9650735 C2.93877551,27.9650735 2.93877551,27.9650735 2.93877551,27.9650735 C5.08163265,27.7224265 6.97959184,26.8731618 8.57142857,25.5992647 C7.59183673,24.9926471 6.79591837,24.2040441 6.06122449,23.2941176 Z" id="Shape" fill="#C02126" fill-rule="nonzero"></path>
                <path d="M4.71428571,9.58455882 C4.65306122,9.52389706 4.59183673,9.52389706 4.53061224,9.46323529 C4.46938776,9.46323529 4.46938776,9.40257353 4.40816327,9.40257353 C4.10204082,9.22058824 3.73469388,9.09926471 3.36734694,8.97794118 C3.36734694,8.97794118 3.30612245,8.97794118 3.30612245,8.97794118 C3.24489796,8.97794118 3.12244898,8.91727941 3.06122449,8.91727941 C3,8.91727941 2.93877551,8.91727941 2.87755102,8.85661765 C2.75510204,8.85661765 2.63265306,8.79595588 2.51020408,8.79595588 C2.51020408,8.79595588 2.51020408,8.79595588 2.51020408,8.79595588 C2.3877551,8.79595588 2.26530612,8.73529412 2.14285714,8.73529412 C2.14285714,8.73529412 2.14285714,8.73529412 2.14285714,8.73529412 C2.02040816,8.73529412 1.89795918,8.73529412 1.7755102,8.73529412 C1.7755102,8.73529412 1.71428571,8.73529412 1.71428571,8.73529412 C1.59183673,8.73529412 1.46938776,8.73529412 1.34693878,8.73529412 C0.979591837,8.73529412 0.612244898,8.73529412 0.244897959,8.79595588 C0.244897959,8.79595588 0.244897959,8.79595588 0.244897959,8.79595588 C1.16326531,10.6764706 2.57142857,12.2536765 4.2244898,13.40625 C4.59183673,12.3143382 5.08163265,11.2830882 5.75510204,10.3125 C5.44897959,10.0698529 5.08163265,9.76654412 4.71428571,9.58455882 Z" id="Shape" fill="url(#linearGradient-12)" fill-rule="nonzero"></path>
            </g>
            <g id="Group" transform="translate(30.000000, 20.000000)" fill="#898079" fill-rule="nonzero">
                <path d="M0.182667526,19.8125 L0.182667526,5.625 L2.86179124,5.625 L3.28801546,7.4375 C4.87113402,6.25 6.45425258,5.625 8.03737113,5.625 C9.80315722,5.625 11.0209407,6.25 11.7516108,7.5625 C13.5173969,6.25 15.1614046,5.625 16.683634,5.625 C19.6063144,5.625 21.0676546,7.4375 21.0676546,11 L21.0676546,19.8125 L17.5969716,19.8125 L17.5969716,10.875 C17.5969716,9.3125 16.9271907,8.5 15.648518,8.5 C14.6134021,8.5 13.5173969,9.125 12.4213918,10.3125 L12.4213918,19.75 L8.95070876,19.75 L8.95070876,10.875 C8.95070876,9.25 8.28092784,8.5 7.00225515,8.5 C5.90625,8.5 4.81024485,9.125 3.71423969,10.3125 L3.71423969,19.75 L0.182667526,19.75 L0.182667526,19.8125 Z" id="Shape"></path>
                <path d="M37.2032861,5.625 L37.2032861,19.8125 L34.4632732,19.8125 L34.037049,18 C32.3321521,19.1875 30.6881443,19.8125 28.9832474,19.8125 C25.8170103,19.8125 24.2338918,18.0625 24.2338918,14.5625 L24.2338918,5.625 L27.7045747,5.625 L27.7045747,14.5625 C27.7045747,16.125 28.4352448,16.9375 29.9574742,16.9375 C31.1752577,16.9375 32.3930412,16.3125 33.6717139,15.125 L33.6717139,5.625 L37.2032861,5.625 Z" id="Shape"></path>
                <polygon id="Shape" points="44.0837629 0.5 44.0837629 19.8125 40.6130799 19.8125 40.6130799 0.5"></polygon>
                <path d="M47.4326675,3.3125 L49.9900129,3.3125 L50.5380155,5.625 L53.7651418,5.625 L53.7651418,8.4375 L50.9642397,8.4375 L50.9642397,15 C50.9642397,16.3125 51.5122423,17 52.6082474,17 L53.7651418,17 L53.7651418,19.8125 L50.9033505,19.8125 C48.5895619,19.8125 47.4326675,18.5625 47.4326675,16 L47.4326675,3.3125 Z" id="Shape"></path>
                <path d="M60.0367268,0.5 L60.0367268,3.3125 L56.5660438,3.3125 L56.5660438,0.5 L60.0367268,0.5 Z M60.0367268,5.625 L60.0367268,19.8125 L56.5660438,19.8125 L56.5660438,5.625 L60.0367268,5.625 Z" id="Shape"></path>
                <polygon id="Shape" points="66.9172036 0.5 66.9172036 19.8125 63.4465206 19.8125 63.4465206 0.5"></polygon>
                <path d="M82.1394974,14.125 L73.0670103,14.125 C73.0670103,16.0625 74.5892397,17 77.6336985,17 C79.0341495,17 80.4346005,16.875 81.8350515,16.625 L81.8350515,19.4375 C80.617268,19.6875 79.0341495,19.8125 77.1465851,19.8125 C72.1536727,19.8125 69.6572165,17.375 69.6572165,12.5625 C69.6572165,7.9375 71.9710052,5.625 76.5376933,5.625 C81.0434923,5.625 82.9310567,8.4375 82.1394974,14.125 Z M73.0670103,11.5 L78.851482,11.5 C78.9732603,9.4375 78.0599227,8.4375 76.1114691,8.4375 C74.2239046,8.4375 73.2496778,9.4375 73.0670103,11.5 Z" id="Shape"></path>
                <path d="M84.2097294,15.375 C84.2097294,12.4375 86.2190722,11 90.1768686,11 C91.3946521,11 92.429768,11.0625 93.4039948,11.25 L93.4039948,10.3125 C93.4039948,9.0625 92.1862113,8.4375 89.8115335,8.4375 C88.2893041,8.4375 86.8279639,8.6875 85.3057345,9.125 L85.3057345,6.3125 C86.7670747,5.875 88.2893041,5.625 89.8115335,5.625 C94.5,5.625 96.8746778,7.1875 96.8746778,10.3125 L96.8746778,19.8125 L95.1088918,19.8125 L93.5866624,18.8125 C92.3688789,19.5 91.0902062,19.8125 89.7506443,19.8125 C86.0972938,19.8125 84.2097294,18.3125 84.2097294,15.375 Z M90.2377577,13.6875 C88.5328608,13.6875 87.7413015,14.25 87.7413015,15.3125 C87.7413015,16.375 88.4719716,16.9375 89.8724227,16.9375 C91.2728737,16.9375 92.4906572,16.5625 93.464884,15.8125 L93.464884,13.9375 C92.5515464,13.8125 91.5164304,13.6875 90.2377577,13.6875 Z" id="Shape"></path>
                <path d="M100.284472,19.125 L100.284472,16.125 C101.806701,16.75 103.572487,17.0625 105.58183,17.0625 C107.104059,17.0625 107.834729,16.5625 107.834729,15.5625 C107.834729,14.6875 107.347616,14.1875 106.3125,14.1875 L103.816044,14.1875 C101.015142,14.1875 99.6146907,12.75 99.6146907,9.875 C99.6146907,6.875 101.684923,5.4375 105.764497,5.4375 C107.530284,5.4375 109.113402,5.6875 110.696521,6.25 L110.696521,9.25 C109.174291,8.625 107.469394,8.3125 105.703608,8.3125 C103.816044,8.3125 102.902706,8.8125 102.902706,9.8125 C102.902706,10.6875 103.450709,11.1875 104.546714,11.1875 L106.799613,11.1875 C109.844072,11.1875 111.427191,12.625 111.427191,15.5 C111.427191,18.5 109.478737,19.9375 105.58183,19.9375 C103.572487,19.9375 101.806701,19.6875 100.284472,19.125 Z" id="Shape"></path>
                <path d="M125.736147,14.125 L116.724549,14.125 C116.724549,16.0625 118.246778,17 121.291237,17 C122.691688,17 124.092139,16.875 125.49259,16.625 L125.49259,19.4375 C124.274807,19.6875 122.691688,19.8125 120.804124,19.8125 C115.811211,19.8125 113.314755,17.375 113.314755,12.5625 C113.314755,7.9375 115.628544,5.625 120.195232,5.625 C124.701031,5.625 126.588595,8.4375 125.736147,14.125 Z M116.724549,11.5 L122.509021,11.5 C122.630799,9.4375 121.717461,8.4375 119.769008,8.4375 C117.881443,8.4375 116.907216,9.4375 116.724549,11.5 Z" id="Shape"></path>
            </g>
        </g>
    </g>
</svg>