<?xml version="1.0" encoding="UTF-8" standalone="no"?>
<!-- Created with Inkscape (http://www.inkscape.org/) -->

<svg
   xmlns:dc="http://purl.org/dc/elements/1.1/"
   xmlns:cc="http://creativecommons.org/ns#"
   xmlns:rdf="http://www.w3.org/1999/02/22-rdf-syntax-ns#"
   xmlns:svg="http://www.w3.org/2000/svg"
   xmlns="http://www.w3.org/2000/svg"
   xmlns:sodipodi="http://sodipodi.sourceforge.net/DTD/sodipodi-0.dtd"
   xmlns:inkscape="http://www.inkscape.org/namespaces/inkscape"
   version="1.1"
   id="svg2"
   width="1935.36"
   height="507.84"
   viewBox="0 0 1935.36 507.84"
   sodipodi:docname="portaal.png"
   inkscape:version="0.92.3 (2405546, 2018-03-11)">
  <metadata
     id="metadata8">
    <rdf:RDF>
      <cc:Work
         rdf:about="">
        <dc:format>image/svg+xml</dc:format>
        <dc:type
           rdf:resource="http://purl.org/dc/dcmitype/StillImage" />
        <dc:title></dc:title>
      </cc:Work>
    </rdf:RDF>
  </metadata>
  <defs
     id="defs6" />
  <sodipodi:namedview
     pagecolor="#ffffff"
     bordercolor="#666666"
     borderopacity="1"
     objecttolerance="10"
     gridtolerance="10"
     guidetolerance="10"
     inkscape:pageopacity="0"
     inkscape:pageshadow="2"
     inkscape:window-width="1920"
     inkscape:window-height="988"
     id="namedview4"
     showgrid="false"
     inkscape:zoom="0.55096573"
     inkscape:cx="987.35767"
     inkscape:cy="383.10731"
     inkscape:window-x="0"
     inkscape:window-y="27"
     inkscape:window-maximized="1"
     inkscape:current-layer="svg2" />
  <g
     id="g827">
    <path
       style="fill:#e45a1e;stroke-width:0.95999998"
       d="m 1655.04,474.73784 v -33.12953 l 107.28,-0.24415 107.28,-0.24416 0.48,-61.44 0.48,-61.44 32.4,-0.28326 32.4,-0.28326 v 83.37477 83.37477 l -2.4382,4.89288 c -2.9562,5.93235 -10.4071,13.11258 -16.5533,15.952 l -4.5285,2.0921 -128.4,0.25368 -128.4,0.25369 z M 132.94497,252.48 c 0,-64.68 0.1147,-91.14 0.2549,-58.8 0.14018,32.34 0.14018,85.26 0,117.6 -0.1402,32.34 -0.2549,5.88 -0.2549,-58.8 z M 1741.68,318.00109 c 10.956,-0.15402 28.884,-0.15402 39.84,0 10.956,0.15403 1.992,0.28006 -19.92,0.28006 -21.912,0 -30.876,-0.12603 -19.92,-0.28006 z M 231.18,295.02421 c 0.693,-0.27731 1.521,-0.24321 1.84,0.0758 0.319,0.319 -0.248,0.54589 -1.26,0.50421 -1.11835,-0.0461 -1.34582,-0.27354 -0.58,-0.57999 z M 355.49748,255.84 c 0.006,-3.168 0.1846,-4.34826 0.39826,-2.62281 0.21366,1.72546 0.20925,4.31746 -0.01,5.76 -0.21905,1.44255 -0.39386,0.0308 -0.38847,-3.13719 z m 383.01148,-8.86682 c 2.52394,-0.19841 6.41194,-0.19601 8.64,0.006 2.22808,0.20133 0.16304,0.36367 -4.58896,0.36074 -4.752,-0.003 -6.57496,-0.16765 -4.05104,-0.36606 z M 2.5444691,189.28562 c -1.5152552,-0.29298 -1.60819367,-5.91338 -1.3652064,-82.56 L 1.44,24.48 3.546342,19.919269 C 6.4973218,13.529698 14.440735,5.4541957 20.446277,2.7383104 L 25.44,0.48 153.84,0.2263153 282.24,-0.02736942 V 33.10216 66.23169 L 174.96,66.475845 67.68,66.72 l -0.247106,61.2 c -0.135908,33.66 -0.567908,61.20359 -0.96,61.20797 -27.174758,0.30378 -62.7193315,0.39143 -63.9284249,0.15765 z M 1073.7012,163.2 c 0,-14.52 0.1334,-20.46 0.2965,-13.2 0.163,7.26 0.163,19.14 0,26.4 -0.1631,7.26 -0.2965,1.32 -0.2965,-13.2 z M 738.96,183.6425 c 1.188,-0.22883 3.132,-0.22883 4.32,0 1.188,0.22882 0.216,0.41603 -2.16,0.41603 -2.376,0 -3.348,-0.18721 -2.16,-0.41603 z m 334.32,-48.59723 c 0,-1.4722 -6.4354,-1.61398 -83.76,-1.84534 l -83.76,-0.25061 83.79014,-0.23466 c 74.77646,-0.20941 83.85126,-0.0753 84.35856,1.24674 0.3127,0.81478 0.2991,1.75078 -0.03,2.08 -0.3291,0.32923 -0.5985,-0.11903 -0.5985,-0.99613 z m -915.05364,-2.32461 c 12.84051,-0.1513 33.57651,-0.15115 46.08,3.5e-4 12.50351,0.15149 1.99764,0.27529 -23.34636,0.2751 -25.344,-1.9e-4 -35.57413,-0.12414 -22.73364,-0.27545 z m 535.61364,2.2e-4 c 12.276,-0.15195 32.364,-0.15195 44.64,0 12.276,0.15195 2.232,0.27627 -22.32,0.27627 -24.552,0 -34.596,-0.12432 -22.32,-0.27627 z m 507.36,2.1e-4 c 10.956,-0.15402 28.884,-0.15402 39.84,0 10.956,0.15403 1.992,0.28006 -19.92,0.28006 -21.912,0 -30.876,-0.12603 -19.92,-0.28006 z m 275.04,3e-4 c 9.636,-0.15658 25.404,-0.15658 35.04,0 9.636,0.15659 1.752,0.2847 -17.52,0.2847 -19.272,0 -27.156,-0.12811 -17.52,-0.2847 z m 55.74,0.0628 c 0.693,-0.27732 1.521,-0.24322 1.84,0.0757 0.319,0.319 -0.248,0.54589 -1.26,0.50421 -1.1184,-0.0461 -1.3458,-0.27354 -0.58,-0.57999 z m 140.5186,-0.0623 c 8.8102,-0.15827 23.4982,-0.15856 32.64,-6.3e-4 9.1418,0.15793 1.9334,0.28743 -16.0186,0.28778 -17.952,3.4e-4 -25.4316,-0.12887 -16.6214,-0.28715 z"
       id="path821"
       inkscape:connector-curvature="0" />
    <path
       style="fill:#182653;stroke-width:0.95999998"
       d="m 463.68,381.04675 c -40.89975,-6.19015 -77.8489,-33.74749 -95.52642,-71.24535 -8.72629,-18.51033 -11.9721,-33.10751 -12.03092,-54.10585 -0.0467,-16.65939 1.55148,-27.18751 6.26931,-41.30018 15.03861,-44.98567 53.18453,-77.4391 100.27819,-85.31372 7.82799,-1.30893 13.22056,-1.54626 25.39416,-1.11759 20.85309,0.73433 34.09649,4.03347 51.92104,12.93439 34.46839,17.21223 59.04642,48.60451 67.81883,86.62155 2.82011,12.22156 3.46829,34.40052 1.37712,47.12128 -3.02656,18.41071 -10.56704,37.35839 -20.93599,52.60782 -6.48303,9.53446 -23.28944,26.3716 -32.41996,32.47922 -15.66498,10.47868 -33.88931,17.9089 -51.23111,20.88737 -9.16267,1.5737 -31.78945,1.81209 -40.91425,0.43106 z m 42.12896,-63.18925 c 19.0228,-6.94246 34.49003,-22.46354 40.91386,-41.05628 9.78387,-28.31783 -0.0451,-59.58116 -24.13695,-76.77269 -28.16957,-20.10139 -64.98662,-16.38524 -88.64448,8.94736 -30.75477,32.93192 -20.83575,86.36471 19.65861,105.899 9.06617,4.37348 13.94439,5.77032 23.04,6.59731 9.95653,0.90526 20.29418,-0.37581 29.16896,-3.6147 z M 133.44,254.4 V 133.44 l 53.04,0.0297 c 64.14756,0.0358 71.08621,0.71962 87.6,8.6326 17.64735,8.45616 31.28452,25.88459 37.16541,47.49776 2.84593,10.4592 3.11818,40.61996 0.45495,50.4 -6.07555,22.31094 -17.60553,37.73482 -34.36651,45.97279 -14.68867,7.21942 -19.43436,7.99863 -52.69385,8.65201 l -29.28,0.57518 -0.25053,40.08 -0.25053,40.08 H 164.14947 133.44 Z m 97.44,-14.82999 c 12.68992,-3.38769 18.75108,-11.42108 18.89697,-25.04584 0.23356,-21.81341 -10.28706,-29.18784 -41.69697,-29.2275 l -13.2,-0.0167 v 28.45617 28.45616 L 210,241.65001 c 9.12058,-0.32713 17.4055,-1.15245 20.88,-2.08 z M 671.04,254.4133 V 133.44 l 45.84,-0.0993 c 57.53652,-0.12467 59.13472,-0.0881 70.94713,1.62057 18.28786,2.64543 32.07823,9.06856 43.07065,20.06098 14.39372,14.39372 21.88209,36.45545 20.25385,59.67049 -2.1939,31.27999 -17.49859,51.63734 -45.4605,60.46873 -5.14491,1.62494 -7.68984,2.87895 -7.28212,3.58823 0.75977,1.32175 27.85217,41.53116 49.12937,72.91576 8.52589,12.57599 15.50162,23.05199 15.50162,23.28 0,0.22801 -16.74,0.40682 -37.2,0.39735 l -37.2,-0.0172 -5.44978,-9.34276 c -2.99738,-5.13853 -15.41321,-26.38105 -27.59075,-47.20561 L 733.45848,280.91435 733.20924,327.89717 732.96,374.88 702,375.1333 l -30.96,0.2533 z m 84.09844,-7.6424 c 15.32172,-1.76202 23.52597,-6.24206 27.95785,-15.26676 2.34404,-4.7732 2.66371,-6.51861 2.66371,-14.54414 0,-11.81829 -1.59193,-17.13357 -6.89958,-23.03696 -6.68876,-7.43952 -17.5604,-10.36546 -37.74042,-10.15731 l -7.2,0.0743 -0.25294,31.92 -0.25294,31.92 6.97294,-0.008 c 3.83511,-0.004 10.47323,-0.40983 14.75138,-0.90182 z M 953.92,374.72 c -0.352,-0.352 -0.64,-42.04 -0.64,-92.64 v -92 H 926.4 899.52 v -28.21729 c 0,-30.11361 -0.11932,-29.39648 4.8,-28.84955 1.32,0.14676 39.876,0.30284 85.68,0.34684 l 83.28,0.08 v 28.32 28.32 h -26.88 -26.88 v 92.64 92.64 h -32.47997 c -17.86406,0 -32.76803,-0.288 -33.12003,-0.64 z m 140.48,0.24116 c 0,-0.36352 15.5459,-45.56783 34.0331,-98.96116 4.0219,-11.616 16.6825,-48.2777 28.1347,-81.47045 14.9245,-43.25718 21.2881,-60.52309 22.4673,-60.96 0.9048,-0.33525 19.7082,-0.48635 41.7851,-0.33578 l 40.1398,0.27377 27.6884,80.36623 c 15.2287,44.20143 33.8998,98.29423 41.4914,120.20623 7.5917,21.912 13.8158,40.16967 13.8316,40.5726 0.015,0.40294 -14.7528,0.61894 -32.819,0.48 l -32.8478,-0.2526 -4.8975,-15.36 c -2.6936,-8.448 -15.8734,-50.00273 -29.2885,-92.34385 -13.415,-42.34112 -24.4949,-76.87985 -24.6221,-76.75273 -0.1271,0.12711 -13.4268,41.40723 -29.5549,91.73358 -16.1282,50.32636 -29.5604,91.88508 -29.8494,92.35273 -0.5055,0.81791 -65.6922,1.26585 -65.6922,0.45143 z m 274.56,-0.0594 c 0,-0.26593 6.4448,-19.1716 14.3218,-42.0126 51.8473,-150.34212 68.4551,-198.10167 69.1248,-198.78458 0.962,-0.9811 81.7982,-0.9335 82.7427,0.0487 0.6207,0.64547 83.4107,239.62384 83.4107,240.77002 0,0.25407 -14.7898,0.34829 -32.8661,0.20936 l -32.8661,-0.2526 -15.418,-48.48 c -8.48,-26.664 -21.6523,-68.21801 -29.2717,-92.34226 -7.6195,-24.12424 -13.9698,-43.74603 -14.1119,-43.60399 -0.142,0.14204 -11.8836,36.51205 -26.0924,80.82225 -14.2089,44.3102 -27.517,85.748 -29.5738,92.084 l -3.7395,11.52 -32.8302,0.2526 c -18.0567,0.13894 -32.8303,0.035 -32.8303,-0.2309 z m 286.7259,-0.17577 c -0.6838,-0.6838 -0.9292,-240.68202 -0.2467,-241.36592 0.2194,-0.22 15.1213,-0.28088 33.1152,-0.1353 l 32.716,0.26471 0.2448,92.37529 0.2448,92.3753 39.84,0.22473 c 21.912,0.12361 40.3865,0.23161 41.0545,0.24 0.9572,0.012 1.1605,5.96465 0.96,28.09527 l -0.2545,28.08 -73.5141,0.24592 c -40.4327,0.13526 -73.8047,-0.0447 -74.16,-0.4 z"
       id="path819"
       inkscape:connector-curvature="0" />
  </g>
</svg>
