<?xml version="1.0" encoding="UTF-8" standalone="no"?>
<!-- Generator: Adobe Illustrator 23.0.1, SVG Export Plug-In . SVG Version: 6.00 Build 0)  -->

<svg
   xmlns:dc="http://purl.org/dc/elements/1.1/"
   xmlns:cc="http://creativecommons.org/ns#"
   xmlns:rdf="http://www.w3.org/1999/02/22-rdf-syntax-ns#"
   xmlns:svg="http://www.w3.org/2000/svg"
   xmlns="http://www.w3.org/2000/svg"
   xmlns:sodipodi="http://sodipodi.sourceforge.net/DTD/sodipodi-0.dtd"
   xmlns:inkscape="http://www.inkscape.org/namespaces/inkscape"
   version="1.1"
   id="Layer_1"
   x="0px"
   y="0px"
   viewBox="0 0 156.7 56.199998"
   xml:space="preserve"
   sodipodi:docname="railtraxx.svg"
   width="156.7"
   height="56.200001"
   inkscape:version="0.92.3 (2405546, 2018-03-11)"><metadata
   id="metadata37"><rdf:RDF><cc:Work
       rdf:about=""><dc:format>image/svg+xml</dc:format><dc:type
         rdf:resource="http://purl.org/dc/dcmitype/StillImage" /><dc:title>RTXX0002_Rebranding_Website_Graphics_01-03</dc:title></cc:Work></rdf:RDF></metadata><defs
   id="defs35" /><sodipodi:namedview
   pagecolor="#ffffff"
   bordercolor="#666666"
   borderopacity="1"
   objecttolerance="10"
   gridtolerance="10"
   guidetolerance="10"
   inkscape:pageopacity="0"
   inkscape:pageshadow="2"
   inkscape:window-width="1920"
   inkscape:window-height="988"
   id="namedview33"
   showgrid="false"
   fit-margin-top="0"
   fit-margin-left="0"
   fit-margin-right="0"
   fit-margin-bottom="0"
   inkscape:zoom="2.7914058"
   inkscape:cx="142.35314"
   inkscape:cy="90.034499"
   inkscape:window-x="0"
   inkscape:window-y="27"
   inkscape:window-maximized="1"
   inkscape:current-layer="Layer_1" />
<style
   type="text/css"
   id="style2">
	.st0{fill:#FFFFFF;}
</style>
<title
   id="title4">RTXX0002_Rebranding_Website_Graphics_01-03</title>
<desc
   id="desc6">Created with Sketch.</desc>
<g
   id="g30"
   style="fill:#1a1a1a"
   transform="translate(-1.1,-12.4)">
	<path
   class="st0"
   d="M 157.8,43.9 H 1.1 V 12.4 H 157.8 Z M 2.3,42.8 H 156.7 V 13.5 H 2.3 Z"
   id="path8"
   style="fill:#1a1a1a"
   inkscape:connector-curvature="0" />
	<g
   id="g28"
   style="fill:#1a1a1a">
		<path
   class="st0"
   d="M 18.9,39 14.5,31 H 11 v 8 H 6.2 V 16.5 h 10.5 c 4.7,0 7.6,3.1 7.6,7.3 0,4 -2.5,6.1 -4.9,6.7 l 5.1,8.6 h -5.6 z m 0.4,-15.3 c 0,-1.9 -1.5,-3 -3.3,-3 h -5.1 v 6.1 H 16 c 1.9,0 3.3,-1.2 3.3,-3.1 z"
   id="path10"
   style="fill:#1a1a1a"
   inkscape:connector-curvature="0" />
		<path
   class="st0"
   d="M 42.5,39 41.1,35.2 H 31.5 L 30,39 h -5.4 l 8.7,-22.5 h 6 L 47.9,39 Z M 36.3,21.3 32.8,31 h 7 z"
   id="path12"
   style="fill:#1a1a1a"
   inkscape:connector-curvature="0" />
		<path
   class="st0"
   d="M 49.2,39 V 16.5 H 54 V 39 Z"
   id="path14"
   style="fill:#1a1a1a"
   inkscape:connector-curvature="0" />
		<path
   class="st0"
   d="M 57.4,39 V 16.5 h 4.8 v 18.3 h 9.5 V 39 Z"
   id="path16"
   style="fill:#1a1a1a"
   inkscape:connector-curvature="0" />
		<path
   class="st0"
   d="M 75.9,39 V 20.7 h -6.6 v -4.2 h 17.9 v 4.2 H 80.7 V 39 Z"
   id="path18"
   style="fill:#1a1a1a"
   inkscape:connector-curvature="0" />
		<path
   class="st0"
   d="m 102.2,39 -4.4,-8 h -3.5 v 8 H 89.5 V 16.5 H 100 c 4.7,0 7.6,3.1 7.6,7.3 0,4 -2.5,6.1 -4.9,6.7 l 5.1,8.6 h -5.6 z m 0.5,-15.3 c 0,-1.9 -1.5,-3 -3.3,-3 h -5.1 v 6.1 h 5.1 c 1.8,0 3.3,-1.2 3.3,-3.1 z"
   id="path20"
   style="fill:#1a1a1a"
   inkscape:connector-curvature="0" />
		<path
   class="st0"
   d="m 125.8,39 -1.4,-3.8 h -9.6 L 113.4,39 H 108 l 8.7,-22.5 h 6 l 8.7,22.5 z m -6.2,-17.7 -3.5,9.7 h 7 z"
   id="path22"
   style="fill:#1a1a1a"
   inkscape:connector-curvature="0" />
		<path
   class="st0"
   d="M 139.6,39 134,30.8 109.2,68.6 h -5.7 l 27.3,-41.1 -7.7,-11 h 5.7 l 5.2,7.7 5.1,-7.7 h 5.8 l -7.7,10.9 8.2,11.6 z"
   id="path24"
   style="fill:#1a1a1a"
   inkscape:connector-curvature="0" />
		<path
   class="st0"
   d="m 147.2,39 -5.6,-8.2 -24.8,37.8 H 111 l 27.3,-41.1 -7.7,-11 h 5.7 l 5.2,7.7 5.1,-7.7 h 5.8 l -7.7,10.9 8.2,11.6 z"
   id="path26"
   style="fill:#1a1a1a"
   inkscape:connector-curvature="0" />
	</g>
</g>
</svg>