<svg xmlns="http://www.w3.org/2000/svg" viewBox="0 0 319.93 108.05">
    <title>Reclassering Nederland</title>
    <path style="fill:#0d1f47" d="M73.31,63.57l-5.26-7.74h-.17v7.74H64.26V44.85c1.46-.1,3.28-.13,5.43-.13,4.14,0,6.82,1.46,6.82,5.27a5.18,5.18,0,0,1-4.75,5.2c.52.7,1,1.44,1.47,2.07l4.57,6.31M69.35,47.69a10,10,0,0,0-1.47.06v5.41a12.53,12.53,0,0,0,1.29.07c2.25,0,3.54-1.14,3.54-2.87s-1.12-2.67-3.36-2.67" transform="translate(-23.07 -23.23)"></path>
    <path style="fill:#0d1f47" d="M91,57.23H82.37c0,2.57,1.29,3.83,3.79,3.83a9.79,9.79,0,0,0,4.06-.86l.34,2.74a13.35,13.35,0,0,1-4.91.9c-4.49,0-6.9-2.21-6.9-7,0-4.21,2.33-7.31,6.46-7.31s5.87,2.74,5.87,6.14a10.15,10.15,0,0,1-.09,1.6m-5.86-5.14a2.71,2.71,0,0,0-2.67,2.74h5.08a2.31,2.31,0,0,0-2.41-2.74" transform="translate(-23.07 -23.23)"></path>
    <path style="fill:#0d1f47" d="M99.36,63.8c-3.88,0-6.3-2-6.3-6.67,0-4.31,2.33-7.61,7.25-7.61a10.25,10.25,0,0,1,2.84.4L102.81,53a7.85,7.85,0,0,0-2.59-.5c-2.24,0-3.36,1.67-3.36,4.27,0,2.37,1,4,3.28,4a6.26,6.26,0,0,0,2.75-.6l.26,3a10.93,10.93,0,0,1-3.79.63" transform="translate(-23.07 -23.23)"></path>
    <rect style="fill:#0d1f47" x="82.93" y="20.12" width="3.54" height="20.22"></rect>
    <path style="fill:#0d1f47" d="M203.11,70.44a17.76,17.76,0,0,1-4.22-.5l.34-3.3a11.32,11.32,0,0,0,4.05.8c2.68,0,4-.93,4-3.44v-.73a8.2,8.2,0,0,1,.17-2h-.08a4.31,4.31,0,0,1-4.06,2.57c-3.36,0-5.17-2.24-5.17-6.44,0-4.64,2.67-7.88,7.59-7.88a29.5,29.5,0,0,1,5.09.43V64c0,3.21-1.47,6.44-7.68,6.44m4.14-17.88a8.21,8.21,0,0,0-1.9-.2c-2.07,0-3.45,1.23-3.45,4.67,0,2.57.69,3.87,2.33,3.87,1.9,0,3-2.14,3-4.57Z" transform="translate(-23.07 -23.23)"></path>
    <path style="fill:#0d1f47" d="M233.55,63.57l-8.27-13.11A27.26,27.26,0,0,1,223,46.69c.09,2.23.18,7.87.18,11.34v5.54h-1.82V44.85h2.51l8.19,12.85a41.36,41.36,0,0,1,2.33,3.9c-.09-2.64-.17-8.14-.17-11.78v-5h1.8V63.57" transform="translate(-23.07 -23.23)"></path>
    <path style="fill:#0d1f47" d="M251.32,56h-9.48c-.18,4.44,1.55,6.27,4.82,6.27a10,10,0,0,0,4.06-.87L250.8,63a11.88,11.88,0,0,1-4.48.8c-4.14,0-6.3-2.2-6.3-7.07,0-4.11,2.25-7.15,5.95-7.15s5.35,2.57,5.35,5.55V56m-5.43-5.14c-2.07,0-3.54,1.47-3.88,3.77h7.5a3.47,3.47,0,0,0-3.62-3.77" transform="translate(-23.07 -23.23)"></path>
    <path style="fill:#0d1f47" d="M263.83,63.57a18.58,18.58,0,0,1,.26-3.17l-.09,0a5,5,0,0,1-4.83,3.4c-3.45,0-5.09-2.47-5.09-6.48,0-5,2.76-7.67,7.07-7.67a21.23,21.23,0,0,1,2.76.17V43.31h1.73V63.57m-1.73-12.21A13.42,13.42,0,0,0,261,51c-3.1,0-5.09,1.8-5.09,6.14,0,3.27,1.12,5.24,3.62,5.24,2.94,0,4.4-3.47,4.4-5.94Z" transform="translate(-23.07 -23.23)"></path>
    <path style="fill:#0d1f47" d="M280.9,56h-9.4c-.17,4.44,1.55,6.27,4.75,6.27a10,10,0,0,0,4.05-.87l.17,1.54a12.23,12.23,0,0,1-4.48.8c-4.14,0-6.39-2.2-6.39-7.07,0-4.11,2.25-7.15,6-7.15S281,52.12,281,55.1a4.08,4.08,0,0,1-.09.93m-5.43-5.14c-2.07,0-3.45,1.47-3.88,3.77h7.5a3.38,3.38,0,0,0-3.62-3.77" transform="translate(-23.07 -23.23)"></path>
    <path style="fill:#0d1f47" d="M291.51,51.26c-3.19-.5-4.66,2-4.66,6.8v5.51H285V49.79h1.81a18.57,18.57,0,0,1-.34,3.6c.6-2,2-4.2,5.09-3.84" transform="translate(-23.07 -23.23)"></path>
    <rect style="fill:#0d1f47" x="271.89" y="20.12" width="1.73" height="20.22"></rect>
    <path style="fill:#0d1f47" d="M309.45,63.57c0-1.13.09-2.24.17-3v0a5.22,5.22,0,0,1-5,3.27c-2.07,0-3.71-1.07-3.71-3.27,0-2.81,2.93-4.81,8.54-4.81V54.46c0-2.24-.78-3.5-3.28-3.5a8.58,8.58,0,0,0-4.31,1.23l-.17-1.57a11,11,0,0,1,4.83-1.06c3.62,0,4.66,1.86,4.66,4.43V59.3c0,1.4.08,3,.08,4.27M309.45,57c-5.61,0-6.73,1.77-6.73,3.1a2.13,2.13,0,0,0,2.33,2.2c2.67,0,4.4-2.6,4.4-5.14Z" transform="translate(-23.07 -23.23)"></path>
    <path style="fill:#0d1f47" d="M325.66,63.57v-9c0-2.3-.69-3.63-2.84-3.63-2.59,0-4.49,2.53-4.49,6v6.61h-1.72V49.79h1.81a19.37,19.37,0,0,1-.26,3.17v0a5.18,5.18,0,0,1,5.09-3.47c3.19,0,4.14,2,4.14,4.44v9.61" transform="translate(-23.07 -23.23)"></path>
    <path style="fill:#0d1f47" d="M341.19,63.57a18.58,18.58,0,0,1,.26-3.17l-.09,0a5.07,5.07,0,0,1-4.83,3.4c-3.45,0-5.17-2.47-5.17-6.48,0-5,2.84-7.67,7.07-7.67a20.53,20.53,0,0,1,2.76.17V43.31H343V63.57m-1.81-12.21a12.34,12.34,0,0,0-2.94-.37c-3,0-5,1.8-5,6.14,0,3.27,1.12,5.24,3.54,5.24,3,0,4.4-3.47,4.4-5.94Z" transform="translate(-23.07 -23.23)"></path>
    <path style="fill:#0d1f47" d="M120.83,63.57a9.67,9.67,0,0,1,.18-2.34l-.09,0a4.61,4.61,0,0,1-4.4,2.64c-2.5,0-4-1.44-4-3.64,0-3.3,3.27-5,8-5v-.77c0-1.43-.69-2.17-2.76-2.17a8.88,8.88,0,0,0-4.06,1.07l-.34-3a15.26,15.26,0,0,1,5-.83c4.48,0,5.69,1.77,5.69,4.77V60c0,1.1.09,2.4.09,3.57m-3.62-6.11c-3.8,0-4.66,1.07-4.66,2.17a1.44,1.44,0,0,0,1.64,1.47,3.18,3.18,0,0,0,3-3.3Z" transform="translate(-23.07 -23.23)"></path>
    <path style="fill:#0d1f47" d="M130.49,63.84a15.62,15.62,0,0,1-2.93-.27l.09-2.91a11.25,11.25,0,0,0,3,.44c1.29,0,2.24-.57,2.24-1.47,0-2.47-5.61-1.07-5.61-5.74,0-2.43,2-4.4,5.87-4.4a18.41,18.41,0,0,1,2.58.23l-.17,2.8a9.51,9.51,0,0,0-2.58-.36c-1.38,0-2.08.57-2.08,1.4,0,2.27,5.78,1.27,5.78,5.74,0,2.7-2.41,4.54-6.21,4.54" transform="translate(-23.07 -23.23)"></path>
    <path style="fill:#0d1f47" d="M142.14,63.84a15.73,15.73,0,0,1-2.94-.27l.09-2.91a11.31,11.31,0,0,0,3,.44c1.38,0,2.24-.57,2.24-1.47,0-2.47-5.61-1.07-5.61-5.74,0-2.43,2-4.4,5.87-4.4a17.43,17.43,0,0,1,2.59.23l-.17,2.8a9,9,0,0,0-2.51-.36c-1.46,0-2.07.57-2.07,1.4,0,2.27,5.7,1.27,5.7,5.74,0,2.7-2.42,4.54-6.21,4.54" transform="translate(-23.07 -23.23)"></path>
    <path style="fill:#0d1f47" d="M162.66,57.23H154c0,2.57,1.21,3.83,3.79,3.83a9.79,9.79,0,0,0,4.06-.86l.34,2.74a13.49,13.49,0,0,1-5,.9c-4.4,0-6.81-2.21-6.81-7,0-4.21,2.32-7.31,6.47-7.31s5.86,2.74,5.86,6.14a10.15,10.15,0,0,1-.09,1.6m-5.86-5.14A2.85,2.85,0,0,0,154,54.83h5.17c0-1.74-1-2.74-2.41-2.74" transform="translate(-23.07 -23.23)"></path>
    <path style="fill:#0d1f47" d="M173.18,53c-2.58-.54-3.88,1.13-3.88,5v5.64h-3.53V49.79h3.36a18.17,18.17,0,0,1-.26,2.77H169a4.1,4.1,0,0,1,4.4-3.07" transform="translate(-23.07 -23.23)"></path>
    <path style="fill:#0d1f47" d="M177.41,48a2.13,2.13,0,1,1,2.24-2.13A2.14,2.14,0,0,1,177.41,48m-1.72,1.81h3.53V63.57h-3.53Z" transform="translate(-23.07 -23.23)"></path>
    <path style="fill:#0d1f47" d="M191.64,63.57V54.73c0-1.44-.43-2.31-1.72-2.31-1.82,0-3.28,2.07-3.28,4.47v6.68H183.1V49.79h3.37a11.52,11.52,0,0,1-.18,2.43v0A5.17,5.17,0,0,1,191,49.49c3.1,0,4.14,2,4.14,4.4v9.68" transform="translate(-23.07 -23.23)"></path>
    <rect style="fill:#c10d31" y="81.05" width="27" height="27"></rect>
    <rect style="fill:#c10d31" y="40.54" width="27" height="27"></rect>
    <rect style="fill:#c10d31" width="27" height="27"></rect>
</svg>