<?xml version="1.0" encoding="UTF-8"?>
<svg width="176px" height="124px" viewBox="0 0 176 124" version="1.1" xmlns="http://www.w3.org/2000/svg" xmlns:xlink="http://www.w3.org/1999/xlink">
    <!-- Generator: Sketch 43 (38999) - http://www.bohemiancoding.com/sketch -->
    <title>logo-zet</title>
    <desc>Created with Sketch.</desc>
    <defs>
        <polygon id="path-1" points="0.272788166 0.474727972 9.1284085 0.474727972 9.1284085 7.79417486 0.272788166 7.79417486 0.272788166 0.474727972"></polygon>
    </defs>
    <g id="Page-1" stroke="none" stroke-width="1" fill="none" fill-rule="evenodd">
        <g id="Artboard" transform="translate(-147.000000, -161.000000)">
            <g id="logo-zet" transform="translate(147.000000, 161.000000)">
                <path d="M7.67667743,-1.77635684e-15 C2.74388874,10.9891379 0,23.1741342 0,36 C0,84.601058 39.398942,124 88,124 C136.601058,124 176,84.601058 176,36 C176,23.1741342 173.256111,10.9891379 168.323323,7.10542736e-15 L7.67666127,1.42108547e-14 Z" id="Combined-Shape" fill="#FFFFFF"></path>
                <g id="Page-1" transform="translate(38.000000, 24.000000)">
                    <g id="Group-20" transform="translate(7.175938, 58.995552)" fill="#75B847">
                        <path d="M3.37299851,6.01472066 L3.37299851,3.6079843 C3.37299851,3.14256472 3.29918886,2.7945343 3.15105699,2.56182451 C3.00292512,2.32963185 2.73997824,2.21327696 2.36170378,2.21327696 C2.02699752,2.21327696 1.74867363,2.30015528 1.52673211,2.47442906 C1.3047906,2.64870283 1.14948279,2.87210423 1.06183383,3.14256472 L1.06183383,6.01472066 L0.305284915,6.01472066 L0.305284915,1.65735913 L0.83169124,1.65735913 L0.979310541,2.23809934 L1.05363276,2.23809934 C1.21252853,2.03952031 1.41960561,1.87196927 1.67435141,1.73699759 C1.92960979,1.60099164 2.23509973,1.53324724 2.59184637,1.53324724 C2.84402935,1.53324724 3.06597086,1.56272381 3.25818349,1.62064269 C3.44988356,1.67804444 3.61031703,1.78043675 3.73897136,1.92730248 C3.86813824,2.07416822 3.96552598,2.27067871 4.03113455,2.51631682 C4.09674313,2.7629892 4.13005999,3.07378605 4.13005999,3.45025878 L4.13005999,6.01472066 L3.37299851,6.01472066 Z" id="Fill-1"></path>
                        <path d="M5.3221371,1.93169811 C5.81573913,1.69381699 6.42723158,1.57487643 7.15610188,1.57487643 C7.48568247,1.57487643 7.74965449,1.61779846 7.95006819,1.70364252 C8.15048189,1.78896944 8.30527713,1.89860161 8.41496647,2.03047049 C8.52465581,2.16389077 8.59692776,2.31179077 8.63280745,2.47520476 C8.66868715,2.63861874 8.68611442,2.80048133 8.68611442,2.96079252 C8.68611442,3.26486664 8.67535052,3.57049217 8.65331014,3.87766909 C8.63126975,4.18432888 8.62050585,4.51787958 8.62050585,4.87676979 C8.62050585,5.08776 8.62973205,5.29151035 8.64972217,5.48750371 C8.66868715,5.6840142 8.69995373,5.86449357 8.7440345,6.03101035 L8.19302496,6.03101035 L7.98697301,5.36701175 L7.90496229,5.36701175 C7.84447938,5.45027014 7.77066973,5.5345628 7.68250821,5.62040685 C7.59537181,5.70625091 7.49080814,5.78175231 7.37035489,5.84846245 C7.24990165,5.91517259 7.11099598,5.9705058 6.95466304,6.0144621 C6.79884267,6.05841839 6.61893165,6.0806551 6.41646768,6.0806551 C6.21349114,6.0806551 6.02691675,6.05169566 5.8567445,5.99325965 C5.68708481,5.9358579 5.53997808,5.85415091 5.416962,5.7486558 C5.29343335,5.64419497 5.19604561,5.51491175 5.1247988,5.36287469 C5.05355198,5.21083762 5.01767229,5.04121804 5.01767229,4.85246455 C5.01767229,4.60372364 5.07149183,4.38807923 5.17810577,4.2050142 C5.28523227,4.02298343 5.42362537,3.87353203 5.59379762,3.75666 C5.7634573,3.64133937 5.95669506,3.55549531 6.17351091,3.5001621 C6.39032676,3.44482888 6.60509234,3.41690371 6.81934535,3.41690371 C6.98900503,3.41690371 7.13303637,3.4200065 7.25092678,3.42517783 C7.36881719,3.43034916 7.46774263,3.43758902 7.54719051,3.44586315 C7.6266384,3.45362014 7.69378468,3.4624114 7.74862935,3.47120266 C7.80347402,3.47947678 7.85268046,3.48619951 7.89676122,3.49188797 C7.90752513,3.40811245 7.9157262,3.33674811 7.92136444,3.27572643 C7.92649011,3.21470476 7.92956551,3.13816909 7.92956551,3.04301664 C7.92956551,2.88891105 7.91316336,2.7591107 7.88035908,2.65361559 C7.84755479,2.54812049 7.79373525,2.46382783 7.7199256,2.39970336 C7.64560338,2.33661315 7.54565281,2.29058832 7.41956133,2.26369741 C7.29346984,2.23577224 7.13969974,2.22180965 6.95927615,2.22180965 C6.85471248,2.22180965 6.73989746,2.23060091 6.61329341,2.24663203 C6.48720193,2.26369741 6.36111044,2.28696839 6.23553152,2.31747923 C6.10892747,2.34799007 5.98437368,2.38522364 5.86084503,2.42969706 C5.73782895,2.47365336 5.62660191,2.52071245 5.52767647,2.56984007 L5.3221371,1.93169811 Z M7.89676122,4.03953168 C7.85319302,4.03332608 7.80706199,4.02608622 7.75785556,4.01367503 C7.70916169,4.00333238 7.64765365,3.99505825 7.57435657,3.98936979 C7.50105948,3.98419846 7.41392309,3.97902713 7.31345996,3.97282154 C7.21248425,3.96765021 7.0889556,3.96454741 6.94184887,3.96454741 C6.60457977,3.96454741 6.33650722,4.02608622 6.13814379,4.14709531 C5.93978035,4.26913867 5.84034235,4.47650895 5.84034235,4.76920615 C5.84034235,4.99105615 5.91773997,5.15653867 6.07253521,5.26772224 C6.22784302,5.37838867 6.42774415,5.43320476 6.67275119,5.43320476 C6.85214964,5.43320476 7.01104542,5.40993378 7.14995108,5.36287469 C7.28885674,5.31633273 7.40828485,5.25789671 7.50874799,5.18860091 C7.60972369,5.11982224 7.69122185,5.04225231 7.75375502,4.95640825 C7.8162882,4.8705642 7.8644695,4.78627154 7.89676122,4.70249601 L7.89676122,4.03953168 Z" id="Fill-3"></path>
                        <path d="M9.42667125,1.65746255 L10.1586169,1.65746255 L10.1586169,0.778336678 L10.9151659,0.578723392 L10.9151659,1.65746255 L12.2150358,1.65746255 L12.2150358,2.3049129 L10.9151659,2.3049129 L10.9151659,4.52910136 C10.9151659,4.87713178 10.9592466,5.12380416 11.0468956,5.26704997 C11.1345445,5.41133003 11.2852392,5.48269437 11.4989797,5.48269437 C11.6363477,5.48269437 11.7609014,5.46821465 11.8736662,5.43770381 C11.9859184,5.40719297 12.1135475,5.36685661 12.2560412,5.31721185 L12.4287763,5.85658143 C12.2534783,5.93415136 12.0653662,5.9993101 11.8654651,6.05154052 C11.6650514,6.10428808 11.4502858,6.13066185 11.2196307,6.13066185 C10.835718,6.13066185 10.5630323,6.02516675 10.4015737,5.8152108 C10.2396025,5.60525486 10.1586169,5.26187864 10.1586169,4.7861164 L10.1586169,2.3049129 L9.42667125,2.3049129 L9.42667125,1.65746255 Z" id="Fill-5"></path>
                        <path d="M13.8353114,1.65746255 L13.8353114,4.05592479 C13.8353114,4.28811745 13.8491507,4.49290206 13.8763168,4.6697615 C13.9039954,4.84713808 13.9532018,4.99503808 14.0244486,5.11397864 C14.0956955,5.2329192 14.1930832,5.32393458 14.3166118,5.38805906 C14.4401405,5.4516664 14.5974986,5.48269437 14.7897112,5.48269437 C15.1182667,5.48269437 15.3868518,5.38909332 15.5954665,5.20085696 C15.8040813,5.01313773 15.9629771,4.78094507 16.0726664,4.50427899 L16.0726664,1.65746255 L16.8292154,1.65746255 L16.8292154,4.77784227 C16.8292154,4.98831535 16.837929,5.20189122 16.8543311,5.42115556 C16.8707333,5.63938563 16.8953365,5.83744752 16.9281408,6.01430696 L16.4181366,6.01430696 L16.2207983,5.29238948 L16.138275,5.29238948 C15.9957814,5.54113038 15.7984431,5.74332934 15.5467727,5.8984692 C15.2940771,6.05309192 14.9788484,6.13066185 14.600574,6.13066185 C14.3478784,6.13066185 14.1274746,6.10015101 13.9383374,6.03912934 C13.7492002,5.97810766 13.5903044,5.87468108 13.4611375,5.72781535 C13.3324832,5.58146675 13.2361206,5.38650766 13.1730748,5.14293808 C13.1100291,4.8993685 13.0787625,4.59529437 13.0787625,4.23019857 L13.0787625,1.65746255 L13.8353114,1.65746255 Z" id="Fill-7"></path>
                        <path d="M18.9266908,1.65746255 L18.9266908,4.05592479 C18.9266908,4.28811745 18.9405301,4.49290206 18.9676962,4.6697615 C18.9953748,4.84713808 19.0445813,4.99503808 19.1158281,5.11397864 C19.1870749,5.2329192 19.2844626,5.32393458 19.4079913,5.38805906 C19.5315199,5.4516664 19.688878,5.48269437 19.8810906,5.48269437 C20.2096461,5.48269437 20.4782312,5.38909332 20.686846,5.20085696 C20.8954607,5.01313773 21.0543565,4.78094507 21.1640459,4.50427899 L21.1640459,1.65746255 L21.9205948,1.65746255 L21.9205948,4.77784227 C21.9205948,4.98831535 21.9287959,5.20189122 21.9457106,5.42115556 C21.9616001,5.63938563 21.9867159,5.83744752 22.0195202,6.01430696 L21.509516,6.01430696 L21.3121777,5.29238948 L21.2296544,5.29238948 C21.0871608,5.54113038 20.8898225,5.74332934 20.6376395,5.8984692 C20.3854566,6.05309192 20.0697153,6.13066185 19.6914408,6.13066185 C19.4392579,6.13066185 19.2183415,6.10015101 19.0297168,6.03912934 C18.8405796,5.97810766 18.6816838,5.87468108 18.5525169,5.72781535 C18.4238626,5.58146675 18.3275,5.38650766 18.2649668,5.14293808 C18.2014085,4.8993685 18.1701419,4.59529437 18.1701419,4.23019857 L18.1701419,1.65746255 L18.9266908,1.65746255 Z" id="Fill-9"></path>
                        <path d="M25.5152273,2.3796386 C25.4219401,2.35585049 25.3312157,2.33516517 25.2440793,2.31654839 C25.1559178,2.29793161 25.0739071,2.28810608 24.997022,2.28810608 C24.7063965,2.28810608 24.4798419,2.36257322 24.3183833,2.51150748 C24.1564121,2.65992462 24.0564615,2.84712671 24.018019,3.07311378 L24.018019,6.01456552 L23.2614701,6.01456552 L23.2614701,1.65772112 L23.7878764,1.65772112 L23.9360083,2.23897846 L24.0098179,2.23897846 C24.136422,2.02333406 24.2830162,1.85526587 24.450113,1.73632531 C24.6172099,1.61738476 24.8268498,1.55791448 25.0795453,1.55791448 C25.1559178,1.55791448 25.2466421,1.5646372 25.3506933,1.57859979 C25.4547444,1.59307951 25.559308,1.61583336 25.6633591,1.64944699 L25.5152273,2.3796386 Z" id="Fill-11"></path>
                        <path d="M27.0366799,4.86073867 C27.0366799,5.08776 27.079223,5.24807119 27.1643091,5.3427065 C27.2493952,5.43579042 27.3631851,5.48284951 27.5056788,5.48284951 C27.5933277,5.48284951 27.6784138,5.47767818 27.7604246,5.46630126 C27.8429479,5.45544147 27.9418733,5.43320476 28.0566883,5.40010825 L28.1556137,5.96481734 C28.1007691,5.98705406 28.0346479,6.00773937 27.9582754,6.02687329 C27.8813904,6.0460072 27.8014299,6.06410685 27.7194192,6.0806551 C27.6374085,6.09772049 27.5548852,6.10961455 27.4728745,6.1184058 C27.3903512,6.1261628 27.3165415,6.13029986 27.2504204,6.13029986 C26.9546692,6.13029986 26.7188884,6.05479846 26.5435905,5.9027614 C26.36778,5.75072434 26.280131,5.4968121 26.280131,5.14257608 L26.280131,0.204991469 L27.0366799,0.204991469 L27.0366799,4.86073867 Z" id="Fill-13"></path>
                        <path d="M28.7970914,0.620145734 C28.7970914,0.492931049 28.8462978,0.378127552 28.9452232,0.275735245 C29.0441487,0.17386007 29.172803,0.122146783 29.3316988,0.122146783 C29.4905945,0.122146783 29.6223242,0.17386007 29.7268879,0.275735245 C29.830939,0.378127552 29.8827083,0.492931049 29.8827083,0.620145734 C29.8827083,0.74736042 29.830939,0.859578252 29.7268879,0.956282098 C29.6223242,1.05298594 29.4905945,1.10211357 29.3316988,1.10211357 C29.172803,1.10211357 29.0441487,1.05298594 28.9452232,0.956282098 C28.8462978,0.859578252 28.7970914,0.74736042 28.7970914,0.620145734 L28.7970914,0.620145734 Z M28.9534243,6.01435867 L29.7104858,6.01435867 L29.7104858,1.65699713 L28.9534243,1.65699713 L28.9534243,6.01435867 Z" id="Fill-15"></path>
                        <g id="Group-19" transform="translate(30.241454, 0.000000)">
                            <path d="M1.09720095,1.65746255 L1.85426244,1.65746255 L1.85426244,6.16375836 C1.85426244,6.70002514 1.7537993,7.10028598 1.55389817,7.36298948 C1.35348446,7.62517584 1.03159238,7.75704472 0.587196774,7.75704472 L0.443165442,7.75704472 C0.390883606,7.75704472 0.335013802,7.75187339 0.274530894,7.74049647 L0.274530894,7.10959437 C0.45546705,7.11528283 0.599498382,7.09304612 0.706624888,7.04340136 C0.813751395,6.99375661 0.895762117,6.91773808 0.953169623,6.81482864 C1.0110897,6.71243633 1.04901966,6.58522164 1.0684972,6.43318458 C1.08746218,6.28114752 1.09720095,6.10015101 1.09720095,5.88967794 L1.09720095,1.65746255 Z M0.92446587,0.620611154 C0.92446587,0.492879336 0.974184871,0.378075839 1.07259774,0.275683531 C1.1710106,0.173291224 1.30017749,0.12209507 1.45958583,0.12209507 C1.61796904,0.12209507 1.74969877,0.173291224 1.85426244,0.275683531 C1.95780097,0.378075839 2.01059538,0.492879336 2.01059538,0.620611154 C2.01059538,0.747308706 1.95780097,0.859526538 1.85426244,0.956230385 C1.74969877,1.05345136 1.61796904,1.10154472 1.45958583,1.10154472 C1.30017749,1.10154472 1.1710106,1.05345136 1.07259774,0.956230385 C0.974184871,0.859526538 0.92446587,0.747308706 0.92446587,0.620611154 L0.92446587,0.620611154 Z" id="Fill-17"></path>
                        </g>
                    </g>
                    <polygon id="Fill-21" fill="#75B847" points="41.9031224 63.0513214 41.4346362 63.0513214 41.4346362 65.0097036 40.6780872 65.0097036 40.6780872 59.2012672 41.4346362 59.2012672 41.4346362 62.6365808 41.8621171 62.4959207 43.2932042 60.6528592 44.1819954 60.6528592 42.8083158 62.337678 42.8165168 62.337678 42.3639202 62.6701945 42.8821254 63.0430473 44.4039369 65.0097036 43.4495371 65.0097036"></polygon>
                    <polygon id="Fill-22" fill="#75B847" points="48.2581333 63.1594022 48.5492714 64.0555934 48.8209319 63.1428539 49.8491413 60.6528592 50.6718114 60.6528592 48.6563979 65.1012361 48.3273299 65.1012361 46.270911 60.6528592 47.1427875 60.6528592"></polygon>
                    <g id="Group-44" transform="translate(50.744135, 58.995552)" fill="#75B847">
                        <path d="M0.39595802,1.93169811 C0.890072623,1.69381699 1.50105251,1.57487643 2.23043537,1.57487643 C2.55950339,1.57487643 2.82398798,1.61779846 3.02440168,1.70364252 C3.22430281,1.78896944 3.37909805,1.89860161 3.48929996,2.03047049 C3.59847674,2.16389077 3.67126125,2.31179077 3.70714094,2.47520476 C3.74250807,2.63861874 3.76044791,2.80048133 3.76044791,2.96079252 C3.76044791,3.26486664 3.74917144,3.57049217 3.72713106,3.87766909 C3.70560324,4.18432888 3.69483934,4.51787958 3.69483934,4.87676979 C3.69483934,5.08776 3.70457811,5.29151035 3.72354309,5.48750371 C3.74250807,5.6840142 3.77377466,5.86449357 3.81785542,6.03101035 L3.26684588,6.03101035 L3.0613065,5.36701175 L2.97878321,5.36701175 C2.91881287,5.45027014 2.84449066,5.5345628 2.7568417,5.62040685 C2.66919274,5.70625091 2.56462906,5.78175231 2.44417582,5.84846245 C2.32372257,5.91517259 2.18481691,5.9705058 2.02848397,6.0144621 C1.87317616,6.05841839 1.69275257,6.0806551 1.4902886,6.0806551 C1.28679949,6.0806551 1.10073767,6.05169566 0.931077985,5.99325965 C0.760905735,5.9358579 0.613799002,5.85415091 0.490782918,5.7486558 C0.367766834,5.64419497 0.270379101,5.51491175 0.199132286,5.36287469 C0.127885471,5.21083762 0.0920057794,5.04121804 0.0920057794,4.85246455 C0.0920057794,4.60372364 0.145312749,4.38807923 0.252439255,4.2050142 C0.359053195,4.02298343 0.497446289,3.87353203 0.667618538,3.75666 C0.837790788,3.64133937 1.03102855,3.55549531 1.24733183,3.5001621 C1.46414768,3.44482888 1.67942583,3.41690371 1.89316627,3.41690371 C2.06282596,3.41690371 2.20736985,3.4200065 2.3247477,3.42517783 C2.44263812,3.43034916 2.54156355,3.43758902 2.62101144,3.44586315 C2.70097189,3.45362014 2.7676056,3.4624114 2.82296284,3.47120266 C2.87729494,3.47947678 2.92650138,3.48619951 2.97058214,3.49188797 C2.98134605,3.40811245 2.99005969,3.33674811 2.99518536,3.27572643 C3.0008236,3.21470476 3.003899,3.13816909 3.003899,3.04301664 C3.003899,2.88891105 2.98749685,2.7591107 2.95418,2.65361559 C2.92137571,2.54812049 2.86755617,2.46382783 2.79374652,2.39970336 C2.71993687,2.33661315 2.6199863,2.29058832 2.49338225,2.26369741 C2.36780333,2.23577224 2.21403323,2.22180965 2.03309707,2.22180965 C1.9285334,2.22180965 1.81371839,2.23060091 1.6876269,2.24663203 C1.56102285,2.26369741 1.43544393,2.28696839 1.30935244,2.31747923 C1.18326096,2.34799007 1.0581946,2.38522364 0.934665954,2.42969706 C0.81164987,2.47365336 0.700422827,2.52071245 0.601497393,2.56984007 L0.39595802,1.93169811 Z M2.97058214,4.03953168 C2.92752651,4.03332608 2.88088291,4.02608622 2.83218905,4.01367503 C2.78298261,4.00333238 2.72198714,3.99505825 2.64817749,3.98936979 C2.57488041,3.98419846 2.48774401,3.97902713 2.38728088,3.97282154 C2.28681774,3.96765021 2.16277652,3.96454741 2.01618236,3.96454741 C1.67840069,3.96454741 1.41084071,4.02608622 1.21196471,4.14709531 C1.01360127,4.26913867 0.914163273,4.47650895 0.914163273,4.76920615 C0.914163273,4.99105615 0.99207346,5.15653867 1.1468687,5.26772224 C1.3021765,5.37838867 1.50207764,5.43320476 1.74657211,5.43320476 C1.92597056,5.43320476 2.08486634,5.40993378 2.22428457,5.36287469 C2.36319023,5.31633273 2.48210578,5.25789671 2.58308148,5.18860091 C2.68354461,5.11982224 2.76555534,5.04225231 2.82808851,4.95640825 C2.89062169,4.8705642 2.93829042,4.78627154 2.97058214,4.70249601 L2.97058214,4.03953168 Z" id="Fill-23"></path>
                        <path d="M8.0947146,6.01472066 L8.0947146,3.6079843 C8.0947146,3.14256472 8.02090495,2.7945343 7.87277308,2.56182451 C7.72464122,2.32963185 7.46118177,2.21327696 7.08341988,2.21327696 C6.74820105,2.21327696 6.47038973,2.30015528 6.24844821,2.47442906 C6.02599412,2.64870283 5.87119889,2.87210423 5.78354993,3.14256472 L5.78354993,6.01472066 L5.02700101,6.01472066 L5.02700101,1.65735913 L5.55340734,1.65735913 L5.70102664,2.23809934 L5.77534885,2.23809934 C5.93373206,2.03952031 6.1413217,1.87196927 6.39606751,1.73699759 C6.65132588,1.60099164 6.95681583,1.53324724 7.31356247,1.53324724 C7.56574544,1.53324724 7.78768696,1.56272381 7.97938702,1.62064269 C8.17108709,1.67804444 8.33203313,1.78043675 8.46120002,1.92730248 C8.58985434,2.07416822 8.68724207,2.27067871 8.75285065,2.51631682 C8.8189718,2.7629892 8.85126352,3.07378605 8.85126352,3.45025878 L8.85126352,6.01472066 L8.0947146,6.01472066 Z" id="Fill-25"></path>
                        <path d="M15.982916,4.51229455 C15.982916,4.79413196 15.9875291,5.05890399 15.9952176,5.3045421 C16.0034186,5.55121448 16.0295596,5.79323266 16.0736403,6.03111378 L15.5718372,6.03111378 L15.3821874,5.36659804 L15.3001767,5.36659804 C15.1740852,5.58844804 14.9890485,5.77151308 14.744554,5.91475888 C14.5005721,6.05852182 14.2176351,6.13040329 13.8936928,6.13040329 C13.2739993,6.13040329 12.8121764,5.94526972 12.5077116,5.57500259 C12.2032468,5.20370119 12.0510144,4.63382077 12.0510144,3.8648442 C12.0510144,3.12327566 12.2386139,2.55494664 12.6148381,2.15985713 C12.9900371,1.76476762 13.5174686,1.56670573 14.197645,1.56670573 C14.3129726,1.56670573 14.4159986,1.57032566 14.5067229,1.57859979 C14.5969347,1.58739105 14.6815083,1.59669944 14.7614688,1.60807636 C14.8409166,1.61893615 14.9178017,1.63600154 14.9916113,1.65720399 C15.065421,1.6794407 15.1438437,1.70167741 15.2258545,1.72391413 L15.2258545,0.205094895 L15.982916,0.205094895 L15.982916,4.51229455 Z M15.2258545,2.46237986 C15.0992504,2.36826168 14.9618825,2.30362007 14.8158009,2.26742077 C14.6702318,2.23122147 14.4749438,2.21415608 14.231987,2.21415608 C13.7850286,2.21415608 13.4390459,2.34395643 13.1930137,2.60407427 C12.9469815,2.86367497 12.824478,3.28668965 12.824478,3.87363545 C12.824478,4.10531098 12.8460058,4.31992112 12.8905991,4.51694874 C12.9346799,4.7129421 13.0038765,4.88359594 13.0971637,5.02684175 C13.191476,5.17060469 13.3155172,5.28282252 13.4703124,5.36349524 C13.6251077,5.44365084 13.81527,5.48295294 14.0418247,5.48295294 C14.3785812,5.48295294 14.6410155,5.39866028 14.828615,5.2305921 C15.015702,5.06148965 15.1489694,4.81119734 15.2258545,4.47971517 L15.2258545,2.46237986 Z" id="Fill-27"></path>
                        <path d="M17.3071328,0.620145734 C17.3071328,0.492931049 17.3563393,0.378127552 17.4547521,0.275735245 C17.5536776,0.17386007 17.6828445,0.122146783 17.8417402,0.122146783 C18.000636,0.122146783 18.1323657,0.17386007 18.2369294,0.275735245 C18.3409805,0.378127552 18.3927498,0.492931049 18.3927498,0.620145734 C18.3927498,0.74736042 18.3409805,0.859578252 18.2369294,0.956282098 C18.1323657,1.05298594 18.000636,1.10211357 17.8417402,1.10211357 C17.6828445,1.10211357 17.5536776,1.05298594 17.4547521,0.956282098 C17.3563393,0.859578252 17.3071328,0.74736042 17.3071328,0.620145734 L17.3071328,0.620145734 Z M17.4634658,6.01435867 L18.2200147,6.01435867 L18.2200147,1.65699713 L17.4634658,1.65699713 L17.4634658,6.01435867 Z" id="Fill-29"></path>
                        <path d="M22.9083627,5.71571444 C22.71615,5.85378892 22.4921583,5.95773262 22.2343371,6.02702843 C21.9760033,6.09528997 21.7043428,6.130455 21.4198681,6.130455 C21.0579957,6.130455 20.7494304,6.07460465 20.4946846,5.96445535 C20.2394262,5.85378892 20.0323491,5.69916619 19.8734534,5.50007003 C19.7145576,5.29993962 19.59923,5.05947283 19.5279832,4.77815255 C19.4567364,4.49579801 19.4208567,4.18293262 19.4208567,3.84007353 C19.4208567,3.10419346 19.5982049,2.53638157 19.9513636,2.1340522 C20.3055474,1.73379136 20.8135013,1.53314381 21.476763,1.53314381 C21.7679011,1.53314381 22.020084,1.55951759 22.2343371,1.61123087 C22.4485901,1.66449556 22.6397776,1.7296543 22.8104624,1.8067071 L22.6136366,2.4298522 C22.4665299,2.35228227 22.3071216,2.29126059 22.1354116,2.24678717 C21.9637017,2.20283087 21.7776398,2.18059416 21.5751759,2.18059416 C20.6879224,2.18059416 20.2435268,2.7334092 20.2435268,3.84007353 C20.2435268,4.05002948 20.26813,4.25377983 20.3173364,4.45029031 C20.3660303,4.64628367 20.4449656,4.82107458 20.5536298,4.97259451 C20.6633191,5.12463157 20.8063253,5.24874346 20.9836735,5.34182738 C21.1605092,5.43646269 21.3768124,5.48352178 21.6330959,5.48352178 C21.8622134,5.48352178 22.0626271,5.45094241 22.2343371,5.38733507 C22.4065596,5.32372773 22.5485406,5.24874346 22.6633556,5.15979661 L22.9083627,5.71571444 Z" id="Fill-31"></path>
                        <path d="M26.8647137,6.01472066 L26.8647137,3.6079843 C26.8647137,3.37010318 26.8498493,3.16376717 26.8196078,2.98949339 C26.7893664,2.81521962 26.7345217,2.66990528 26.6550738,2.55406752 C26.5756259,2.43771262 26.469012,2.3523857 26.3342068,2.29653535 C26.1994017,2.24171927 26.0317923,2.21327696 25.8288158,2.21327696 C25.6858096,2.21327696 25.5453662,2.23809934 25.4085108,2.28826122 C25.2716554,2.33842311 25.1455639,2.40668465 25.0307489,2.4956315 C24.9159339,2.58406122 24.8170085,2.69059059 24.7344852,2.81521962 C24.6524745,2.93984864 24.591479,3.07947451 24.553549,3.23461437 L24.553549,6.01472066 L23.7970001,6.01472066 L23.7970001,0.205767168 L24.553549,0.205767168 L24.553549,2.19672871 L24.6442734,2.19672871 C24.8082948,1.99763255 25.0061457,1.8378385 25.2362883,1.71579514 C25.4664309,1.59375178 25.7514181,1.53324724 26.0912501,1.53324724 C26.3547095,1.53324724 26.5828018,1.56272381 26.7745019,1.62064269 C26.9667145,1.67804444 27.1250977,1.78043675 27.2517018,1.92730248 C27.3777933,2.07416822 27.4710805,2.27067871 27.5305383,2.51631682 C27.5910212,2.7629892 27.6212626,3.07171752 27.6212626,3.44146752 L27.6212626,6.01472066 L26.8647137,6.01472066 Z" id="Fill-33"></path>
                        <path d="M28.3368574,1.65746255 L29.0693157,1.65746255 L29.0693157,0.778336678 L29.8258646,0.578723392 L29.8258646,1.65746255 L31.125222,1.65746255 L31.125222,2.3049129 L29.8258646,2.3049129 L29.8258646,4.52910136 C29.8258646,4.87713178 29.8694328,5.12380416 29.9570818,5.26704997 C30.0447307,5.41133003 30.195938,5.48269437 30.4096784,5.48269437 C30.5470464,5.48269437 30.6721128,5.46821465 30.7838524,5.43770381 C30.8961045,5.40719297 31.0242463,5.36685661 31.1667399,5.31721185 L31.339475,5.85658143 C31.1641771,5.93415136 30.9755524,5.9993101 30.7761639,6.05154052 C30.5757502,6.10428808 30.360472,6.13066185 30.1298169,6.13066185 C29.7459042,6.13066185 29.4737311,6.02516675 29.3117599,5.8152108 C29.1492762,5.60525486 29.0693157,5.26187864 29.0693157,4.7861164 L29.0693157,2.3049129 L28.3368574,2.3049129 L28.3368574,1.65746255 Z" id="Fill-35"></path>
                        <path d="M31.9888974,0.205560315 L32.7464715,0.205560315 L32.7464715,2.19703899 L32.8284822,2.19703899 C32.9545737,1.97622325 33.1355098,1.81074073 33.3712907,1.7031771 C33.6070715,1.59561346 33.8566916,1.54183164 34.1201511,1.54183164 C34.7172916,1.54183164 35.1709135,1.72489668 35.4810165,2.09309528 C35.790607,2.46077675 35.9459148,3.01617745 35.9459148,3.75722885 C35.9459148,4.51534563 35.7429382,5.09350017 35.3369852,5.49169248 C34.9310321,5.88988479 34.360545,6.08898094 33.6260365,6.08898094 C33.2636516,6.08898094 32.9366338,6.0584701 32.6434455,5.99796556 C32.3497446,5.93694388 32.1319036,5.86454528 31.9888974,5.78232115 L31.9888974,0.205560315 Z M34.0043109,2.18876486 C33.8295256,2.18876486 33.6752429,2.21669003 33.542488,2.27202325 C33.4092206,2.32683934 33.2903051,2.403375 33.1867665,2.50007885 C33.0837406,2.59729983 32.995579,2.70744913 32.9207443,2.83207815 C32.8479597,2.95619003 32.7895271,3.08443899 32.7464715,3.21785927 L32.7464715,5.28380507 C33.0130063,5.38878304 33.3369487,5.44204773 33.717786,5.44204773 C34.1478297,5.44204773 34.4897119,5.30759318 34.74292,5.03920122 C34.9966407,4.77080927 35.1232447,4.34107185 35.1232447,3.74895472 C35.1232447,3.52762185 35.1017169,3.32076871 35.0576361,3.13098094 C35.0140679,2.93964178 34.9464091,2.77519353 34.8536345,2.63711906 C34.7608598,2.49852745 34.6455323,2.38941241 34.506114,2.30873969 C34.3677209,2.22910122 34.2001115,2.18876486 34.0043109,2.18876486 L34.0043109,2.18876486 Z" id="Fill-37"></path>
                        <path d="M37.0144632,0.620145734 C37.0144632,0.492931049 37.0646948,0.378127552 37.1631077,0.275735245 C37.2620331,0.17386007 37.3901749,0.122146783 37.5495832,0.122146783 C37.708479,0.122146783 37.8396961,0.17386007 37.9442598,0.275735245 C38.0488235,0.378127552 38.1005927,0.492931049 38.1005927,0.620145734 C38.1005927,0.74736042 38.0488235,0.859578252 37.9442598,0.956282098 C37.8396961,1.05298594 37.708479,1.10211357 37.5495832,1.10211357 C37.3901749,1.10211357 37.2620331,1.05298594 37.1631077,0.956282098 C37.0646948,0.859578252 37.0144632,0.74736042 37.0144632,0.620145734 L37.0144632,0.620145734 Z M37.1713087,6.01435867 L37.9278577,6.01435867 L37.9278577,1.65699713 L37.1713087,1.65699713 L37.1713087,6.01435867 Z" id="Fill-39"></path>
                        <g id="Group-43" transform="translate(38.442526, 0.000000)">
                            <path d="M1.11421818,1.65746255 L1.87127966,1.65746255 L1.87127966,6.16375836 C1.87127966,6.70002514 1.77081653,7.10028598 1.57091539,7.36298948 C1.36998912,7.62517584 1.04809703,7.75704472 0.603701432,7.75704472 L0.460182667,7.75704472 C0.407900831,7.75704472 0.352031027,7.75187339 0.291548119,7.74049647 L0.291548119,7.10959437 C0.472484275,7.11528283 0.61600304,7.09304612 0.723642113,7.04340136 C0.830256053,6.99375661 0.911754208,6.91773808 0.970186848,6.81482864 C1.02759435,6.71243633 1.06603688,6.58522164 1.08551443,6.43318458 C1.10396684,6.28114752 1.11421818,6.10015101 1.11421818,5.88967794 L1.11421818,1.65746255 Z M0.941483095,0.620611154 C0.941483095,0.492879336 0.990689529,0.378075839 1.0891024,0.275683531 C1.18802783,0.173291224 1.31668215,0.12209507 1.47609049,0.12209507 C1.63498627,0.12209507 1.76569086,0.173291224 1.87127966,0.275683531 C1.9748182,0.378075839 2.02710004,0.492879336 2.02710004,0.620611154 C2.02710004,0.747308706 1.9748182,0.859526538 1.87127966,0.956230385 C1.76569086,1.05345136 1.63498627,1.10154472 1.47609049,1.10154472 C1.31668215,1.10154472 1.18802783,1.05345136 1.0891024,0.956230385 C0.990689529,0.859526538 0.941483095,0.747308706 0.941483095,0.620611154 L0.941483095,0.620611154 Z" id="Fill-41"></path>
                        </g>
                    </g>
                    <polygon id="Fill-45" fill="#0080AA" points="0 44.4426572 0 45.6263743 5.6782174 45.6263743 5.02571959 46.1636753 0 52.6733439 0 53.8565439 6.90479027 53.8565439 6.90479027 52.6733439 1.21273356 52.6733439 1.83960302 52.1758621 6.90479027 45.6263743 6.90479027 44.4426572"></polygon>
                    <g id="Group-58" transform="translate(7.688505, 43.998699)" fill="#0080AA">
                        <path d="M1.50915107,2.79779224 L1.50915107,6.68456287 C1.50915107,7.06051846 1.53119145,7.39251776 1.57578478,7.67900937 C1.61986554,7.96653524 1.699826,8.2064849 1.81566614,8.39834119 C1.93099372,8.59123175 2.08886436,8.73913175 2.2887655,8.84255832 C2.48866663,8.9459849 2.74392501,8.99718105 3.05556575,8.99718105 C3.58863545,8.99718105 4.02380485,8.84462685 4.36158651,8.54003559 C4.69936817,8.23544434 4.95667682,7.85845448 5.13505014,7.41061741 L5.13505014,2.79779224 L6.36111044,2.79779224 L6.36111044,7.85380028 C6.36111044,8.1956251 6.37443718,8.54210413 6.40109067,8.89685727 C6.42774415,9.25109329 6.46772438,9.57119853 6.52103135,9.85769014 L5.69477332,9.85769014 L5.3749315,8.68845273 L5.24115151,8.68845273 C5.01049635,9.09181636 4.69014197,9.41916147 4.28162606,9.66945378 C3.87259758,9.92026322 3.36156826,10.0464436 2.74853811,10.0464436 C2.3400222,10.0464436 1.98225042,9.99731601 1.67573535,9.8980265 C1.36922027,9.80028839 1.11139906,9.63170308 0.902271718,9.39433909 C0.693656943,9.15645797 0.53783657,8.84100692 0.435835734,8.44643455 C0.333834898,8.05134503 0.282578196,7.55800028 0.282578196,6.96691741 L0.282578196,2.79779224 L1.50915107,2.79779224 Z" id="Fill-46"></path>
                        <path d="M7.68102176,2.79779224 L8.86710184,2.79779224 L8.86710184,1.37153979 L10.0936747,1.04884888 L10.0936747,2.79779224 L12.1998126,2.79779224 L12.1998126,3.84602056 L10.0936747,3.84602056 L10.0936747,7.45043664 C10.0936747,8.01618 10.164409,8.41437231 10.3069026,8.64811636 C10.4488836,8.88134329 10.6933781,8.99718105 11.0398734,8.99718105 C11.2618149,8.99718105 11.4642789,8.9728758 11.6462402,8.92374818 C11.8287141,8.87462056 12.0352786,8.80946182 12.2664463,8.72878909 L12.5463079,9.6022265 C12.2618332,9.72788979 11.9573684,9.8333849 11.6329135,9.91871182 C11.3084585,10.0040387 10.959913,10.0464436 10.5867642,10.0464436 C9.96450782,10.0464436 9.52267505,9.87630692 9.26024074,9.53499923 C8.99831899,9.19420867 8.86710184,8.6393251 8.86710184,7.86776287 L8.86710184,3.84602056 L7.68102176,3.84602056 L7.68102176,2.79779224 Z" id="Fill-48"></path>
                        <path d="M13.5990693,2.79779224 L14.4253273,2.79779224 L14.6657212,3.69863769 L14.7856619,3.69863769 C15.0255433,3.34853874 15.3361589,3.07807825 15.7185339,2.88518769 C16.1009089,2.69229713 16.5314652,2.59559329 17.0117405,2.59559329 C18.0245729,2.59559329 18.7795841,2.88001636 19.2777992,3.44989678 C19.7749893,4.01926007 20.0240968,4.92682825 20.0240968,6.17260133 C20.0240968,6.76523559 19.9420861,7.30098524 19.7775521,7.78036741 C19.6130181,8.26026671 19.3777498,8.66776741 19.0712347,9.00442091 C18.7647197,9.34004014 18.3915709,9.59808944 17.9512758,9.77701741 C17.5114933,9.95697965 17.0199415,10.0464436 16.4786708,10.0464436 C16.30081,10.0464436 16.1383263,10.0397209 15.9917321,10.0262755 C15.8451379,10.0123129 15.7098202,9.98955902 15.5852665,9.95904818 C15.4607127,9.92698594 15.3361589,9.89182091 15.2121177,9.85148455 C15.0875639,9.81114818 14.9589096,9.76408909 14.8256421,9.70979014 L14.8256421,12.5478153 L13.5990693,12.5478153 L13.5990693,2.79779224 Z M16.7185521,3.64485587 C16.1890704,3.64485587 15.7744037,3.77879329 15.4740394,4.04873664 C15.1741877,4.3171286 14.9578844,4.7292835 14.8256421,5.28571846 L14.8256421,8.54003559 C15.0281061,8.68379853 15.2490225,8.79601636 15.4873662,8.87668909 C15.7257098,8.95684469 16.0301746,8.99718105 16.4007606,8.99718105 C17.1157916,8.99718105 17.6760273,8.75981706 18.0819804,8.28405483 C18.4879335,7.80932685 18.69091,7.10085483 18.69091,6.15967301 C18.69091,5.39741916 18.5412404,4.78823664 18.2413887,4.33109119 C17.9410245,3.8734286 17.4335831,3.64485587 16.7185521,3.64485587 L16.7185521,3.64485587 Z" id="Fill-50"></path>
                        <path d="M26.6356988,9.85784528 L26.6356988,5.95814633 C26.6356988,5.57236521 26.6110955,5.23829738 26.5624017,4.95594283 C26.5137078,4.67358829 26.4245211,4.43880997 26.2958668,4.24953934 C26.1672125,4.0618201 25.9934523,3.92271136 25.7761239,3.83324738 C25.5582829,3.74326626 25.2850847,3.69879283 24.9560166,3.69879283 C24.7248489,3.69879283 24.4982943,3.7391292 24.2763528,3.81980192 C24.0544113,3.90047465 23.849897,4.01269248 23.6633226,4.15645542 C23.4767482,4.29918409 23.3168273,4.47138934 23.1835599,4.67358829 C23.0497799,4.8752701 22.9523922,5.1017743 22.8903716,5.35258374 L22.8903716,9.85784528 L21.6637987,9.85784528 L21.6637987,0.443958566 L22.8903716,0.443958566 L22.8903716,3.67138479 L23.0364532,3.67138479 C23.302988,3.34869388 23.6233424,3.08857605 23.9964912,2.89154843 C24.36964,2.6945208 24.8314629,2.59574843 25.382985,2.59574843 C25.8094407,2.59574843 26.1779764,2.64280752 26.4891046,2.7369257 C26.8002328,2.83104388 27.0575414,2.99704353 27.2620557,3.23440752 C27.4665699,3.47228864 27.6177772,3.79084248 27.7156775,4.18955192 C27.8130652,4.5887785 27.8617591,5.08832885 27.8617591,5.6887201 L27.8617591,9.85784528 L26.6356988,9.85784528 Z" id="Fill-52"></path>
                        <path d="M35.5663589,9.27958731 C35.2552307,9.51281423 34.8687552,9.69898206 34.4069323,9.8380908 C33.9445969,9.97668241 33.4422812,10.0464953 32.9004979,10.0464953 C32.3141212,10.0464953 31.8051421,9.95806563 31.3745859,9.78379185 C30.9430044,9.60900094 30.5898457,9.36026003 30.3145973,9.03756913 C30.0388362,8.71487822 29.8348345,8.32496003 29.7015671,7.86781458 C29.5682997,7.41066913 29.501666,6.89870759 29.501666,6.33451563 C29.501666,5.12442472 29.7969046,4.19875689 30.3878943,3.55751213 C30.9788841,2.91626738 31.8210317,2.595645 32.9138246,2.595645 C33.2603199,2.595645 33.6068152,2.63391283 33.9538231,2.7104485 C34.3003184,2.78646703 34.610934,2.92971283 34.886695,3.14070304 C35.1619435,3.35117612 35.3864479,3.64025339 35.5596955,4.00793486 C35.7329432,4.37561633 35.819567,4.8549985 35.819567,5.44711563 C35.819567,5.59036143 35.8149539,5.75636108 35.8062403,5.94459745 C35.7975266,6.13283381 35.7795868,6.31693311 35.7534459,6.49586108 L30.7543798,6.49586108 C30.7723196,7.32120514 30.9676076,7.94383311 31.3407564,8.3652964 C31.7144178,8.78675969 32.3494883,8.99723276 33.2469932,8.99723276 C33.6201419,8.99723276 33.9758635,8.93207402 34.3136451,8.80227367 C34.6509142,8.67247332 34.9133485,8.51785059 35.0999229,8.33840549 L35.5663589,9.27958731 Z M34.6468137,5.60846108 C34.664241,4.8911978 34.5202096,4.38440759 34.2136946,4.08860759 C33.9071795,3.79280759 33.4781609,3.64490759 32.9271513,3.64490759 C32.304895,3.64490759 31.8118055,3.79280759 31.4478829,4.08860759 C31.0829352,4.38440759 30.8697073,4.8911978 30.8076867,5.60846108 L34.6468137,5.60846108 Z" id="Fill-54"></path>
                        <path d="M42.4847322,9.85784528 L42.4847322,5.95814633 C42.4847322,5.20468374 42.3647915,4.63997465 42.1249102,4.26401906 C41.8850288,3.8870292 41.458573,3.69879283 40.8450303,3.69879283 C40.3027344,3.69879283 39.852188,3.8399701 39.492366,4.12232465 C39.1325439,4.40416206 38.8808735,4.76563794 38.7388925,5.20468374 L38.7388925,9.85784528 L37.5123196,9.85784528 L37.5123196,2.79794738 L38.3657437,2.79794738 L38.605625,3.7391292 L38.7260783,3.7391292 C38.9833869,3.41592115 39.3186057,3.14546066 39.7322473,2.92516206 C40.1453763,2.70538059 40.6405161,2.59574843 41.2181791,2.59574843 C41.6272076,2.59574843 41.9870296,2.64280752 42.2981578,2.7369257 C42.609286,2.83104388 42.8691575,2.99704353 43.0777722,3.23440752 C43.286387,3.47228864 43.4442577,3.79084248 43.5513842,4.18955192 C43.6574855,4.5887785 43.7107925,5.09298304 43.7107925,5.70216556 L43.7107925,9.85784528 L42.4847322,9.85784528 Z" id="Fill-56"></path>
                    </g>
                    <polygon id="Fill-59" fill="#0080AA" points="53.1052233 44.4426055 59.1166093 44.4426055 59.1166093 46.1910317 55.0780937 46.1910317 55.0780937 48.2352579 58.7434605 48.2352579 58.7434605 49.9836841 55.0780937 49.9836841 55.0780937 52.1085831 59.1837555 52.1085831 59.1837555 53.8564922 53.1052233 53.8564922"></polygon>
                    <g id="Group-109" transform="translate(30.754021, 0.042405)">
                        <path d="M34.3742818,53.814139 L34.3742818,49.9413309 C34.3742818,49.3311142 34.2809946,48.8920684 34.0949328,48.6231593 C33.9078458,48.3542502 33.5792904,48.2203128 33.1082413,48.2203128 C32.708439,48.2203128 32.3686071,48.3304621 32.0882329,48.5492093 C31.8088839,48.7689907 31.6151336,49.0492767 31.5085196,49.3895502 C31.5085196,50.1249131 31.5105699,50.8623446 31.515183,51.6023617 C31.5197961,52.3418617 31.5218464,53.0792932 31.5218464,53.814139 L29.6555898,53.814139 L29.6555898,46.7542411 L31.1220441,46.7542411 L31.3219452,47.762133 L31.5218464,47.762133 C31.7530141,47.4306509 32.0595292,47.1462278 32.4413916,46.9083467 C32.8237666,46.6709827 33.3214691,46.5520421 33.9344993,46.5520421 C34.3081607,46.5520421 34.6387664,46.5991012 34.9278542,46.6932194 C35.2159168,46.7873376 35.4563108,46.9492002 35.6480108,47.1772558 C35.8386858,47.4058285 35.9852799,47.7135226 36.0872808,48.0987865 C36.1897942,48.4840505 36.2405383,48.9680869 36.2405383,49.5508956 L36.2405383,53.814139 L34.3742818,53.814139 Z" id="Fill-60" fill="#0080AA"></path>
                        <path d="M43.8119732,53.1687572 C43.5100713,53.4019841 43.09848,53.6010802 42.5792496,53.767597 C42.0595066,53.9330795 41.5013211,54.0163379 40.9067434,54.0163379 C39.7063114,54.0163379 38.8267464,53.6843386 38.2675358,53.0208572 C37.7073001,52.3573757 37.4274385,51.4472219 37.4274385,50.2909128 C37.4274385,49.0627222 37.7426672,48.1324002 38.3736372,47.4999467 C39.0046072,46.8680103 39.8928858,46.5520421 41.0400108,46.5520421 C41.412647,46.5520421 41.7816953,46.5996184 42.146643,46.6932194 C42.5105656,46.7873376 42.8345079,46.944546 43.1189826,47.1643274 C43.4034573,47.3830747 43.6320622,47.6799089 43.8053099,48.0512103 C43.9790701,48.423546 44.0656939,48.8832771 44.0656939,49.4304037 C44.0656939,49.6181229 44.0544174,49.8244589 44.0323771,50.0483774 C44.0098241,50.2728131 43.9718941,50.50604 43.9190997,50.7480582 L39.2537148,50.7480582 C39.2983081,51.358275 39.4741186,51.8081806 39.7796085,52.0993264 C40.0871487,52.3909893 40.586389,52.5368208 41.2798922,52.5368208 C41.6971217,52.5368208 42.0723208,52.4763163 42.4060019,52.3553072 C42.7386579,52.2342981 42.9939163,52.1112205 43.1722896,51.9855572 L43.8119732,53.1687572 Z M41.0133573,48.0315593 C40.4623478,48.0315593 40.0533193,48.1810107 39.7867845,48.481982 C39.5192245,48.7824362 39.3644292,49.1656316 39.3198359,49.6315684 L42.3321923,49.6315684 C42.368072,49.1387407 42.2793979,48.7488226 42.06617,48.4618138 C41.8529421,48.1753222 41.5013211,48.0315593 41.0133573,48.0315593 L41.0133573,48.0315593 Z" id="Fill-62" fill="#0080AA"></path>
                        <path d="M49.5443177,48.4751558 C49.2772703,48.3856919 49.011248,48.3407013 48.743688,48.3407013 C48.3536245,48.3407013 48.0312199,48.4348195 47.7780118,48.6230558 C47.5248037,48.8112922 47.3571943,49.0491733 47.2772338,49.3356649 L47.2772338,53.8140356 L45.4114899,53.8140356 L45.4114899,46.7536205 L46.8779441,46.7536205 L47.0778452,47.7351387 L47.2505803,47.7351387 C47.4289536,47.3679744 47.6667847,47.0851027 47.9645862,46.8885922 C48.2623876,46.6915646 48.6011944,46.5922751 48.9835694,46.5922751 C49.2244759,46.5922751 49.4986993,46.6419198 49.81034,46.7406922 L49.5443177,48.4751558 Z" id="Fill-64" fill="#0080AA"></path>
                        <path d="M56.8223593,53.5454885 C56.8223593,54.5854427 56.529171,55.3518336 55.9422817,55.8446612 C55.3564176,56.3374888 54.5250339,56.5851955 53.4496683,56.5851955 C52.7566777,56.5851955 52.1984922,56.5376192 51.776137,56.443501 C51.3548069,56.3493829 51.0277892,56.2438878 50.797134,56.1275329 C50.9124616,55.7691598 50.9990854,55.4842196 51.0570055,55.2737465 C51.1149256,55.0627563 51.1569561,54.9039965 51.1836096,54.7964329 C51.210263,54.6883521 51.2317909,54.6076794 51.2502433,54.5538976 C51.4639837,54.6614612 51.7207798,54.7710934 52.0237069,54.8838283 C52.3261214,54.995529 52.6941445,55.0513794 53.1303391,55.0513794 C53.4942617,55.0513794 53.7966762,55.0156972 54.0355324,54.9443329 C54.2754138,54.8719343 54.4666013,54.7664392 54.6096075,54.6283647 C54.7515886,54.4892559 54.8515391,54.3211878 54.9094592,54.123643 C54.9673793,53.9260983 54.996083,53.7068339 54.996083,53.4648157 L54.996083,52.940443 L54.8366747,52.940443 C54.6577888,53.2005608 54.4138069,53.384143 54.1026787,53.4917066 C53.7920631,53.5992703 53.4055876,53.6530521 52.9432521,53.6530521 C51.9919277,53.6530521 51.2794596,53.3882801 50.8037974,52.8592531 C50.3286478,52.3302262 50.0903041,51.4790255 50.0903041,50.3040997 C50.0903041,49.0671178 50.4034826,48.1347273 51.030352,47.5064108 C51.6567089,46.8791287 52.587018,46.5657462 53.8228171,46.5657462 C54.471727,46.5657462 55.0514403,46.608151 55.5624696,46.693478 C56.0734989,46.7788049 56.4932913,46.8749916 56.8223593,46.9825552 L56.8223593,53.5454885 Z M53.3835472,52.1869804 C53.7920631,52.1869804 54.1267694,52.111479 54.3897162,51.9589248 C54.651638,51.8063706 54.8407752,51.6171 54.9555902,51.3936986 L54.9555902,48.3545087 C54.6275473,48.2112629 54.2092926,48.1393815 53.703389,48.1393815 C53.1605805,48.1393815 52.743351,48.2996927 52.4501626,48.6229007 C52.1569743,48.9455916 52.0103801,49.4797899 52.0103801,50.2239441 C52.0103801,50.905008 52.1344214,51.4024899 52.3835289,51.7169066 C52.6316114,52.029772 52.9652925,52.1869804 53.3835472,52.1869804 L53.3835472,52.1869804 Z" id="Fill-66" fill="#0080AA"></path>
                        <path d="M58.3545759,45.234491 C58.3545759,44.9469651 58.4565767,44.7075326 58.6616035,44.5141249 C58.8656052,44.3217515 59.1552056,44.2255648 59.5273292,44.2255648 C59.9097042,44.2255648 60.2121187,44.32382 60.4345728,44.5213648 C60.6565143,44.7189095 60.7672288,44.9567907 60.7672288,45.234491 C60.7672288,45.4946088 60.6565143,45.7185274 60.4345728,45.9067637 C60.2121187,46.094483 59.9097042,46.1891183 59.5273292,46.1891183 C59.1552056,46.1891183 58.8656052,46.094483 58.6616035,45.9067637 C58.4565767,45.7185274 58.3545759,45.4946088 58.3545759,45.234491 L58.3545759,45.234491 Z M58.63495,53.8142424 L60.5017191,53.8142424 L60.5017191,46.7538274 L58.63495,46.7538274 L58.63495,53.8142424 Z" id="Fill-68" fill="#0080AA"></path>
                        <path d="M68.2850492,53.1687572 C67.9831473,53.4019841 67.5720685,53.6010802 67.0528381,53.767597 C66.5325826,53.9330795 65.9743971,54.0163379 65.3793068,54.0163379 C64.1793874,54.0163379 63.2998224,53.6843386 62.7406118,53.0208572 C62.1798635,52.3573757 61.9000019,51.4472219 61.9000019,50.2909128 C61.9000019,49.0627222 62.2157432,48.1324002 62.8472258,47.4999467 C63.4771706,46.8680103 64.3664744,46.5520421 65.5135994,46.5520421 C65.8852105,46.5520421 66.2547713,46.5996184 66.6186939,46.6932194 C66.983129,46.7873376 67.3075839,46.944546 67.5920586,47.1643274 C67.8765333,47.3830747 68.1046257,47.6799089 68.2783859,48.0512103 C68.4516335,48.423546 68.5382574,48.8832771 68.5382574,49.4304037 C68.5382574,49.6181229 68.5274934,49.8244589 68.5054531,50.0483774 C68.4829001,50.2728131 68.4454827,50.50604 68.3916632,50.7480582 L63.7262782,50.7480582 C63.7708715,51.358275 63.9461695,51.8081806 64.2531971,52.0993264 C64.5591996,52.3909893 65.059465,52.5368208 65.7529682,52.5368208 C66.1701977,52.5368208 66.5453968,52.4763163 66.8785654,52.3553072 C67.2117339,52.2342981 67.4675049,52.1112205 67.644853,51.9855572 L68.2850492,53.1687572 Z M65.4864333,48.0315593 C64.9349112,48.0315593 64.5258827,48.1810107 64.2598605,48.481982 C63.9928131,48.7824362 63.8369927,49.1656316 63.7929119,49.6315684 L66.8052683,49.6315684 C66.841148,49.1387407 66.7524739,48.7488226 66.539246,48.4618138 C66.3260181,48.1753222 65.9743971,48.0315593 65.4864333,48.0315593 L65.4864333,48.0315593 Z" id="Fill-70" fill="#0080AA"></path>
                        <g id="Group-74" transform="translate(19.477547, 0.000000)">
                            <mask id="mask-2" fill="white">
                                <use xlink:href="#path-1"></use>
                            </mask>
                            <g id="Clip-73"></g>
                            <path d="M0.272788166,1.59633745 C0.272788166,1.59633745 1.52498939,0.263168916 3.26669211,0.503635699 C4.53529547,0.677909476 5.18471788,1.26175248 5.68805869,2.15122101 C6.25393268,3.15135598 6.52456806,4.28025703 7.40105766,5.60566857 C8.54203184,7.32875528 9.1284085,7.79417486 9.1284085,7.79417486 C9.1284085,7.79417486 8.13402849,7.55784514 6.89925455,6.80541682 C5.24622592,5.79700773 5.26775374,5.30004304 4.241082,3.941535 C3.20877203,2.57785563 1.51781345,1.78302241 0.272788166,1.59633745" id="Fill-72" fill="#0080AA" mask="url(#mask-2)"></path>
                        </g>
                        <path d="M3.46756712,10.288617 C3.46756712,10.288617 2.950387,8.52829668 4.02677773,7.12634948 C4.8104927,6.10501206 5.6372633,5.82886311 6.65214599,5.83455157 C7.7941453,5.84024003 8.89770209,6.16913654 10.4738457,6.0646757 C12.5241137,5.92866976 13.2165918,5.65045227 13.2165918,5.65045227 C13.2165918,5.65045227 12.5164252,6.40184633 11.2529475,7.10359563 C9.56045124,8.04374318 9.14475939,7.77638549 7.46558985,7.99513269 C5.7787318,8.21439703 4.25128209,9.29468759 3.46756712,10.288617" id="Fill-75" fill="#0080AA"></path>
                        <path d="M2.79133746,28.7917861 C2.79133746,28.7917861 1.02195612,28.3641172 0.35664413,26.7217032 C-0.128244267,25.5266092 0.0491039201,24.6666172 0.560645802,23.7828371 C1.13625856,22.7873564 1.9702051,21.9873518 2.66832137,20.5574794 C3.57761526,18.699421 3.68371663,17.9542326 3.68371663,17.9542326 C3.68371663,17.9542326 3.97895523,18.9419564 3.94973891,20.3971683 C3.91078382,22.3452078 3.47356415,22.5753319 2.82106634,24.15207 C2.16651826,25.7355308 2.32951457,27.6101375 2.79133746,28.7917861" id="Fill-77" fill="#0080AA"></path>
                        <path d="M18.394595,38.6731092 C18.394595,38.6731092 17.1418812,40.0047263 15.4001785,39.7652938 C14.1320877,39.5905029 13.4816402,39.0061428 12.9788119,38.1166742 C12.4129379,37.1170564 12.1428151,35.9871211 11.265813,34.6622267 C10.1238136,32.93914 9.53846212,32.4732033 9.53846212,32.4732033 C9.53846212,32.4732033 10.5338673,32.709533 11.7676161,33.4624784 C13.4211573,34.4708875 13.3996294,34.9678522 14.4268137,36.3268774 C15.4580986,37.6900396 17.1495697,38.48539 18.394595,38.6731092" id="Fill-79" fill="#0080AA"></path>
                        <path d="M34.6523494,29.9833636 C34.6523494,29.9833636 35.1695295,31.7431668 34.0921137,33.1456311 C33.3089113,34.1664514 32.4821407,34.4426003 31.467258,34.437429 C30.3262838,34.4312234 29.2222144,34.1033612 27.6450457,34.207822 C25.5958028,34.3427937 24.9043499,34.6215283 24.9043499,34.6215283 C24.9043499,34.6215283 25.6040039,33.8701343 26.8664564,33.168385 C28.5589527,32.2287545 28.9751571,32.4955951 30.6543267,32.277365 C32.3411847,32.0581007 33.869147,30.9778101 34.6523494,29.9833636" id="Fill-81" fill="#0080AA"></path>
                        <path d="M35.3318595,11.4100196 C35.3318595,11.4100196 37.1012408,11.8387227 37.7670654,13.4795853 C38.2509287,14.6751965 38.0756307,15.5357056 37.5630637,16.4194857 C36.9869384,17.4144493 36.1524793,18.2144538 35.454363,19.6438091 C34.5460943,21.5029017 34.4389678,22.2470559 34.4389678,22.2470559 C34.4389678,22.2470559 34.1452669,21.2593322 34.1739706,19.8046374 C34.2119006,17.8560808 34.6496328,17.6264738 35.301618,16.0502528 C35.9566787,14.466792 35.7936824,12.5916682 35.3318595,11.4100196" id="Fill-83" fill="#0080AA"></path>
                        <path d="M15.8705613,6.32375927 C15.8705613,6.32375927 16.3246956,5.60287605 16.843926,5.25381136 C17.3631564,4.90474668 18.0018149,4.63221766 18.5348846,4.71340752 C19.0469391,4.79097745 19.5846219,4.92439773 20.0889878,5.52840892 C20.8532252,6.44269983 20.8219586,6.51406416 21.7445793,7.36785052 C22.1602711,7.75208024 22.9552626,8.25990472 23.4750055,8.49261451 C23.9937233,8.7253243 24.5703612,8.93838304 24.5703612,8.93838304 C24.5703612,8.93838304 23.9358033,9.15195892 23.455528,9.11265682 C22.9747401,9.07387185 22.1879497,9.03198409 21.4375516,8.7253243 C20.533896,8.35660857 19.9495696,7.79396801 19.4769828,7.40663549 C19.1576535,7.14444913 18.5471862,6.7995215 17.8623967,6.53371521 C17.3308647,6.32789633 16.958741,6.29997115 16.6706784,6.30100542 C16.247298,6.30203969 15.8705613,6.32375927 15.8705613,6.32375927" id="Fill-85" fill="#75B847"></path>
                        <path d="M5.62670442,16.0018492 C5.62670442,16.0018492 5.23612835,15.2442495 5.19512299,14.6164502 C5.15514276,13.9886509 5.24074146,13.2941415 5.57647285,12.868024 C5.89990264,12.4589719 6.2827902,12.0566425 7.05317842,11.9175338 C8.22080609,11.7065436 8.26642455,11.7701509 9.46019313,11.3905754 C9.99736337,11.2199215 10.8313099,10.7788072 11.2900574,10.4411194 C11.74983,10.1044659 12.2213916,9.7073079 12.2213916,9.7073079 C12.2213916,9.7073079 12.0865865,10.3687208 11.8139009,10.7684645 C11.5401901,11.1687254 11.1101464,11.8353097 10.4714879,12.3379628 C9.7031499,12.9430083 8.92866114,13.1731324 8.35919918,13.3918796 C7.97528649,13.5397796 7.37353281,13.9002212 6.80355829,14.3661579 C6.36070039,14.7271166 6.15054791,15.0389478 6.00754171,15.2913086 C5.79687667,15.6610586 5.62670442,16.0018492 5.62670442,16.0018492" id="Fill-87" fill="#75B847"></path>
                        <path d="M8.71891871,29.8409452 C8.71891871,29.8409452 7.87318314,29.8042288 7.31448509,29.5244599 C6.75527447,29.2462424 6.2017021,28.824262 6.00487636,28.3185061 C5.81522657,27.8313669 5.6609439,27.2956173 5.92696618,26.5530145 C6.32933128,25.4272162 6.40724147,25.4189421 6.67787686,24.1860973 C6.79986781,23.6312138 6.83831033,22.6817578 6.77833999,22.1123945 C6.71888222,21.5430313 6.61380598,20.9317802 6.61380598,20.9317802 C6.61380598,20.9317802 7.11355882,21.3791001 7.32114846,21.8191802 C7.52771297,22.258226 7.88445961,22.9661809 7.99722435,23.7754938 C8.13254205,24.7497722 7.94186712,25.5415026 7.84550452,26.1486166 C7.77989594,26.5581858 7.78912215,27.2640722 7.90393716,27.995298 C7.99261125,28.5625928 8.155095,28.901832 8.29963889,29.1526414 C8.51235421,29.5218743 8.71891871,29.8409452 8.71891871,29.8409452" id="Fill-89" fill="#75B847"></path>
                        <path d="M22.1482258,33.9519964 C22.1482258,33.9519964 21.6935788,34.6718453 21.174861,35.0224614 C20.6556306,35.3704919 20.0164596,35.643538 19.4839024,35.5628653 C18.9713354,35.4847782 18.4341652,35.3513579 17.9292867,34.7478639 C17.1645367,33.8330558 17.1963158,33.7611744 16.2736952,32.9084223 C15.8585159,32.5241926 15.0624994,32.0163681 14.5437815,31.7841754 C14.0250637,31.5509485 13.4484258,31.3373726 13.4484258,31.3373726 C13.4484258,31.3373726 14.0829838,31.124831 14.5627465,31.1620646 C15.0430218,31.2013667 15.8303248,31.2448058 16.5807229,31.5509485 C17.4843785,31.9196642 18.0692175,32.4812705 18.5418043,32.8701544 C18.860621,33.1307894 19.4710883,33.4767513 20.1563904,33.7410062 C20.6874098,33.9483765 21.060046,33.9757845 21.3475961,33.9742331 C21.771489,33.9742331 22.1482258,33.9519964 22.1482258,33.9519964" id="Fill-91" fill="#75B847"></path>
                        <path d="M32.4499002,24.2900928 C32.4499002,24.2900928 32.842014,25.0476924 32.8814816,25.6760088 C32.9209493,26.3043253 32.8358632,26.9983176 32.5006443,27.4234008 C32.1782397,27.8314186 31.794327,28.2358165 31.0244513,28.3744081 C29.8568237,28.5853984 29.8096675,28.5212739 28.616924,28.9013665 C28.0787287,29.0720204 27.2452947,29.5131347 26.7865472,29.8503053 C26.3272872,30.1869588 25.855213,30.5841169 25.855213,30.5841169 C25.855213,30.5841169 25.9900181,29.9237382 26.2637289,29.5229602 C26.5364145,29.1221823 26.9664583,28.4571494 27.6056293,27.9544963 C28.3729421,27.3489337 29.1479435,27.1188095 29.7168929,26.9005795 C30.1018307,26.7526795 30.7035844,26.3917207 31.2725338,25.9263012 C31.7159042,25.5643081 31.9270818,25.252477 32.0690629,25.0011505 C32.2797279,24.6308833 32.4499002,24.2900928 32.4499002,24.2900928" id="Fill-93" fill="#75B847"></path>
                        <path d="M29.2646037,10.5017274 C29.2646037,10.5017274 30.1103393,10.5379267 30.6695499,10.8166613 C31.228248,11.0953959 31.7818203,11.5184106 31.9791586,12.0236494 C32.1682959,12.5107886 32.3230911,13.0465383 32.0575814,13.7896582 C31.6536786,14.9149393 31.5767935,14.9232134 31.3056456,16.1560582 C31.1826295,16.7114589 31.1452121,17.6598806 31.2051825,18.2292438 C31.2651528,18.8001585 31.370229,19.409341 31.370229,19.409341 C31.370229,19.409341 30.8709888,18.9620211 30.6628865,18.5240096 C30.4558095,18.0844466 30.0995754,17.3754575 29.9862981,16.5661445 C29.851493,15.5918662 30.0416553,14.8006529 30.1390431,14.1930218 C30.2036265,13.7839697 30.1944003,13.0780834 30.0806104,12.3478917 C29.9914238,11.7800799 29.82894,11.4403236 29.6843961,11.188997 C29.4727059,10.8197641 29.2646037,10.5017274 29.2646037,10.5017274" id="Fill-95" fill="#75B847"></path>
                        <path d="M16.2286918,9.64928559 C15.6325764,9.63325448 15.2773675,9.73357825 14.8273336,10.2289915 C14.352184,10.7533643 14.2419821,11.3423786 14.2055898,11.5119982 C14.1691976,11.6816178 13.9990253,12.2892489 13.9990253,12.2892489 C13.9990253,12.2892489 14.6971416,11.6211132 15.6710189,11.5947394 C16.6454088,11.5688828 17.1579758,11.9050192 17.4137468,12.0084457 C17.6700303,12.1118723 18.4004383,12.4945506 19.2554001,12.4056038 C20.3897109,12.2892489 20.7551712,11.9732807 21.1970039,11.7984898 C21.2410847,11.7814244 20.3512683,11.6821349 19.4670902,11.3423786 C18.264608,10.8810961 17.988847,10.5247915 17.3532639,10.0821258 C16.937572,9.79304853 16.7028163,9.66221392 16.2286918,9.64928559" id="Fill-97" fill="#F29323"></path>
                        <path d="M8.58923926,17.394126 C8.27759851,17.9071218 8.18584902,18.2675634 8.38626272,18.908291 C8.59897803,19.5852179 9.04952444,19.9772047 9.17664106,20.0935595 C9.30427025,20.2093973 9.73995221,20.6624057 9.73995221,20.6624057 C9.73995221,20.6624057 9.51596042,19.7181211 9.98034614,18.8539921 C10.4452444,17.9903802 10.9906157,17.7106113 11.206919,17.538406 C11.4242474,17.3662008 12.1167255,16.9188809 12.468859,16.1281847 C12.935295,15.0778879 12.8471335,14.6010914 12.9183803,14.1279148 C12.9260688,14.0808557 12.3960745,14.8084616 11.6620785,15.4109214 C10.6641105,16.2310942 10.2207401,16.2936672 9.52313636,16.6282522 C9.06746428,16.8469994 8.83680913,16.985591 8.58923926,17.394126" id="Fill-99" fill="#F29323"></path>
                        <path d="M11.4038473,27.7799639 C11.688322,28.3079566 11.9517814,28.5685915 12.6027415,28.7139059 C13.2895813,28.8685286 13.8508422,28.6694324 14.0143511,28.6161678 C14.1783725,28.5639373 14.7842267,28.4072461 14.7842267,28.4072461 C14.7842267,28.4072461 13.8621187,28.1321314 13.3526271,27.293859 C12.8431354,26.4561038 12.8759397,25.8401985 12.8364721,25.5640496 C12.7970044,25.289452 12.7600996,24.460488 12.2567588,23.7571873 C11.5893965,22.8242797 11.1352621,22.6629342 10.7646762,22.3645485 C10.7282839,22.3345548 11.0875934,23.1614503 11.2382881,24.1041835 C11.4433149,25.3846045 11.2751929,25.8045164 11.2136849,26.5812499 C11.1731921,27.0890744 11.1772926,27.3590178 11.4038473,27.7799639" id="Fill-101" fill="#F29323"></path>
                        <path d="M21.8719522,30.5828241 C22.4680676,30.5988552 22.8232766,30.4980143 23.2722853,30.0020838 C23.74846,29.4777111 23.8586619,28.8886968 23.8950542,28.7201115 C23.9309339,28.5504919 24.1016187,27.9433779 24.1016187,27.9433779 C24.1016187,27.9433779 23.4029898,28.6109964 22.4296251,28.6363359 C21.4552352,28.6632269 20.9421556,28.3260562 20.6863847,28.2231468 C20.4295886,28.1192031 19.7002057,27.7370419 18.8452439,27.8254716 C17.7104206,27.9433779 17.3454729,28.2583118 16.9031275,28.4325856 C16.8590468,28.449651 17.7488631,28.5489405 18.6335538,28.8886968 C19.836036,29.3504964 20.1107719,29.706801 20.7473801,30.1489496 C21.1635846,30.438544 21.3978277,30.5704129 21.8719522,30.5828241" id="Fill-103" fill="#F29323"></path>
                        <path d="M29.4851101,22.9485467 C29.7962382,22.436068 29.8890129,22.0761435 29.6885992,21.4338645 C29.4763964,20.7574547 29.0253374,20.3659851 28.8977083,20.2496302 C28.7711042,20.1332753 28.333372,19.6813012 28.333372,19.6813012 C28.333372,19.6813012 28.5578763,20.6250687 28.0934906,21.4897149 C27.6296175,22.3538439 27.0842462,22.6325785 26.8679429,22.8042666 C26.6506145,22.9764719 25.9576239,23.4237918 25.6054903,24.2150051 C25.1390543,25.2647848 25.2272159,25.7420984 25.1564816,26.2147579 C25.1487931,26.261817 25.6787874,25.5336939 26.4127834,24.9312341 C27.4097262,24.1120956 27.8541218,24.0490054 28.5507004,23.7149376 C29.0073976,23.4967075 29.2370276,23.3570816 29.4851101,22.9485467" id="Fill-105" fill="#F29323"></path>
                        <path d="M26.6577391,12.4008462 C26.3727519,11.8723364 26.109805,11.6122185 25.4588449,11.4663871 C24.7704674,11.3138329 24.2102316,11.512929 24.0472353,11.5646423 C23.8827013,11.6184241 23.2763345,11.7730469 23.2763345,11.7730469 C23.2763345,11.7730469 24.1989552,12.0491958 24.7084468,12.886951 C25.2174258,13.7247063 25.1846215,14.3411287 25.2246018,14.6162434 C25.2640694,14.8929094 25.3004617,15.7208392 25.8038025,16.4236227 C26.4727024,17.3565304 26.9258117,17.5178759 27.2953725,17.8167787 C27.3327899,17.8472895 26.9729679,17.0209112 26.8222732,16.078178 C26.6172463,14.7956885 26.7863935,14.377328 26.8473889,13.6005944 C26.8883943,13.0927699 26.8848063,12.8212752 26.6577391,12.4008462" id="Fill-107" fill="#F29323"></path>
                    </g>
                </g>
            </g>
        </g>
    </g>
</svg>